<?xml version="1.0" encoding="utf-8"?>
<svg xmlns="http://www.w3.org/2000/svg" viewBox="112.239 87.099 266.626 338.761">
  <defs>
      <clipPath id="rectangle-clip">
          <!-- Rectangle that defines the clipping region -->
          <rect x="0" y="110" width="500" height="1000" />
      </clipPath>
  </defs>
  <path  clip-path="url(#rectangle-clip)" style="stroke: rgb(0, 0, 0); fill: rgb(8, 84, 224);" d="M 252.123 103.903 C 243.106 111.298 236.54 120.228 228.407 128.863 C 200.372 158.63 189.172 177.512 165.92 221.605 C 157.882 236.848 153.545 266.929 150.4 274.29 C 142.05 293.835 147.61 338.185 160.294 358.125 C 166.733 368.247 169.439 373.229 176.781 380.643 C 183.095 387.021 193.389 392.321 202.294 397.053 C 218.749 405.796 230.528 405.413 248.678 405.413 C 255.389 405.413 286.518 401.175 292.818 398.505 C 312.948 389.974 344.302 349.896 343.667 327.103 C 343.345 315.527 347.083 315.061 346.273 306.329 C 345.034 292.989 344.367 276.356 341.234 263.332 C 333.731 232.141 326.46 234.745 307.476 191.923 C 300.888 177.064 278.327 144.181 270.208 130.027 C 268.1 126.352 252.619 110.777 252.619 104.063"/>
  <g transform="matrix(1, 0, 0, 1, 82.273399, 91.797211)">
    <path d="M209.306,50.798c-2.452-3.337-7.147-4.055-10.485-1.602c-3.338,2.453-4.055,7.147-1.603,10.485 c54.576,74.266,66.032,123.541,66.032,151.8c0,27.691-8.272,52.794-23.293,70.685c-17.519,20.866-42.972,31.446-75.651,31.446 c-73.031,0-98.944-55.018-98.944-102.131c0-52.227,28.103-103.234,51.679-136.829c25.858-36.847,52.11-61.415,52.37-61.657 c3.035-2.819,3.209-7.565,0.39-10.6c-2.819-3.034-7.565-3.209-10.599-0.39c-1.11,1.031-27.497,25.698-54.254,63.765 c-24.901,35.428-54.586,89.465-54.586,145.71c0,31.062,9.673,59.599,27.236,80.353c20.361,24.061,50.345,36.779,86.708,36.779 c36.794,0,66.926-12.726,87.139-36.801c17.286-20.588,26.806-49.117,26.806-80.33C278.25,156.216,240.758,93.597,209.306,50.798z"/>
    <path d="M198.43,148.146l-95.162,95.162c-2.929,2.929-2.929,7.678,0,10.606c1.465,1.464,3.385,2.197,5.304,2.197 s3.839-0.732,5.304-2.197l95.162-95.162c2.929-2.929,2.929-7.678,0-10.606C206.107,145.217,201.359,145.217,198.43,148.146z"/>
    <path d="M191.965,207.899c-13.292,0-24.106,10.814-24.106,24.106s10.814,24.106,24.106,24.106s24.106-10.814,24.106-24.106 S205.257,207.899,191.965,207.899z M191.965,241.111c-5.021,0-9.106-4.085-9.106-9.106s4.085-9.106,9.106-9.106 s9.106,4.085,9.106,9.106S196.986,241.111,191.965,241.111z"/>
    <path d="M125.178,194.162c13.292,0,24.106-10.814,24.106-24.106s-10.814-24.106-24.106-24.106s-24.106,10.814-24.106,24.106 S111.886,194.162,125.178,194.162z M125.178,160.949c5.021,0,9.106,4.085,9.106,9.106s-4.085,9.106-9.106,9.106 c-5.021,0-9.106-4.085-9.106-9.106S120.156,160.949,125.178,160.949z"/>
  </g>
</svg>