<?xml version="1.0" encoding="utf-8"?>
<svg fill="#000000" height="800px" width="800px" version="1.1" id="Capa_1" xmlns="http://www.w3.org/2000/svg" viewBox="0 0 231.045 231.045">
  <g>
    <path d="M 1.488 67.02 L 60.081 67.02 L 47.391 79.711 C 45.048 82.054 45.048 85.853 47.392 88.196 C 48.563 89.367 50.099 89.953 51.634 89.953 C 53.169 89.953 54.705 89.367 55.877 88.195 L 78.263 65.808 C 80.606 63.465 80.606 59.666 78.262 57.323 L 55.286 34.349 C 52.944 32.007 49.144 32.006 46.801 34.35 C 44.458 36.693 44.458 40.492 46.802 42.835 L 58.988 55.02 L 1.489 55.02 C -1.825 55.02 -4.511 57.707 -4.511 61.02 C -4.511 64.333 -1.825 67.02 1.488 67.02 Z" style="transform-box: fill-box; transform-origin: 50% 50%;" transform="matrix(0, 1, -1, 0, -0.000006, -0.000005)"/>
    <path d="M 201.921 115.867 C 198.055 93.008 181.595 89.9 174.505 89.644 C 172.498 89.572 170.67 88.516 169.594 86.82 C 164.226 78.364 156.949 76.139 150.78 76.139 C 147.956 76.139 145.366 76.605 143.296 77.152 C 142.687 77.313 142.068 77.391 141.456 77.391 C 139.278 77.391 137.179 76.397 135.868 74.58 C 130.588 67.265 123.697 65.287 117.79 65.287 C 116.21 65.287 114.7 65.429 113.311 65.647 C 112.94 65.706 112.572 65.734 112.21 65.734 C 108.43 65.734 105.241 62.664 105.236 58.747 L 105.186 16.46 C 105.172 5.534 96.977 0.075 88.781 0.075 C 80.57 0.075 72.359 5.552 72.373 16.501 C 72.396 34.859 72.461 89.994 72.482 106.609 C 72.485 109.416 70.806 111.953 68.216 113.036 C 35.676 126.64 75.858 187.655 83.056 198.112 C 83.758 199.133 84.174 200.315 84.267 201.55 L 86.026 224.745 C 86.3 228.395 89.343 231.003 93.003 231.003 C 93.006 231.003 93.009 231.003 93.012 231.003 L 171.635 231.12 C 175.144 231.116 178.106 228.62 178.563 225.141 L 181.765 200.805 C 181.901 199.774 182.275 198.81 182.84 197.937 C 203.854 165.457 205.504 137.056 201.921 115.867 Z"/>
  </g>
</svg>