<?xml version="1.0" encoding="utf-8"?>
<svg xmlns="http://www.w3.org/2000/svg" viewBox="-885.929 -1145.565 3470.34 3301.241">

  <path style="stroke: rgb(0, 0, 0); fill: rgb(202, 202, 107);" d="M 319.5 870.596 L 573.055 854.873 L 807.342 768.245 L 1035.651 826.373 L 1182.958 893.426 L 1184.205 1030.897 L 1149.862 1190.87 L 1066.26 1258.562 L 1146.066 1318.898 L 1126.65 1388.43 L 1051.951 1427.245 L 1074.269 1567.712 L 1261.312 1749.664 L 1264.144 1851.759 L 1081.995 1724.663 L 997.827 1655.444 C 972.521 1630.614 966.028 1589.063 940.843 1578.583 C 899.605 1561.423 820.281 1583.446 820.281 1583.446 C 815.346 1584.653 775.328 1514.825 779.086 1513.906 C 779.086 1513.906 837.303 1517.056 831.493 1465.621 C 828.306 1437.408 792.16 1383.817 792.39 1383.579 C 793.04 1382.908 678.754 1328.846 678.754 1328.846 C 638.43 1340.306 628.649 1231.762 637.596 1230 L 568.775 1193.231 L 523.502 1109.667 C 509.404 1112.373 518.134 977.087 530.383 974.736 L 402.699 936.452"/>

  <path style="stroke: rgb(0, 0, 0); fill: rgb(186, 110, 110);" d="M 1527.528 1437.803 L 1435.363 1360.899 L 1447.357 1317.765 L 1406.754 1295.64 L 1377.508 1330.17 C 1328.751 1296.787 1229.07 1233.261 1229.07 1233.261 L 1150.046 1192.927 C 1147.417 1189.635 1059.195 1249.363 1067.691 1260.001 L 1145.146 1325.34 L 1120.523 1390.38 L 1053.988 1426.809 L 1072.214 1569.043 L 1259.748 1750.343 L 1264.663 1855.234 L 1326.756 1914.49 L 1393.626 1891.139 L 1423.903 1940.981 L 1519.827 1936.15 L 1522.944 1909.614 L 1574.63 1860.683 C 1574.63 1860.683 1554.687 1789.981 1554.302 1789.981 C 1553.917 1789.981 1516.12 1768.471 1516.12 1768.471 L 1506.864 1704.487 L 1482.243 1654.524 L 1498.698 1614.814 C 1490.024 1598.284 1464.335 1507.685 1473.985 1507.181"/>

    <path style="stroke: rgb(0, 0, 0); fill: rgb(136, 115, 203);" d="M 1840.909 899.371 L 1731.634 844.208 L 1581.912 792.79 L 1524.097 738.885 C 1524.097 738.885 1474.489 713.335 1474.489 713.749 C 1474.489 714.163 1426.18 801.302 1426.18 801.302 L 1339.912 839.399 L 1261.977 858.648 L 1182.004 895.012 L 1182.887 1035.493 L 1147.777 1192.413 L 1378.956 1330.983 L 1405.154 1296.032 C 1405.154 1296.032 1447.275 1317.767 1447.275 1317.965 C 1447.275 1318.163 1434.593 1361.655 1434.593 1361.655 L 1533.937 1446.664 C 1533.937 1446.664 1620.979 1455.23 1620.979 1455.025 C 1620.979 1454.82 1633.415 1446.316 1633.415 1446.316 L 1616.426 1373.525 L 1626.036 1288.482 C 1626.036 1288.482 1670.756 1227.914 1670.968 1227.914 C 1671.18 1227.914 1658.02 1193.904 1658.02 1193.904 L 1677.984 1171.271 L 1766.61 1118.355 C 1766.61 1118.355 1785.571 1074.741 1785.359 1074.741 C 1785.147 1074.741 1861.085 1102.643 1861.085 1102.855 C 1861.085 1103.067 1865.235 1153.088 1865.235 1153.088 L 1893.376 1156.378 L 1902.331 1172.993 L 1963.219 1120.709 L 1942.798 1037.632 L 1900.645 998.305 L 1915.612 971.106 C 1907.744 979.206 1865.585 946.947 1869.279 943.145 L 1828.489 933.198"/>

  <path style="stroke: rgb(0, 0, 0); fill: rgb(197, 106, 26);" d="M -327.471 143.521 L -280.178 50.552 L -214.315 52.503 L -213.298 -76.873 L -202.558 -186.842 L -107.392 -120.657 C -107.392 -120.657 4.065 -185.186 4.565 -185.186 C 5.065 -185.186 177.281 -9.693 177.281 -9.693 L 380.023 131.852 L 553.991 215.553 L 639.225 186.33 L 702.872 276.915 L 724.643 360.165 L 788.656 360.165 L 818.569 318.746 L 857.091 353.365 L 873.474 401.563 L 864.88 471.1 L 825.28 519.381 L 820.979 588.962 L 884.609 566.157 C 884.609 566.157 932.985 614.634 932.985 615.134 C 932.985 615.634 935.207 659.345 935.207 659.846 C 935.207 660.347 894.179 722.899 894.179 723.415 C 894.179 723.931 865.862 779.814 865.862 779.814 L 768.331 780.513 L 574.747 856.024 L 319.54 878.527 C 341.894 889.509 287.441 827.955 210.622 757.889 C 174.392 724.845 91.686 666.861 86.159 656.148 C 68.912 622.721 24.081 524.469 13.53 524.144 L -112.365 385.726 L -163.289 352.606 L -262.273 248.332"/>

  <path style="stroke: rgb(0, 0, 0); fill: rgb(176, 58, 58);" d="M -331.425 144.026 L -354.695 67.187 L -317.679 6.742 C -317.679 6.742 -361.794 -20.714 -362.024 -20.943 C -362.254 -21.172 -378.217 -51.572 -378.217 -51.572 L -358.844 -77.34 L -388.008 -131.153 L -397.899 -179.69 L -465.989 -165.064 L -491.528 -207.119 C -491.528 -207.119 -456.148 -242.664 -455.925 -242.664 C -455.702 -242.664 -471.164 -292.945 -471.164 -292.945 L -520.649 -311.601 C -520.649 -311.601 -538.933 -345.87 -538.933 -345.648 C -538.933 -345.426 -562.412 -353.099 -562.412 -353.099 L -565.419 -378.271 L -638.993 -358.073 L -652.308 -394.005 L -720.362 -486.809 L -665.573 -520.179 C -665.573 -520.179 -683.998 -578.715 -684.228 -578.945 C -684.458 -579.175 -703.118 -591.581 -703.118 -591.581 L -678.024 -728.866 L -633.851 -881.231 L -629.753 -933.177 L -574.023 -936.113 L -539.756 -955.271 L -430.286 -930.084 L -413.87 -893.957 L -389.523 -879.587 C -389.523 -879.587 -370.185 -807.693 -370.185 -807.478 C -370.185 -807.263 -313.243 -756.989 -313.243 -756.989 L -249.647 -741.736 L -227.438 -735.182 L -273.427 -685.739 C -273.427 -685.739 -292.255 -665.354 -292.485 -665.354 C -292.715 -665.354 -254.779 -600.329 -254.779 -600.329 L -192.102 -562.961 L -159.406 -532.469 C -159.406 -532.469 -103.261 -585.327 -103.49 -585.327 C -103.719 -585.327 33.235 -598.107 33.235 -598.329 C 33.235 -598.551 127.686 -603.938 127.686 -604.205 C 127.686 -604.472 291.13 -532.986 291.13 -532.986 L 335.398 -428.669 L 322.634 -297.197 L 312.057 -274.373 L 248.002 -294.779 L 179.278 -302.109 L 111.157 -319.654 L 30.8 -311.089 L -12.07 -244.902 L -12.07 -213.97 L 4.998 -182.607 C 4.998 -182.607 -13.754 -174.222 -46.359 -154.117 C -70.53 -139.213 -92.279 -115.962 -108.824 -121.934 C -154.724 -138.5 -202.987 -188.151 -203.268 -188.151 C -203.828 -188.151 -210.105 -109.944 -210.381 -109.944 C -210.584 -109.944 -211.31 0.028 -212.956 44.99 C -213.628 63.357 -283.432 54.07 -283.432 54.07"/>

  <path style="fill: rgb(198, 135, 135); stroke: rgb(3, 3, 3);" d="M 1559.897 766.146 C 1559.897 766.146 1647.943 757.772 1648.234 757.772 C 1648.525 757.772 1638.275 707.641 1638.275 707.341 C 1638.275 707.041 1587.91 662.855 1587.91 662.855 L 1479.724 533.336 C 1479.724 533.336 1478.964 435.634 1478.964 434.987 C 1478.964 434.34 1571.139 329.697 1571.139 329.697 L 1591.393 251.6 L 1499.049 204.656 C 1499.049 204.656 1473.525 156.514 1473.525 156.005 C 1473.525 155.496 1292.625 175.216 1292.625 175.216 L 1153.415 173.906 L 1023.616 138.683 L 950.418 70.639 L 880.78 117.261 L 824.746 128.747 L 780.264 44.871 C 780.264 44.871 689.881 19.715 689.204 19.715 C 688.527 19.715 639.591 76.295 639.591 76.295 L 640.184 186.734 L 703.008 276.385 L 725.229 361.506 L 788.008 359.949 L 819.114 317.052 L 849.76 343.896 L 873.035 409.823 L 865.193 473.576 L 823.846 521.067 L 819.972 591.461 L 884.442 566.608 L 933.026 614.402 L 933.09 663.842 L 855.518 780.594 L 1184.972 898.274 L 1260.173 858.817 L 1340.45 838.83 L 1424.416 802.8 L 1452.909 752.084"/>

  <path style="stroke: rgb(0, 0, 0); fill: rgb(121, 221, 194);" d="M 1591.287 250.25 L 1663.027 180.344 L 1735.261 154.783 L 1736.858 66.504 L 1716.451 -33.851 L 1721.048 -89.659 C 1721.048 -89.659 1785.683 -174.899 1786.216 -175.448 C 1786.749 -175.997 1894.482 -251.999 1895.014 -251.999 C 1895.546 -251.999 1992.003 -321.456 1992.536 -322.006 C 1993.069 -322.556 2048.768 -322.623 2048.768 -322.09 C 2048.768 -321.557 2054.956 -280.552 2054.956 -280.552 L 2025.909 -272.398 L 2014.151 -225.065 L 1959.781 -197.946 L 2003.428 -120.681 L 1957.96 -40.766 L 2013.665 46.395 L 2049.741 39.386 L 2066.381 70.034 L 2102.006 60.284 L 2117.619 94.874 L 2153.418 97.867 L 2178.508 153.986 L 2252.147 195.587 C 2252.147 195.587 2301.855 272.585 2301.855 272.458 C 2301.855 272.331 2330.426 283.056 2330.426 283.056 L 2341.865 298.257 L 2355.42 322.626 L 2377.679 346.324 L 2373.964 362.897 C 2373.964 362.897 2341.333 377.063 2341.206 377.063 C 2341.079 377.063 2288.162 412.247 2288.162 412.247 C 2288.162 412.247 2239.135 388.006 2239.012 388.006 C 2238.889 388.006 2198.606 412.783 2198.479 412.783 C 2198.352 412.783 2148.577 367.191 2148.577 367.064 C 2148.577 366.937 2113.163 373.546 2113.04 373.424 C 2112.917 373.302 2079.001 355.986 2079.001 355.986 L 2072.229 364.288 L 2231.095 567.541 L 2298.213 652.615 L 2292.455 707.744 L 2307.303 776.198 L 2295.655 806.017 L 2303.269 835.077 L 2263.851 825.778 L 2235.174 859.941 C 2235.174 859.941 2197.306 789.455 2197.306 789.308 C 2197.306 789.161 2170.505 808.495 2170.505 808.495 C 2170.505 808.495 2120.099 811.191 2119.772 811.191 C 2119.445 811.191 2074.445 873.165 2074.293 873.165 C 2074.141 873.165 2002.429 873.593 2002.429 873.593 C 2002.429 873.593 1975.221 894.944 1975.073 894.944 C 1974.925 894.944 1938.956 893.746 1938.956 893.746 L 1906.475 863.549 L 1875.412 876.085 C 1875.412 876.085 1846.229 899.724 1846.077 899.724 C 1845.925 899.724 1730.351 844.191 1730.351 844.191 L 1583.024 794.848 L 1551.427 767.108 C 1551.427 767.108 1646.335 755.52 1646.335 755.662 C 1646.335 755.804 1635.047 704.038 1635.047 704.038 L 1585.432 666.83 L 1479.952 532.664 L 1480.005 434.182 C 1480.005 434.182 1570.296 330.318 1570.457 329.99 C 1570.618 329.662 1579.868 296.676 1579.868 296.676"/>

  <path style="stroke: rgb(0, 0, 0); fill: rgb(247, 189, 143);" d="M 589.461 -52.338 L 650.754 84.042 L 640.848 193.235 L 551.418 218.244 C 551.418 218.244 362.052 131.897 362.052 131.604 C 362.052 131.311 174.399 -10.407 174.399 -10.407 L 4.172 -185.796 L -16.497 -240.855 L 30.468 -310.968 L 116.503 -324.47 L 192.43 -303.063 L 315.332 -274.12 L 330.215 -351.059 L 333.77 -433.709 L 290.152 -536.471 C 290.152 -536.471 340.427 -554.474 340.72 -554.474 C 341.013 -554.474 380.282 -542.059 380.282 -542.059 L 419.267 -596.541 L 447.453 -656.328 L 490.173 -684.694 C 490.173 -684.694 619.524 -688.231 619.817 -688.231 C 620.11 -688.231 728.384 -681.98 728.677 -681.98 C 728.97 -681.98 848.828 -654.229 848.828 -654.522 C 848.828 -654.815 912.52 -691.332 912.52 -691.332 C 912.52 -691.332 991.179 -690.424 991.179 -690.141 C 991.179 -689.858 1017.919 -649.378 1018.213 -649.378 C 1018.507 -649.378 1059.642 -598.881 1059.642 -598.881 L 1089.826 -550.171 C 1089.826 -550.171 1151.595 -530.995 1151.174 -530.995 C 1150.753 -530.995 1200.873 -518.521 1200.873 -518.521 L 1237.816 -578.892 L 1270.959 -648.831 L 1320.607 -682.489 L 1356.198 -697.953 C 1356.198 -697.953 1385.37 -667.074 1384.948 -666.666 C 1384.526 -666.258 1351.791 -589.82 1351.791 -589.412 C 1351.791 -589.004 1366.349 -548.652 1366.349 -548.652 L 1410.167 -523.76 L 1436.08 -486.066 C 1436.08 -486.066 1415.542 -449.461 1415.107 -449.461 C 1414.928 -449.461 1372.511 -441.312 1363.413 -421.424 C 1350.343 -392.854 1369.203 -349.304 1369.452 -349.056 C 1369.874 -348.635 1460.445 -322.589 1460.445 -322.589 C 1460.445 -322.589 1526.823 -267.7 1526.823 -267.292 C 1526.823 -266.884 1409.268 -223.044 1409.268 -222.622 C 1409.268 -222.2 1258.703 -179.411 1258.703 -179.411 C 1258.703 -179.411 1272.607 -276.63 1272.607 -277.052 C 1272.607 -277.474 1235.907 -343.132 1206.5 -348.569 C 1177.093 -354.006 1113.388 -293.33 1125.082 -291.341 C 1125.082 -291.341 1125.12 -318.939 1138.993 -240.606 C 1152.866 -162.273 1133.478 -183.903 1133.478 -184.263 L 1103.394 -174.23 C 1103.394 -174.23 1030.168 -124.325 1029.733 -123.904 C 1029.298 -123.483 990.952 -121.742 990.952 -121.742 L 870.446 -85.743 L 794.691 -115.101 C 794.691 -115.101 720.242 -148.702 719.304 -149.178 C 718.366 -149.654 645.548 -171.887 645.113 -171.887"/>

  <path style="stroke: rgb(0, 0, 0); fill: rgb(100, 176, 108);" d="M 1447.152 -498.283 L 1493.389 -549.686 C 1493.389 -549.686 1533.069 -576.175 1533.254 -576.366 C 1533.439 -576.557 1590.665 -592.594 1590.844 -592.594 C 1591.023 -592.594 1647.313 -572.679 1647.498 -572.679 C 1647.683 -572.679 1712.95 -510.312 1712.95 -510.312 L 1773.846 -501.216 L 1821.301 -458.366 C 1821.301 -458.366 1797.659 -342.066 1797.659 -341.814 C 1797.659 -341.562 1765.246 -248.384 1765.246 -248.384 L 1768.924 -203.085 L 1794.844 -176.953 L 1724.119 -93.155 L 1716.655 -41.64 L 1732.546 77.636 L 1735.402 161.952 L 1661.32 177.713 L 1588.495 253.893 L 1494.954 205.88 L 1474.044 163.237 L 1149.713 177.374 L 1019.556 139.732 L 956.095 74.801 L 890.897 117.648 L 818.978 139.593 L 782.519 41.606 L 685.484 21.463 L 643.691 72.875 L 582.311 -39.613 L 644.394 -172.803 L 699.609 -156.994 L 869.329 -88.366 L 990.733 -122.715 L 1030.545 -125.317 L 1070.818 -151.762 L 1090.477 -164.787 L 1113.256 -178.507 L 1144.934 -190.576 L 1138.973 -239.432 C 1138.973 -239.432 1126.425 -293.582 1124.988 -298.63 C 1123.551 -303.678 1191.1 -355.171 1191.949 -352.358 C 1204.791 -373.388 1286.953 -293.865 1274.794 -276.641 L 1267.9 -231.076 L 1259.066 -178.153 L 1365.753 -209.162 L 1528.277 -266.526 L 1459.976 -322.952 L 1365.081 -347.674 L 1354.784 -388.389 L 1368.178 -436.156 L 1415.139 -452.152 L 1435.208 -485.161"/>

  <path style="fill: rgb(216, 216, 216); stroke: rgb(0, 0, 0);" d="M -235.524 -731.189 C -235.524 -731.189 -181.099 -836.31 -181.099 -836.578 C -181.099 -836.846 -120.774 -890.031 -120.774 -890.031 C -120.774 -890.031 -109.027 -938.33 -109.027 -938.607 C -109.027 -938.694 -80.746 -957.814 -61.098 -954.29 C -22.347 -947.341 35.628 -934.945 38.259 -938.804 C 49.156 -947.04 156.674 -916.07 151.249 -911.97 L 223.063 -997.214 L 253.708 -988.257 L 273.491 -958.578 L 451.87 -864.978 L 508.234 -901.618 L 641.115 -869.988 L 687.964 -838.099 L 814.162 -867.155 C 814.162 -867.155 956.303 -777.527 956.303 -777.805 C 956.303 -778.083 1001.238 -782.472 1001.238 -782.472 L 1036.706 -859.448 L 1123.998 -859.448 L 1157.498 -801.262 L 1235.309 -858.13 L 1298.139 -864.456 L 1324.892 -842.472 L 1396.477 -851.213 L 1456.103 -786.674 L 1496.824 -829.077 L 1552.889 -822.098 L 1593.171 -808.766 L 1602.897 -793.144 L 1651.634 -737.445 C 1651.634 -737.445 1691.558 -712.833 1691.558 -712.556 C 1691.558 -712.279 1700.041 -626.972 1700.041 -626.972 L 1739.311 -576.812 L 1905.343 -581.077 L 1995.418 -637.221 L 2072.564 -633.319 C 2072.564 -633.319 2133.39 -610.065 2133.658 -610.065 C 2133.926 -610.065 2152.072 -572.485 2152.072 -572.485 L 2131.198 -537.232 L 2135.036 -430.46 L 2090.96 -346.416 L 2053.66 -294.414 L 2048.801 -322.866 L 1991.738 -322.355 L 1791.877 -175.745 L 1769.91 -200.238 C 1769.91 -200.238 1760.011 -229.68 1764.526 -248.425 C 1768.72 -265.841 1789.559 -318.549 1796.473 -339.903 C 1792.474 -338.408 1818.31 -456.049 1821.924 -457.458 C 1822.295 -457.603 1774.123 -498.807 1774.123 -499.093 C 1774.123 -499.379 1715.053 -505.532 1714.758 -505.828 C 1714.463 -506.124 1691.708 -527.107 1691.091 -527.42 C 1690.474 -527.733 1648.47 -570.85 1648.184 -571.137 C 1647.898 -571.424 1588.709 -591.854 1587.716 -592.185 C 1586.723 -592.516 1537.509 -573.487 1537.509 -573.487 L 1493.767 -549.86 C 1493.767 -549.86 1448.557 -468.909 1435.057 -484.901 C 1419.533 -503.289 1422.912 -505.716 1406.383 -525.264 C 1403.673 -528.468 1380.267 -537.968 1369.108 -548.426 C 1358.203 -558.646 1354.13 -579.696 1352.739 -589.445 C 1351.042 -601.343 1363.342 -618.187 1365.028 -630.446 C 1369.008 -659.399 1383.436 -665.786 1383.436 -665.741 C 1383.436 -665.464 1368.682 -684.489 1368.682 -684.766 C 1368.682 -685.043 1352.134 -695.362 1351.848 -695.362 C 1351.562 -695.362 1271.872 -648.05 1271.872 -648.05 L 1203.369 -514.359 C 1203.369 -514.359 1089.384 -548.65 1089.098 -548.65 C 1088.812 -548.65 991.317 -687.543 991.317 -687.543 L 961.68 -690.224 C 961.68 -690.224 909.765 -687.427 909.479 -687.427 C 909.193 -687.427 846.62 -653.015 846.333 -652.737 C 846.046 -652.459 725.275 -681.462 725.275 -681.462 C 725.275 -681.462 495.649 -681.712 495.362 -681.712 C 495.238 -681.712 467.545 -679.68 450.022 -655.841 C 430.186 -628.856 420.354 -592.85 420.354 -592.85 L 384.195 -539.596 C 384.195 -539.596 284.833 -534.37 284.833 -534.988 C 284.833 -535.606 127.148 -603.248 127.148 -603.248 C 127.148 -603.248 -105.282 -586.579 -105.56 -586.579 C -105.838 -586.579 -160.31 -532.464 -160.587 -532.464 C -160.864 -532.464 -218.05 -579.528 -218.05 -579.528 L -258.629 -598.675 L -294.166 -664.117 C -294.166 -664.117 -238.94 -729.779 -235.524 -731.189 Z"/>
  <g transform="matrix(0.1, 0, 0, -0.1, -1245.502686, 2272.866211)" fill="#000000" stroke="none">
    <path d="M14712 32772 c-68 -25 -113 -61 -187 -152 -33 -41 -117 -133 -186 -204 -141 -147 -161 -177 -219 -327 -38 -100 -43 -107 -80 -124 -60 -27 -116 -15 -245 51 -304 158 -342 175 -415 190 -97 21 -306 20 -509 0 -190 -20 -375 -20 -463 -1 -37 7 -142 44 -234 80 -208 84 -301 102 -422 86 -152 -21 -277 -81 -377 -179 -76 -74 -121 -143 -220 -342 -120 -242 -146 -276 -310 -413 -221 -183 -289 -262 -335 -386 -12 -31 -39 -127 -61 -214 -22 -86 -55 -194 -73 -240 -19 -45 -46 -120 -60 -167 -64 -204 -114 -300 -159 -300 -13 0 -56 30 -107 75 -47 42 -104 85 -127 96 -58 28 -161 41 -263 34 -171 -12 -242 18 -390 165 -96 96 -120 113 -219 164 -61 31 -127 71 -147 88 -67 59 -107 162 -160 407 -61 288 -103 395 -194 495 -48 51 -152 116 -211 129 -25 6 -26 8 -26 94 -1 184 -82 299 -253 355 -60 20 -88 22 -365 25 -350 3 -375 8 -507 88 -110 66 -170 82 -258 67 -97 -18 -175 -60 -268 -146 -46 -42 -94 -81 -108 -86 -13 -5 -84 -9 -157 -7 -131 2 -133 2 -199 -31 -153 -75 -209 -199 -229 -502 -10 -167 -54 -480 -90 -645 -29 -131 -54 -203 -130 -367 -98 -212 -116 -278 -139 -497 -22 -221 -42 -339 -115 -697 -62 -304 -101 -546 -110 -679 -13 -181 31 -314 168 -514 40 -58 91 -134 112 -169 l38 -63 -29 -30 c-41 -44 -99 -76 -209 -115 -184 -66 -257 -120 -280 -212 -25 -94 8 -179 124 -325 100 -124 108 -138 147 -239 71 -184 131 -264 251 -333 124 -71 147 -106 163 -246 16 -130 26 -164 63 -206 48 -55 97 -73 199 -73 126 0 174 14 351 101 88 44 172 79 188 79 27 0 32 -7 67 -82 45 -98 88 -140 161 -159 61 -15 79 -40 134 -180 63 -162 128 -255 212 -304 22 -13 88 -35 147 -49 176 -42 244 -89 307 -214 63 -125 76 -234 36 -296 -10 -15 -57 -54 -105 -86 -149 -100 -194 -170 -194 -305 1 -133 47 -256 126 -331 117 -113 252 -126 539 -54 67 17 145 32 173 32 46 1 52 -2 82 -36 43 -49 77 -148 113 -321 42 -206 80 -267 216 -348 68 -40 105 -93 105 -150 0 -30 -12 -49 -75 -122 -98 -112 -117 -151 -123 -246 -11 -183 87 -292 308 -344 145 -34 199 -66 221 -132 22 -68 -10 -134 -132 -268 -170 -187 -199 -243 -199 -375 0 -146 77 -470 170 -718 71 -189 118 -247 286 -357 171 -113 218 -177 324 -440 179 -444 264 -558 590 -793 222 -161 354 -289 425 -415 74 -131 138 -211 211 -267 37 -27 158 -95 269 -149 290 -143 334 -188 544 -541 143 -242 195 -295 467 -475 199 -133 269 -200 395 -388 96 -142 175 -247 252 -335 78 -90 119 -174 172 -357 103 -355 189 -510 404 -726 140 -139 324 -299 870 -754 250 -207 508 -425 575 -483 360 -314 650 -599 891 -877 164 -190 328 -354 445 -448 342 -275 745 -446 1162 -492 168 -18 232 -40 286 -99 110 -120 118 -254 37 -611 -105 -459 -70 -642 232 -1210 190 -358 196 -367 263 -435 73 -74 130 -106 353 -200 167 -70 218 -108 235 -175 6 -22 13 -110 16 -197 7 -166 21 -239 60 -317 55 -107 184 -230 391 -370 188 -128 240 -158 543 -318 367 -193 439 -239 543 -342 108 -109 161 -191 269 -416 242 -501 251 -527 211 -576 -19 -23 -23 -24 -183 -25 -141 0 -171 -3 -222 -22 -72 -26 -118 -61 -154 -115 -23 -35 -27 -51 -27 -116 0 -63 5 -87 30 -140 40 -89 109 -180 217 -290 230 -232 359 -271 688 -205 132 27 163 29 355 29 241 0 335 -15 450 -69 127 -60 158 -105 270 -392 138 -354 226 -469 390 -513 22 -6 88 -17 148 -25 59 -9 122 -23 139 -32 49 -25 147 -123 276 -274 152 -179 193 -221 280 -291 91 -73 171 -118 292 -164 52 -20 113 -48 135 -62 22 -14 105 -91 185 -172 134 -136 155 -153 280 -226 177 -104 281 -184 535 -410 116 -103 248 -218 294 -254 122 -96 213 -170 323 -265 232 -199 418 -235 711 -141 61 20 132 39 157 42 65 8 97 -22 166 -158 64 -126 122 -186 212 -219 63 -24 194 -39 292 -33 36 2 191 7 345 12 250 8 286 11 337 30 109 42 146 119 109 226 -12 32 -20 60 -18 61 1 1 39 16 84 33 88 35 67 15 278 251 47 52 99 122 115 155 36 73 74 273 68 357 -4 48 -10 63 -44 103 -75 89 -124 166 -124 195 0 16 14 82 31 147 25 98 29 124 20 153 -15 51 -55 84 -144 119 -98 39 -233 107 -273 137 -43 33 -80 107 -94 188 -11 59 -10 77 5 132 23 87 17 183 -15 248 -17 32 -60 82 -127 144 -147 137 -155 179 -59 306 70 94 101 157 116 234 29 145 -8 259 -145 441 -78 106 -125 189 -125 226 0 11 14 54 32 95 28 67 31 85 31 170 0 52 -6 122 -12 154 -14 76 -14 209 0 261 13 47 34 72 114 133 33 26 103 82 155 125 169 141 212 149 500 97 334 -61 516 -60 706 1 90 29 108 53 112 148 5 102 -13 169 -89 334 -115 251 -122 328 -53 607 44 180 46 191 54 406 8 198 11 229 35 298 47 141 111 217 250 299 221 129 257 151 270 170 8 12 15 42 15 67 0 60 -39 107 -155 186 -47 32 -82 60 -78 64 5 3 44 33 88 65 44 33 181 159 305 280 196 192 234 225 295 254 252 120 308 158 405 273 46 55 62 83 71 125 11 49 17 57 56 80 126 74 350 14 499 -133 72 -72 100 -136 129 -291 13 -72 29 -142 35 -155 42 -80 101 -123 200 -143 l55 -11 5 -57 c4 -44 11 -63 33 -84 25 -26 33 -28 129 -31 170 -6 218 26 218 143 0 60 43 156 86 196 70 64 178 112 344 154 137 34 154 50 148 144 -4 80 -36 151 -104 231 -78 94 -83 111 -84 300 -1 189 -12 235 -74 318 -21 27 -73 76 -115 108 -104 80 -169 145 -174 174 -28 135 -33 185 -23 220 7 28 6 50 -2 79 -29 97 -107 140 -314 175 -34 6 -38 10 -43 44 -16 94 -54 156 -115 191 -59 33 -89 39 -223 47 -67 4 -124 8 -126 10 -2 2 1 22 8 45 19 63 91 131 246 234 150 100 179 125 228 201 25 38 41 51 69 58 47 12 158 -4 169 -24 5 -8 20 -41 35 -73 65 -138 223 -227 457 -257 97 -12 185 1 264 40 65 32 100 69 123 130 21 55 49 79 118 100 75 24 130 24 272 5 283 -39 424 6 551 173 45 59 71 108 162 301 33 71 86 117 164 141 58 19 94 22 248 24 176 1 181 2 237 29 33 16 75 48 98 74 l40 46 26 -24 c34 -32 56 -76 115 -231 87 -231 155 -335 246 -379 102 -50 246 -13 304 79 15 24 40 80 54 123 15 43 30 81 34 84 4 2 96 -10 205 -27 188 -30 198 -31 232 -15 68 33 69 106 1 277 -31 78 -42 123 -45 175 -4 68 -2 74 43 160 113 219 113 296 1 533 -30 65 -57 128 -61 141 -15 52 -5 140 30 251 52 164 62 234 47 320 -31 181 -190 405 -488 687 -138 131 -194 202 -257 328 -76 152 -214 341 -628 862 -143 180 -323 398 -398 483 -136 154 -261 300 -336 394 l-40 49 51 -26 c113 -57 170 -70 314 -72 168 -1 192 -11 256 -101 138 -193 349 -268 516 -183 24 12 72 39 108 59 80 47 137 65 183 56 19 -3 72 -29 118 -58 111 -67 175 -89 281 -96 147 -8 301 26 474 107 92 44 114 68 114 128 0 89 23 110 162 149 118 34 171 60 236 119 115 103 137 200 74 328 -38 77 -81 112 -149 123 -41 6 -43 8 -43 43 0 20 -8 50 -18 66 -11 17 -27 55 -37 85 -24 74 -61 143 -87 159 -11 7 -44 15 -74 18 -50 5 -53 8 -60 37 -18 85 -94 156 -226 214 -86 38 -163 98 -237 189 -93 112 -248 351 -305 468 -25 50 -55 102 -68 118 -15 17 -64 44 -138 75 -242 101 -552 332 -606 452 -12 25 -29 74 -38 110 -26 96 -89 220 -141 278 -67 75 -106 87 -258 78 l-123 -7 -32 84 c-49 130 -99 199 -165 231 -48 24 -66 27 -138 25 -46 -1 -109 -2 -139 -3 l-54 -1 -39 70 c-46 85 -77 118 -135 146 -56 28 -127 29 -223 5 -66 -17 -81 -18 -108 -6 -49 20 -110 89 -175 197 -33 54 -90 139 -126 188 -219 295 -232 431 -69 716 33 57 74 134 92 171 31 66 34 68 84 83 73 21 119 64 138 128 40 134 -5 238 -189 437 -115 123 -156 188 -156 245 0 63 30 102 108 136 297 133 395 198 405 269 22 147 27 257 12 313 -19 72 -19 67 9 67 26 0 53 18 153 103 80 68 110 114 119 179 6 41 12 51 46 73 100 66 189 176 235 287 14 35 47 137 74 228 54 180 111 312 163 375 19 22 77 87 130 144 148 161 187 254 220 512 24 189 30 378 17 519 -14 154 -28 209 -75 292 -20 36 -36 70 -36 75 0 6 31 29 69 52 85 50 126 96 146 163 41 138 -15 329 -140 480 -120 146 -349 277 -565 324 -92 19 -235 17 -375 -6 -158 -26 -195 -25 -357 7 -122 24 -145 26 -201 16 -124 -21 -245 -93 -417 -248 -236 -212 -341 -256 -820 -341 -260 -47 -400 -50 -689 -15 -147 18 -225 22 -390 19 -246 -4 -256 -1 -328 93 -26 35 -88 107 -138 162 -150 164 -154 179 -110 375 41 181 31 335 -32 522 -35 104 -104 235 -161 305 -70 88 -134 126 -299 181 -179 58 -203 78 -234 184 -12 41 -30 91 -40 111 -28 55 -107 120 -216 178 l-100 52 -11 62 c-13 69 -33 101 -82 135 -39 26 -110 30 -154 7 -28 -15 -30 -14 -109 46 -92 69 -112 79 -168 79 -46 0 -72 -11 -111 -48 l-27 -25 -112 23 c-220 44 -335 6 -461 -152 -77 -96 -100 -118 -125 -118 -55 0 -92 34 -286 263 -219 260 -371 317 -612 231 -182 -65 -219 -75 -285 -81 l-65 -6 -85 55 c-489 315 -814 368 -1068 177 -64 -49 -120 -122 -204 -270 -72 -128 -130 -187 -214 -219 -66 -24 -222 -52 -267 -48 l-32 3 -7 115 c-12 202 -40 282 -130 366 -95 89 -215 124 -427 124 -232 0 -441 -43 -596 -123 -60 -31 -102 -63 -165 -127 -97 -97 -127 -144 -210 -329 -69 -153 -103 -201 -166 -231 -64 -31 -185 -38 -295 -16 -154 31 -288 107 -519 296 -46 37 -132 90 -222 136 -146 75 -149 77 -249 184 -138 149 -216 194 -348 203 -128 8 -221 -19 -461 -133 -251 -119 -293 -127 -562 -105 -100 8 -223 15 -273 15 -79 0 -97 4 -150 29 -33 16 -90 56 -127 89 -72 65 -136 110 -181 130 -45 19 -210 58 -407 96 -205 39 -314 69 -530 144 -355 123 -479 112 -755 -69 -164 -107 -222 -132 -313 -137 -40 -2 -94 1 -120 7 -58 15 -435 195 -560 268 -88 51 -155 104 -359 281 -159 139 -275 206 -433 252 -137 39 -236 84 -267 122 -7 8 -22 44 -33 81 -30 96 -71 144 -160 190 -95 47 -163 55 -238 29z m143 -181 c52 -24 69 -44 90 -111 47 -149 128 -214 360 -286 208 -64 293 -114 465 -269 226 -204 308 -258 657 -424 254 -122 313 -141 436 -141 140 0 234 36 418 161 231 157 319 163 652 44 176 -64 323 -103 547 -145 322 -61 352 -72 475 -181 142 -124 224 -158 385 -159 58 0 186 -7 284 -15 278 -22 377 -2 638 126 175 85 253 111 338 111 101 1 132 -17 266 -155 118 -121 121 -123 269 -199 83 -43 176 -99 209 -125 309 -251 481 -335 716 -350 256 -16 407 69 506 285 130 281 173 344 281 418 72 49 144 78 268 107 73 17 124 21 275 21 216 1 266 -10 331 -75 47 -47 56 -80 69 -254 11 -156 29 -225 68 -256 25 -20 35 -21 152 -16 236 11 402 68 509 176 36 37 80 100 126 181 84 148 145 219 223 257 51 25 67 28 162 28 82 0 122 -5 180 -23 119 -37 285 -125 518 -272 97 -61 234 -52 460 31 246 91 296 70 547 -230 162 -193 230 -242 345 -249 56 -3 72 0 120 25 34 18 70 49 98 83 102 128 117 143 156 161 53 24 95 24 209 -2 122 -27 184 -23 235 18 l39 31 83 -64 c114 -88 143 -96 231 -59 13 5 18 -2 23 -37 13 -86 52 -126 201 -203 50 -25 100 -56 113 -68 13 -12 34 -59 52 -116 16 -53 41 -113 56 -134 39 -58 128 -110 261 -152 65 -21 140 -49 167 -63 124 -67 256 -363 256 -576 0 -51 -9 -123 -25 -191 -53 -236 -33 -307 142 -496 44 -47 106 -120 137 -161 64 -86 106 -118 191 -149 56 -21 76 -22 275 -20 166 1 256 -3 395 -20 111 -13 242 -22 340 -22 145 0 183 4 395 42 306 54 468 98 595 161 98 49 136 77 372 278 103 87 195 140 260 149 22 3 81 -4 138 -17 153 -33 248 -36 398 -11 219 36 332 26 499 -44 221 -94 388 -277 405 -446 7 -78 -5 -101 -80 -143 -77 -43 -122 -91 -137 -147 -16 -58 -4 -112 40 -196 22 -40 45 -101 51 -135 17 -82 16 -423 0 -553 -33 -259 -57 -313 -210 -479 -61 -65 -126 -142 -146 -171 -62 -94 -113 -224 -175 -450 -51 -186 -130 -298 -263 -378 -77 -45 -90 -67 -81 -136 l6 -46 -69 -61 c-46 -41 -80 -63 -105 -68 -47 -9 -84 -38 -108 -87 -24 -45 -25 -98 -6 -163 12 -38 13 -67 5 -144 -6 -52 -12 -99 -15 -104 -9 -13 -132 -79 -217 -115 -137 -57 -167 -76 -216 -129 -61 -67 -85 -139 -79 -233 7 -100 53 -178 197 -338 120 -134 165 -203 159 -245 -2 -17 -16 -27 -60 -43 -74 -26 -104 -54 -135 -123 -15 -31 -48 -93 -74 -137 -230 -386 -224 -616 26 -950 41 -55 103 -147 137 -204 84 -138 152 -212 233 -252 85 -42 131 -46 240 -20 88 21 90 21 115 3 14 -10 36 -39 49 -63 44 -81 71 -115 110 -137 50 -28 128 -36 225 -23 61 9 84 8 104 -1 31 -15 67 -83 114 -212 48 -135 39 -130 239 -122 l167 7 31 -45 c38 -55 64 -114 87 -197 52 -194 159 -314 454 -509 132 -87 196 -122 295 -160 75 -29 79 -33 105 -100 12 -30 45 -91 74 -135 29 -44 87 -132 128 -195 85 -130 207 -274 276 -325 26 -19 95 -60 153 -90 58 -30 110 -60 116 -67 5 -7 16 -35 23 -62 23 -84 85 -136 162 -136 32 0 34 -2 61 -78 16 -42 30 -101 32 -131 5 -85 64 -145 157 -157 45 -6 52 -10 64 -40 19 -46 19 -46 -28 -93 -54 -54 -71 -62 -188 -95 -111 -32 -163 -60 -213 -115 -31 -35 -67 -118 -67 -156 0 -16 -137 -68 -233 -90 -54 -12 -105 -16 -161 -13 -75 4 -90 8 -157 46 -167 96 -197 107 -284 106 -95 -1 -134 -14 -269 -91 -78 -45 -107 -56 -142 -56 -65 0 -150 48 -194 109 -64 90 -142 159 -206 184 -50 19 -80 23 -199 25 -77 1 -149 6 -160 10 -11 4 -77 34 -147 67 -192 90 -291 99 -335 31 -60 -91 19 -212 493 -753 152 -173 594 -723 767 -955 119 -159 200 -282 249 -380 64 -127 89 -158 303 -375 210 -214 254 -264 324 -367 100 -150 109 -233 47 -423 -29 -87 -39 -138 -43 -207 -7 -116 3 -156 78 -316 42 -88 62 -145 66 -182 5 -51 2 -62 -58 -186 -60 -125 -63 -137 -67 -218 -4 -90 7 -150 47 -250 l22 -54 -43 7 c-262 42 -289 41 -354 -16 -42 -38 -50 -50 -89 -158 -24 -67 -36 -88 -57 -98 -64 -30 -116 39 -208 276 -92 238 -133 299 -245 363 -92 53 -165 34 -216 -55 -45 -80 -63 -86 -261 -85 -180 1 -236 -9 -345 -61 -88 -43 -152 -118 -214 -249 -87 -183 -93 -193 -154 -256 -90 -92 -127 -98 -384 -68 -162 19 -249 12 -354 -27 -89 -33 -137 -75 -176 -154 -27 -55 -41 -71 -70 -84 -103 -44 -365 15 -435 99 -14 16 -35 57 -47 90 -26 71 -78 121 -143 138 -126 31 -269 22 -337 -23 -20 -13 -53 -49 -73 -80 -50 -75 -60 -84 -211 -184 -223 -147 -307 -253 -309 -390 -1 -81 25 -164 61 -192 22 -17 41 -20 142 -21 143 -1 217 -11 238 -32 11 -11 18 -41 21 -99 2 -46 9 -91 14 -101 14 -26 69 -47 125 -47 54 0 172 -23 202 -39 17 -10 18 -15 8 -46 -8 -27 -7 -48 2 -84 7 -26 16 -76 21 -109 18 -126 70 -199 234 -324 38 -29 83 -70 100 -91 l31 -39 5 -191 c5 -181 7 -195 32 -249 14 -31 55 -93 89 -138 34 -44 60 -82 58 -85 -3 -2 -45 -16 -95 -30 -252 -73 -413 -211 -460 -396 -9 -35 -18 -66 -21 -69 -10 -11 -23 29 -23 76 0 41 -5 55 -25 74 -22 21 -39 25 -114 30 -118 7 -125 13 -146 138 -33 192 -78 297 -168 390 -96 100 -253 189 -385 218 -220 49 -455 -54 -478 -210 -5 -34 -19 -54 -85 -119 -72 -71 -91 -84 -221 -146 -175 -84 -236 -129 -369 -273 -144 -154 -305 -298 -424 -376 -136 -89 -145 -98 -145 -142 0 -51 53 -108 169 -185 50 -33 91 -62 91 -65 0 -3 -53 -34 -118 -70 -152 -84 -269 -196 -325 -310 -61 -123 -77 -206 -86 -450 -9 -208 -10 -220 -52 -380 -41 -154 -44 -174 -44 -295 0 -158 17 -224 105 -414 61 -131 88 -216 77 -244 -5 -14 -69 -29 -183 -42 -71 -9 -262 11 -419 43 -100 20 -161 26 -260 27 l-131 0 -74 -37 c-41 -21 -111 -67 -155 -103 -44 -36 -126 -101 -183 -145 -106 -84 -140 -124 -167 -200 -26 -72 -30 -229 -10 -382 16 -126 16 -135 0 -178 -61 -159 -64 -176 -44 -259 16 -72 54 -141 140 -257 110 -146 133 -198 127 -278 -6 -73 -20 -101 -98 -207 -72 -97 -94 -159 -87 -244 8 -103 40 -158 151 -260 54 -50 104 -102 112 -117 18 -35 18 -76 -2 -152 -20 -76 -12 -169 22 -276 28 -87 73 -153 143 -208 47 -38 190 -112 282 -148 24 -9 47 -20 51 -23 4 -3 -4 -48 -18 -100 -13 -51 -24 -116 -24 -145 0 -66 39 -148 113 -241 31 -38 57 -79 57 -90 0 -37 -31 -199 -45 -232 -8 -18 -45 -66 -82 -105 -38 -40 -87 -98 -109 -128 -52 -70 -54 -72 -144 -105 -141 -53 -192 -136 -157 -254 11 -37 12 -53 4 -58 -7 -4 -124 -10 -262 -14 -137 -4 -284 -10 -325 -14 -41 -4 -113 -2 -159 4 -123 16 -145 33 -216 172 -70 137 -129 201 -207 224 -86 25 -153 17 -343 -44 -111 -36 -173 -44 -250 -31 -92 15 -171 60 -295 167 -61 54 -158 133 -213 176 -94 72 -185 150 -491 420 -156 138 -279 230 -435 322 -136 81 -170 110 -318 267 -98 106 -171 154 -311 208 -194 75 -281 144 -490 390 -64 74 -151 170 -194 212 -122 120 -184 150 -361 173 -60 8 -128 23 -152 34 -75 33 -126 119 -231 388 -96 246 -129 308 -204 383 -148 149 -385 210 -765 197 -119 -4 -194 -12 -290 -32 -72 -15 -166 -27 -211 -28 -72 -1 -89 2 -146 31 -119 59 -329 281 -373 396 -23 59 -15 87 32 111 32 16 62 19 203 19 161 1 167 2 223 30 110 53 152 153 123 292 -16 78 -37 129 -189 449 -129 272 -172 348 -275 477 -111 139 -228 222 -564 399 -417 220 -601 330 -763 459 -88 70 -173 163 -196 214 -24 55 -38 160 -39 288 0 145 -23 228 -84 311 -36 48 -126 101 -304 176 -247 105 -280 133 -379 321 -28 52 -93 176 -146 275 -108 203 -163 329 -203 460 -25 80 -28 106 -28 235 0 138 2 156 49 360 45 199 48 225 49 355 1 122 -2 149 -22 207 -44 126 -124 224 -227 276 -66 33 -142 51 -288 67 -226 25 -443 89 -662 195 -283 137 -498 313 -799 655 -413 469 -661 699 -1506 1404 -712 593 -888 751 -999 898 -74 97 -145 244 -191 396 -90 291 -103 328 -138 387 -20 34 -61 90 -90 124 -72 84 -181 229 -282 377 -123 179 -201 253 -415 394 -245 162 -288 206 -434 453 -63 105 -142 227 -177 271 -102 129 -232 221 -444 316 -206 92 -276 152 -364 308 -103 183 -205 286 -480 486 -85 62 -178 133 -206 158 -112 100 -197 240 -300 488 -162 391 -209 458 -427 602 -119 78 -150 112 -193 213 -86 204 -180 569 -180 699 0 83 16 112 145 256 59 66 122 147 140 180 62 111 67 223 15 325 -51 100 -126 147 -310 195 -58 15 -117 33 -132 41 -36 19 -58 63 -58 116 0 50 11 69 93 157 79 85 107 146 107 232 0 56 -6 77 -35 135 -40 81 -72 114 -163 170 -38 23 -75 54 -85 72 -11 18 -32 97 -47 175 -42 209 -90 326 -167 403 -86 86 -181 95 -417 38 -275 -67 -367 -49 -415 82 -30 78 -36 143 -18 186 12 28 37 51 104 96 101 68 156 124 187 191 32 70 29 209 -8 316 -57 166 -160 297 -279 354 -35 17 -113 42 -172 57 -60 14 -119 33 -132 41 -33 22 -87 115 -134 233 -65 165 -116 226 -213 254 l-54 16 -31 79 c-47 116 -106 161 -211 161 -69 0 -147 -28 -297 -107 -125 -66 -129 -67 -216 -71 -49 -3 -93 0 -97 4 -5 5 -14 54 -21 109 -23 207 -69 276 -264 395 -75 45 -105 88 -155 219 -51 132 -69 162 -164 280 -90 113 -119 166 -105 192 13 25 42 39 180 89 142 52 166 67 257 154 79 76 102 110 102 151 0 38 -15 64 -200 340 -117 176 -134 220 -134 360 0 133 26 305 99 662 67 326 111 591 125 753 17 191 29 231 133 455 67 144 105 254 132 385 38 181 77 450 90 630 16 213 29 281 65 334 44 64 68 71 230 71 138 0 148 1 202 28 31 15 95 63 142 107 69 65 95 82 141 95 70 21 88 16 189 -46 143 -88 163 -91 536 -99 271 -5 332 -9 370 -23 105 -41 127 -99 106 -292 -11 -105 0 -121 101 -140 85 -16 140 -43 188 -90 67 -67 100 -158 155 -420 37 -177 79 -308 123 -385 50 -88 109 -139 237 -205 102 -51 128 -71 225 -165 183 -177 245 -202 501 -204 l171 -2 39 -29 c22 -16 59 -48 84 -71 94 -87 127 -104 194 -104 149 1 235 97 321 360 21 63 57 165 81 226 24 62 57 170 74 240 60 261 86 307 264 457 264 223 297 264 435 542 133 266 191 331 348 392 53 20 86 26 153 27 95 0 127 -8 310 -85 183 -76 243 -90 415 -96 106 -4 203 0 330 12 230 23 399 23 485 1 35 -9 103 -38 150 -63 217 -119 329 -171 394 -183 149 -28 285 27 340 139 13 25 40 91 61 145 37 97 40 101 153 215 63 64 142 150 175 191 112 140 144 157 222 121z"/>
  </g>

</svg>