<?xml version="1.0" encoding="utf-8"?>
<svg version="1.0" xmlns="http://www.w3.org/2000/svg" width="920.000000pt" height="720.000000pt" viewBox="0 0 920.000000 720.000000" preserveAspectRatio="xMidYMid meet">
  <path  id="South Dalmatia region" style="stroke: rgb(0, 0, 0); fill: rgb(121, 175, 113);" d="M 480.455 594.166 L 463.631 596.741 L 450.869 606.012 L 448.523 626.58 L 451.111 648.84 L 479.158 665.99 C 479.158 665.99 494.185 657.584 494.235 657.584 C 494.285 657.584 527.979 652.276 528.028 652.225 C 528.077 652.174 545.973 649.657 546.022 649.657 C 546.071 649.657 595.072 650.84 595.072 650.889 C 595.072 650.938 632.932 667.847 632.98 667.847 C 633.028 667.847 662.961 674.133 662.961 674.133 C 662.961 674.133 679.096 686.621 679.145 686.621 C 679.194 686.621 691.432 691.739 691.432 691.739 L 697.827 687.022 L 689.022 676.703 L 677.853 670.979 L 663.139 659.5 L 660.104 656.833 L 655.087 651.381 L 643.695 641.482 L 638.583 645.183 L 630.509 642.767 L 629.691 641.043 C 629.691 641.043 636.985 642.29 637.04 641.252 C 637.095 640.214 635.131 637.906 635.131 637.906 C 635.131 637.906 626.192 633.361 626.175 633.361 C 626.158 633.361 626.067 638.82 626.049 638.82 C 626.031 638.82 622.647 637.985 622.647 637.985 C 622.647 637.985 618.533 634.874 618.515 634.857 C 618.497 634.84 612.857 632.539 612.819 632.52 C 612.781 632.501 612.795 630.376 612.795 630.376 C 612.795 630.376 622.838 629.269 622.838 629.286 C 622.838 629.303 619.425 626.89 619.425 626.89 L 616.683 623.717 C 616.683 623.717 610.621 627.154 610.583 627.173 C 610.545 627.192 607.393 626.011 607.393 626.011 L 602.757 625.105 L 598.834 623.501 L 580.041 617.57 C 580.055 617.553 574.343 615.527 574.343 615.527 L 571.462 608.882 L 555.503 603.83 L 545.763 599.185 L 535.952 600.344 C 535.952 600.344 538.335 603.572 538.335 603.598 C 538.335 603.624 542.218 607.457 542.218 607.457 C 542.218 607.457 540.693 608.057 540.667 608.057 C 540.641 608.057 533.426 608.396 533.399 608.423 C 533.372 608.45 523.883 606.172 523.857 606.172 C 523.831 606.172 519.614 606.599 519.614 606.599 L 513.866 609.662 C 513.866 609.662 508.644 610.392 508.618 610.392 C 508.592 610.392 500.248 608.97 500.221 608.944 C 500.194 608.918 488.298 607.195 488.298 607.195 L 479.098 605.314 L 483.256 603.148 L 487.474 600.902 L 479.483 598.052 L 484.223 595.066 L 494.845 597.777 L 505.416 600.928 L 512.429 598.044 L 527.303 597.401 L 534.371 599.62 L 529.607 596.848 L 514.786 597.094 L 505.257 599.949 L 498.451 597.772 L 489.36 596.393 L 480.455 594.166 Z"/>
  <path id="Dubrovnik region"  style="fill: rgb(216, 216, 216); stroke: rgb(0, 0, 0);" d="M 529.718 597.669 L 511.816 598.874 L 503.037 600.543 L 494.463 598.215 L 486.643 596.578 L 481.519 597.425 L 487.271 601.005 L 481.408 604.999 L 508.405 610.121 C 508.405 610.121 523.02 605.888 523.02 605.869 C 523.02 605.85 533.486 608.169 533.486 608.188 C 533.486 608.207 542.388 607.848 542.388 607.848 L 537.178 601.645 L 532.969 599.376 L 530.125 595.27 L 524.246 592.024 L 521.843 589.07 C 521.843 589.07 523.462 587.159 523.481 587.159 C 523.5 587.159 530.999 588.671 530.999 588.671 C 530.999 588.671 532.23 589.594 532.249 589.613 C 532.268 589.632 544.403 590.955 544.444 590.955 C 544.485 590.955 556.714 592.954 556.714 592.954 L 572.454 601.519 L 576.822 606.43 L 582.577 608.705 C 582.577 608.705 586.053 608.244 586.053 608.225 C 586.053 608.206 600.254 616.481 600.254 616.481 C 600.254 616.481 605.434 620.884 605.434 620.902 C 605.434 620.92 609.475 623.749 609.475 623.749 C 609.475 623.749 609.751 620.969 609.751 620.938 C 609.751 620.907 603.712 612.775 603.712 612.775 L 598.768 610.757 C 598.768 610.757 605.801 604.264 605.801 604.293 C 605.801 604.322 612.417 607.987 612.417 607.987 L 619.558 606.895 C 619.558 606.895 620.633 610.714 620.633 610.745 C 620.633 610.776 619.914 615.365 619.914 615.365 L 625.639 622.033 L 630.767 623.137 L 641.129 632.9 C 641.129 632.9 644.605 634.014 644.605 634.044 C 644.605 634.074 659.132 645.952 659.132 645.952 L 666.575 653.643 L 675.34 654.01 L 678.957 654.098 C 678.957 654.098 682.507 658.609 682.507 658.64 C 682.507 658.671 691.555 659.129 691.555 659.129 L 693.088 671.676 L 698.727 678.576 L 698.337 685.431 C 698.337 685.431 688.671 677.175 688.639 677.143 C 688.607 677.111 679.553 669.602 679.553 669.602 L 670.163 666.487 C 670.163 666.487 663.988 660.181 663.956 660.181 C 663.924 660.181 657.11 653.372 657.11 653.341 C 657.11 653.31 653.275 647.879 653.275 647.879 C 653.275 647.879 648.385 644.639 646.278 642.681 C 644.171 640.723 640.958 642.592 640.958 642.576 C 640.958 642.543 635.007 636.76 635.007 636.76 L 625.875 633.078 L 625.565 638.111 L 621.783 637.645 C 621.783 637.645 615.771 632.948 615.71 632.948 C 615.649 632.948 612.08 631.17 612.08 631.17 C 612.08 631.17 614.814 629.779 614.831 629.779 C 614.848 629.779 619.699 629.21 619.716 629.21 C 619.733 629.21 621.478 625.194 621.478 625.194 C 621.478 625.194 616.084 623.019 616.065 622.98 C 616.046 622.941 612.25 625.069 612.232 625.069 C 612.214 625.069 604.889 625.684 604.889 625.684 L 595.7 622.538 L 578.438 617.044 C 578.438 617.044 589.297 629.366 595.819 633.818 C 597.539 634.992 595.575 634.044 592.652 633.398 C 590.903 633.012 590.188 632.717 589.829 632.592 C 589.537 632.49 584.809 631.454 580.929 630.257 C 578.506 629.51 561.513 626.43 561.039 625.745 C 560.097 624.381 561.486 628.265 569.118 633.075 C 571.927 634.845 578.809 634.146 583.817 634.415 C 587.378 634.605 591.525 637.381 593.786 637.606 C 595.777 637.804 609.168 640.409 609.804 640.224 C 611.725 639.668 612.602 639.842 605.038 634.673 C 603.92 633.909 596.32 633.466 595.07 632.635 C 586.541 626.968 578.682 617.254 578.345 617.008 C 575.089 614.629 575.324 614.95 575.316 614.95 C 575.289 614.95 572.231 608.861 572.204 608.834 C 572.177 608.807 561.896 605.716 561.802 605.716 C 561.708 605.716 552.057 600.411 552.03 600.411 C 552.003 600.411 546.447 598.022 546.447 598.022 L 541.426 597.425 L 533.336 597.39 L 531.612 596.136 L 529.718 597.669 Z"/>
  <path id="Middle Dalmatia region" style="stroke: rgb(0, 0, 0); fill: rgba(35, 202, 34, 0.584);" d="M 412.858 518.963 L 405.565 539.256 C 405.565 539.256 376.839 553.186 376.758 553.225 C 376.677 553.264 356.551 553.36 356.472 553.32 C 356.393 553.28 339.44 549.912 339.403 549.912 C 339.366 549.912 327.75 559.779 327.75 559.779 C 327.75 559.779 323.556 572.863 323.556 572.897 C 323.556 572.931 333.051 599.991 333.085 599.991 C 333.119 599.991 368.226 616.065 368.147 616.025 C 368.068 615.985 400.383 621.045 400.418 621.045 C 400.453 621.045 438.163 617.455 438.163 617.455 L 449.37 613.038 C 449.37 613.038 452.012 604.763 452.012 604.722 C 452.012 604.681 464.939 594.815 464.939 594.815 L 480.831 594.593 L 501.558 599.328 L 516.91 598.851 L 530.936 596.865 L 518.914 588.929 L 524.206 584.526 L 534.713 590.037 L 555.611 592.098 L 575.25 603.423 L 581.727 601.226 L 574.95 593.856 L 580.462 589.309 L 574.509 586.862 L 569.697 586.19 C 569.697 586.19 565.591 584.172 565.591 584.145 C 565.591 584.118 559.588 575.783 559.588 575.783 L 540.475 565.239 C 540.475 565.239 522.368 546.127 522.342 546.127 C 522.316 546.127 511.053 532.705 511.027 532.705 C 511.001 532.705 489.174 529.757 489.174 529.782 C 489.174 529.807 480.648 524.697 480.648 524.697 C 480.648 524.697 471.645 519.424 471.587 519.424 C 471.529 519.424 462.055 511.209 462.055 511.209 L 453.075 514.183 C 453.075 514.183 444.663 516.797 444.605 516.826 C 444.547 516.855 440.34 518.607 440.34 518.607 C 440.34 518.607 440.154 514.49 440.154 514.432 C 440.154 514.374 440.138 512.282 440.138 512.282 L 436.296 512.086 C 436.296 512.086 436.002 518.57 436.002 518.595 C 436.002 518.62 429.645 518.284 429.645 518.284 C 429.645 518.284 428.949 513.136 428.923 513.136 C 428.897 513.136 421.455 513.411 421.455 513.411 C 421.455 513.411 425.967 516.914 425.967 516.939 C 425.967 516.964 420.74 519.301 420.714 519.326 C 420.688 519.351 418.043 517.694 418.043 517.694 L 412.858 518.963 Z"/>
  <path id="North Dalmatia regiom" style="stroke: rgb(0, 0, 0); fill: rgba(216, 216, 216, 0.573);" d="M 310.265 393.859 L 290.369 391.565 L 268.076 386.32 L 254.331 392.061 L 244.226 403.14 L 244.14 414.673 C 244.14 414.673 269.789 435.612 269.789 435.662 C 269.789 435.712 291.939 467.917 291.939 467.968 C 291.939 468.019 313.111 490.965 313.111 490.965 L 345.373 525.994 L 369.313 534.45 L 392.019 541.819 L 397.908 542.946 C 397.908 542.946 405.339 538.841 405.339 538.857 C 405.339 538.873 412.755 518.296 412.755 518.296 L 409.095 515.726 L 403.397 515.958 L 402.956 513.461 C 402.956 513.461 407.09 510.625 407.09 510.608 C 407.09 510.591 401.94 506.535 401.94 506.535 L 398.028 501.344 L 398.627 495.365 L 404.188 495.281 L 402.624 490.004 L 404.61 488.038 L 402.509 486.061 L 397.067 486.581 L 395.546 481.82 C 395.546 481.82 392.818 482.748 392.818 482.763 C 392.818 482.778 392.681 489.787 392.681 489.787 L 389.516 487.248 L 388.703 480.042 L 385.208 476.539 C 385.208 476.539 377.499 475.641 377.499 475.657 C 377.499 475.673 370.441 467.127 370.441 467.127 L 357.696 458.856 L 343.892 445.482 L 333.171 430.372 C 333.171 430.372 325.272 422.216 325.272 422.2 C 325.272 422.184 315.404 409.716 315.404 409.716 C 315.404 409.716 311.922 405.223 311.938 405.223 C 311.954 405.223 314.398 402.703 314.398 402.703 L 310.265 393.859 Z"/>
  <path id="Split region" style="stroke: rgb(0, 0, 0); fill: rgba(99, 87, 240, 0.533);" d="M 381.794 589.23 L 378.432 593.449 C 378.432 593.449 375.657 590.569 375.657 590.546 C 375.657 590.523 380.754 588.576 380.754 588.576 L 406.791 598.132 L 407.115 601.773 L 411.132 599.036 L 409.99 594.998 L 407.334 596.761 L 414.166 584.252 L 417.174 587.979 L 415.577 590.071 L 416.887 593.511 C 416.887 593.511 425.36 592.699 425.36 592.677 C 425.36 592.655 426.894 591.181 426.894 591.181 L 431.236 591.181 L 436.292 585.354 L 432.155 581.634 C 432.155 581.634 428.69 585.613 428.668 585.635 C 428.646 585.657 425.532 581.258 425.532 581.258 L 421.632 583.037 L 415.959 582.983 L 446.746 567.682 L 455.915 570.423 L 459.901 567.907 L 464.249 570.758 L 478.988 573.781 L 487.672 581.862 L 493.084 582.887 L 488.881 578.666 L 485.426 575.236 L 489.086 573.782 L 509.017 575.343 L 530.629 576.777 L 542.434 576.077 L 544.455 574.382 L 540.496 572.938 L 529.549 572.06 L 501.565 569.386 L 486.942 568.105 L 483.513 560.825 L 472.728 559.936 L 470.413 558.515 L 471.895 566.049 C 471.895 566.049 465.963 562.445 465.946 562.427 C 465.929 562.409 461.352 561.226 461.352 561.226 C 461.352 561.226 454.446 563.07 454.428 563.07 C 454.41 563.07 451.412 563.285 451.412 563.285 L 449.545 566.296 L 445.863 566.432 L 462.844 548.691 C 462.844 548.691 481.328 553.265 481.363 553.373 C 481.398 553.481 498.497 552.138 498.497 552.138 C 498.497 552.138 505.684 550.724 505.684 550.692 C 505.684 550.66 508.831 545.066 508.831 545.066 L 500.894 541.758 L 495.234 538.709 L 485.779 537.813 C 485.779 537.813 480.584 536.357 480.554 536.357 C 480.524 536.357 470.407 534.149 470.407 534.149 L 461.847 534.272 L 455.659 534.464 C 455.659 534.464 457.417 540.27 457.417 540.379 C 457.417 540.488 452.975 539.075 452.975 539.075 L 456.004 546.773 L 460.472 548.847 L 430.783 533.9 C 430.783 533.9 434.635 530.117 434.635 530.086 C 434.635 530.055 444.431 534.294 444.462 534.294 C 444.493 534.294 448.154 537.262 448.154 537.262 L 448.594 540.826 L 444.205 540.038 L 432.525 535.539 L 426.74 522.415 L 426.492 527.79 L 419.829 528.839 L 420.153 526.076 L 425.073 522.038 L 433.643 518.369 C 433.643 518.369 437.064 512.371 437.064 512.34 C 437.064 512.309 442.641 512.749 442.641 512.749 L 438.399 517.478 L 443.001 518.864 L 448.41 515.664 L 455.121 514.082 L 463.255 511.388 L 473.068 520.082 L 482.907 525.543 L 490.781 529.528 L 501.073 531.036 L 509.55 531.908 C 509.55 531.908 519.18 542.047 519.18 542.078 C 519.18 542.109 530.225 557.842 530.193 557.842 C 530.161 557.842 537.691 562.743 537.691 562.743 L 549.631 569.557 L 558.958 575.72 L 563.112 578.924 L 568.336 586.395 L 570.321 582.64 L 576.085 582.64 L 567.113 575.322 L 557.878 566.118 L 538.632 554.243 C 538.632 554.243 531.619 544.396 531.584 544.326 C 531.549 544.256 526.35 531.295 526.35 531.295 L 520.685 526.641 L 503.079 520.565 L 490.86 521.643 L 483.808 515.33 L 475.91 509.392 L 468.834 505.036 L 461.349 504.147 C 461.349 504.147 446.134 503.666 446.102 503.698 C 446.07 503.73 412.506 482.372 412.506 482.372 L 398.394 472.694 L 383.26 461.321 C 383.26 461.321 363.597 444.712 363.597 444.662 C 363.597 444.612 344.83 428.935 344.83 428.935 L 341.234 422.726 L 343.031 414.652 C 343.031 414.652 346.971 412.539 346.971 412.49 C 346.971 412.441 336.416 408.742 336.416 408.742 L 324.544 400.799 L 319.267 398.177 L 313.306 392.591 L 310.326 394.456 L 317.123 405.691 L 312.449 405.691 L 328.722 425.585 L 321.877 428.331 L 314.513 420.223 L 301.941 412.071 C 301.941 412.071 292.8 407.057 292.749 407.031 C 292.698 407.005 290.042 403.973 290.042 403.973 L 288.573 404.473 L 286.606 405.895 C 286.606 405.895 284.544 401.263 284.544 401.212 C 284.544 401.161 281.067 401.056 281.067 401.056 C 281.067 401.056 274.003 393.731 273.979 393.707 C 273.955 393.683 268.471 389.55 268.471 389.55 L 264.65 391.331 L 275.708 399.249 L 274.66 404.086 L 278.567 402.965 L 283.408 406.125 L 283.084 409.093 L 277.142 409.937 C 277.142 409.937 272.317 412.159 272.317 412.181 C 272.317 412.203 275.576 414.524 275.576 414.524 C 275.576 414.524 282.696 415.26 282.719 415.26 C 282.742 415.26 283.938 415.87 283.938 415.87 C 283.938 415.87 287.634 417.065 287.634 417.087 C 287.634 417.109 293.082 415.029 293.082 415.029 C 293.082 415.029 288.698 411.213 288.698 411.19 C 288.698 411.167 298.137 414.414 298.137 414.391 C 298.137 414.368 298.076 417.22 298.076 417.22 L 302.06 417.242 C 302.06 417.242 306.569 419.288 306.591 419.288 C 306.613 419.288 310.977 424.856 310.977 424.856 L 314.794 425.537 L 307.916 426.681 L 304.667 423.988 L 303.275 426.08 L 295.14 424.519 L 293.007 419.374 C 293.007 419.374 288.243 419.874 288.215 419.874 C 288.187 419.874 289.18 423.695 289.18 423.722 C 289.18 423.749 294.467 430.499 294.467 430.499 C 294.467 430.499 296.831 426.539 296.831 426.51 C 296.831 426.481 297.162 425.142 297.162 425.142 L 304.214 426.4 C 304.214 426.4 306.07 431.083 306.07 431.064 C 306.07 431.045 303.554 434.131 303.554 434.131 L 299.662 435.973 L 304.42 445.2 L 311.144 449.643 L 313.103 454.238 C 313.103 454.238 318.106 453.057 318.106 453.039 C 318.106 453.021 318.687 449.26 318.705 449.26 C 318.723 449.26 315.819 446.224 315.819 446.224 L 313.083 444.955 C 313.083 444.955 309.045 441.691 309.026 441.691 C 309.007 441.691 304.34 438.175 304.34 438.155 C 304.34 438.135 304.506 433.411 304.506 433.411 L 306.921 430.809 C 306.921 430.809 310.975 434.967 310.975 434.977 C 310.975 434.987 311.812 432.469 311.812 432.448 C 311.812 432.427 309.095 427.06 309.095 427.06 L 313.193 426.035 L 319.257 430.362 C 319.257 430.362 322.099 429.595 322.099 429.581 C 322.099 429.567 323.206 427.781 323.206 427.781 L 327.771 426.332 L 332.696 430.407 L 334.937 432.228 C 334.937 432.228 337.841 437.318 337.852 437.329 C 337.863 437.34 334.45 440.684 334.45 440.684 C 334.45 440.684 328.326 436.338 328.314 436.338 C 328.302 436.338 324.221 434.475 324.221 434.475 L 330.108 443.611 L 327.59 447.623 L 324.037 448.159 L 326.314 450.45 L 327.025 455.616 L 328.473 458.571 L 328.669 462.639 L 324.352 460.158 C 324.352 460.158 321.74 460.171 321.722 460.171 C 321.704 460.171 322.407 466.034 322.407 466.034 L 326.598 464.92 C 326.598 464.92 331.419 472.649 331.419 472.667 C 331.419 472.685 335.318 476.724 335.335 476.724 C 335.352 476.724 340.887 477.436 340.887 477.419 C 340.887 477.402 344.512 478.94 344.512 478.94 L 349.713 486.714 L 353.054 486.887 L 352.866 483.585 L 350.433 479.832 C 350.433 479.832 346.955 476.616 346.937 476.616 C 346.919 476.616 343.692 473.353 343.674 473.334 C 343.656 473.315 339.075 470.632 339.057 470.613 C 339.039 470.594 335.521 467.046 335.503 467.046 C 335.485 467.046 335.377 464.63 335.377 464.63 L 332.45 458.998 C 332.45 458.998 330.135 455.355 330.096 455.355 C 330.057 455.355 328.368 454.954 328.368 454.936 C 328.368 454.918 326.944 454.323 326.944 454.323 L 326.988 450.247 L 329.973 450.429 L 328.391 447.244 L 330.54 443.884 L 342.882 458.141 C 342.882 458.141 343.8 453.236 343.778 453.215 C 343.756 453.194 341.161 448.916 341.161 448.916 L 337.716 444.826 L 333.356 440.559 C 333.356 440.559 336.96 438.149 336.96 438.14 C 336.96 438.131 346.395 447.935 346.395 447.935 L 354.107 455.334 L 351.745 459.581 L 349.241 459.336 L 350.635 464.511 L 353.347 462.911 L 350.805 459.311 L 354.917 455.761 L 372.095 468.051 L 368.317 469.415 L 364.333 466.648 L 359.261 465.984 L 365.786 471.969 L 366.675 474.775 C 366.675 474.775 369.734 473.163 369.75 473.163 C 369.766 473.163 369.804 468.786 369.804 468.786 L 373.071 469.567 L 377.063 476.768 L 381.382 477.517 L 379.292 480.3 C 379.292 480.3 377.153 482.502 377.137 482.502 C 377.121 482.502 372.973 481.583 372.973 481.583 L 371.907 484.528 L 366.723 483.404 L 365.798 484.399 C 365.798 484.399 372.631 488.271 372.631 488.287 C 372.631 488.303 369.148 491.334 369.148 491.334 L 363.906 488.812 L 363.844 492.938 L 367.935 494.373 L 373.436 496.869 L 378.939 497.504 C 378.939 497.504 377.537 494.976 377.52 494.976 C 377.503 494.976 370.107 490.953 370.107 490.953 L 373.776 488.112 L 379.548 488.661 L 380.81 485.723 L 378.64 483.146 C 378.64 483.146 384.792 479.396 384.792 479.378 C 384.792 479.36 383.169 477.244 383.169 477.244 L 389.592 480.296 L 389.943 487.183 L 393.146 489.924 L 393.146 483.256 L 395.842 482.36 L 396.907 485.907 C 396.907 485.907 401.78 486.806 401.796 486.806 C 401.812 486.806 404.682 488.479 404.665 488.479 C 404.648 488.479 402.241 490.145 402.224 490.145 C 402.207 490.145 403.504 495.516 403.504 495.516 L 398.42 496.108 L 398.171 502.747 L 404.623 509.046 L 407.66 511.182 L 402.741 513.378 L 403.987 516.093 C 403.987 516.093 408.976 515.589 408.976 515.57 C 408.976 515.551 411.142 517.997 411.142 517.997 L 415.242 519.787 C 415.242 519.787 417.29 517.704 417.31 517.704 C 417.33 517.704 422.014 519 422.014 519 L 426.272 516.078 L 421.818 512.611 L 428.667 512.804 L 431.291 516.865 L 430.666 519.527 L 425.573 523.273 L 431.597 533.828 L 447.476 541.678 L 450.483 537.447 L 455.407 542.499 L 462.128 548.516 L 445.017 566.907 L 444.944 568.403 L 414.771 583.561 L 408.318 595.786 L 405.993 597.056 L 381.794 589.23 Z"/>
  <path id="Kvarner i Kvarneric region" style="stroke: rgb(0, 0, 0); fill: rgba(221, 101, 101, 0.333);" d="M 243.841 414.725 L 222.93 394.881 C 222.93 394.881 210.252 377.328 210.201 377.276 C 210.15 377.224 190.069 359.666 190.017 359.614 C 189.965 359.562 175.325 344.277 175.325 344.225 C 175.325 344.173 166.086 339.838 166.086 339.838 L 170.67 322.999 L 175.029 310.134 L 177.419 304.989 L 181.876 306.635 L 182.504 300.555 L 186.221 297.866 C 186.221 297.866 183.905 295.585 183.905 295.567 C 183.905 295.549 184.389 293.609 184.389 293.609 L 189.473 292.049 L 191.387 286.039 L 193.931 281.447 C 193.931 281.447 190.807 277.38 190.789 277.362 C 190.771 277.344 191.325 273.053 191.325 273.053 L 194.776 272.614 L 198.229 279.072 L 202.421 282.055 L 205.08 281.53 L 205.345 276.672 L 204.091 265.013 L 208.462 262.174 L 208.462 259.899 L 211.823 257.616 L 216.306 246.541 L 218.048 235.978 L 222.474 227.201 C 222.474 227.201 226.556 223.759 226.556 223.79 C 226.556 223.821 230.697 227.94 230.697 227.94 L 238.141 228.653 L 244.484 233.068 L 249.051 242.107 L 247.429 241.668 L 247.149 250.774 L 246.055 252.831 L 245.74 259.74 L 242.728 260.609 L 239.009 259.7 L 237.281 265.682 L 234.262 266.169 L 234.538 269.306 L 239.014 270.927 L 241.515 273.652 L 245.012 274.333 L 248.6 277.145 L 250.537 274.31 L 252.139 274.31 L 254.905 271.98 L 257.32 276.991 L 255.527 280.702 L 256.65 283.821 L 261.695 285.488 L 264.566 287.916 L 270.508 289.013 L 268.597 298.299 L 267.948 304.189 L 263.261 302.438 L 266.993 308.765 L 266.422 311.797 L 261.515 311.098 L 265.091 316.809 L 270.294 315.277 L 274.215 321.681 L 273.767 323.711 L 268.682 329.113 L 270.132 335.636 L 280.949 347.572 L 283.109 352.457 L 285.834 352.569 L 286.847 358.91 L 285.82 360.788 L 289.561 363.232 L 294.931 365.699 L 299.005 372.34 L 301.451 375.398 L 308.216 375.781 L 309.39 377.946 L 308.558 379.28 L 307.947 386.159 L 299.821 386.608 L 300.194 391.822 L 299.819 392.987 L 292.015 391.775 L 268.426 386.498 L 254.213 392.56 L 244.666 403.091 L 243.841 414.725 Z"/>
  <path id="Velebit channel region" style="stroke: rgb(0, 0, 0); fill: rgba(99, 88, 226, 0.475);" d="M 245.319 233.729 L 248.7 241.639 C 248.7 241.639 252.004 241.698 252.004 241.719 C 252.004 241.74 255.251 247.613 255.251 247.613 L 261.143 253.078 L 254.84 253.127 L 253.793 254.36 L 262.291 258.101 L 261.797 260.352 L 259.191 260.31 L 263.211 268.31 L 270.935 269.175 L 272.157 275.802 C 272.157 275.802 278.506 281.965 278.485 281.965 C 278.464 281.965 276.53 284.758 276.53 284.779 C 276.53 284.8 271.336 284.886 271.336 284.886 L 280.714 295.579 L 278.081 298.315 C 278.081 298.315 272.652 295.145 272.652 295.124 C 272.652 295.103 270.858 289.593 270.858 289.593 L 268.6 298.585 L 271.126 300.655 L 269.276 308.443 L 276.055 316.41 L 279.673 321.943 L 278.464 325.28 L 273.774 324.294 L 270.126 327.537 L 275.858 335.805 L 281.969 342.633 L 285.537 341.685 L 288.293 342.462 L 290.171 344.678 L 294.048 347.921 L 290.864 354.169 C 290.864 354.169 300.304 367.271 300.304 367.29 C 300.304 367.309 300.025 360.914 300.025 360.914 L 296.741 357.567 C 296.741 357.567 296.86 353.905 296.86 353.926 C 296.86 353.947 301.933 356.011 301.933 356.011 L 305.931 360.599 L 307.057 364.363 L 314.858 373.172 L 319.128 378.681 L 320.996 386.014 L 320.924 390.611 L 327.407 397.107 L 327.717 390.759 L 325.355 386.467 L 328.29 385.296 L 332.838 389.039 L 336.257 393.403 L 348.601 399.046 C 348.601 399.046 349.337 405.926 349.337 405.947 C 349.337 405.968 350.192 408.32 350.192 408.32 C 350.192 408.32 356.29 405.265 356.31 405.265 C 356.33 405.265 359.709 409.489 359.709 409.489 C 359.709 409.489 361.438 415.65 361.457 415.65 C 361.476 415.65 366.205 415.275 366.205 415.275 L 365.332 404.803 C 365.332 404.803 367.707 401.922 367.707 401.901 C 367.707 401.88 366.375 400.611 366.375 400.611 L 361.653 400.507 L 359.28 401.706 C 359.28 401.706 353.698 397.909 353.698 397.889 C 353.698 397.869 353.413 394.132 353.413 394.132 L 346.847 392.341 C 346.847 392.341 338.109 386.86 338.088 386.86 C 338.067 386.86 322.824 373.704 322.824 373.704 L 311.309 362.916 L 303.515 351.112 L 297.679 346.332 C 297.679 346.332 291.473 337.599 291.473 337.579 C 291.473 337.559 288.694 333.988 288.694 333.988 C 288.694 333.988 287.411 329.332 287.411 329.311 C 287.411 329.29 285.723 322.245 285.723 322.245 C 285.723 322.245 285.325 311.605 285.304 311.584 C 285.283 311.563 282.683 304.6 282.683 304.6 L 285.666 297.704 L 289.241 286.157 L 286.496 281.703 L 284.586 272.931 L 281.864 267.864 L 280.583 262.157 L 270.863 256.312 L 263.619 249.679 L 257.476 242.651 C 257.476 242.651 254.642 238.572 254.622 238.572 C 254.602 238.572 252.656 235.584 252.656 235.584 L 252.656 232.158 L 249.152 230.297 L 245.319 233.729 Z"/>
  <path id="West Istrian coast region" style="stroke: rgb(0, 0, 0); fill: rgba(99, 88, 226, 0.475);" d="M 166.465 340.046 C 166.465 340.046 145.915 318.894 145.915 318.855 C 145.915 318.816 120.165 280.435 120.165 280.435 C 120.165 280.435 109.254 243.021 109.254 242.981 C 109.254 242.941 107.401 215.953 107.401 215.913 C 107.401 215.873 107.734 185.659 107.734 185.659 L 113.01 178.059 L 123.505 183.706 C 123.505 183.706 131.047 192.666 131.047 192.704 C 131.047 192.742 133.971 198.714 133.971 198.714 L 136.919 201.624 L 135.188 207.356 L 138.655 217.382 L 137.276 225.697 L 146.077 226.774 L 142.281 233.792 L 143.233 238.324 L 143.369 242.797 L 142.034 244.847 C 142.034 244.847 144.444 253.211 144.444 253.233 C 144.444 253.255 155.821 254.189 155.821 254.189 L 158.072 255.959 L 155.902 257.599 L 145.015 257.855 L 147.476 261.855 L 146.967 265.805 L 151.755 268.968 L 159.037 277.474 L 163.246 285.649 L 163.296 290.525 L 161.072 291.18 C 161.072 291.18 167.324 301.129 167.324 301.152 C 167.324 301.175 168.513 304.305 168.513 304.305 L 174.9 310.468 L 166.465 340.046 Z"/>
  <path id="Rijeka region" style="stroke: rgb(0, 0, 0); fill: rgba(80, 177, 100, 0.56);" d="M 223.495 206.455 L 217.251 200.399 L 216.278 199.19 L 209.514 202.118 C 209.514 202.118 205.814 203.162 205.814 203.175 C 205.814 203.188 204.539 204.354 204.539 204.354 L 197.448 201.923 L 188.901 195.904 C 188.901 195.904 187.399 198.822 187.399 198.835 C 187.399 198.848 190.526 201.989 190.526 201.989 C 190.526 201.989 189.347 205.301 189.334 205.301 C 189.321 205.301 182.823 206.149 182.794 206.164 C 182.765 206.179 180.482 210.878 180.482 210.891 C 180.482 210.904 176.737 211.974 176.724 211.974 C 176.711 211.974 174.515 207.929 174.515 207.929 C 174.515 207.929 170.674 207.662 170.645 207.647 C 170.616 207.632 162.557 204.035 162.557 204.035 C 162.557 204.035 154.313 204.393 154.266 204.393 C 154.219 204.393 147.254 201.58 147.254 201.58 C 147.254 201.58 137.354 198.799 137.341 198.786 C 137.328 198.773 133.91 198.331 133.91 198.331 L 137.04 203.541 C 137.04 203.541 135.409 209.715 135.409 209.703 C 135.409 209.691 138.696 218.091 138.683 218.091 C 138.67 218.091 137.455 225.602 137.455 225.602 L 146.047 227.323 L 141.851 234.276 L 143.293 241.961 C 143.293 241.961 142.529 244.748 142.516 244.748 C 142.503 244.748 143.88 253.319 143.88 253.319 L 157.413 254.38 L 157.999 255.958 L 156.155 257.895 C 156.155 257.895 145.935 257.985 145.905 257.985 C 145.875 257.985 147.512 262.638 147.512 262.638 L 147.238 265.551 L 151.054 267.289 L 158.755 276.592 L 163.512 286.317 L 163.367 290.443 L 161.99 291.359 C 161.99 291.359 165.308 298.709 165.321 298.709 C 165.334 298.709 167.556 300.203 167.556 300.203 L 168.466 304.219 C 168.466 304.219 175.06 308.252 175.06 308.239 C 175.06 308.226 177.062 305.274 177.049 305.274 C 177.036 305.274 181.318 306.587 181.318 306.587 L 182.469 299.784 L 185.473 297.803 L 184.373 294.752 L 184.373 293.433 C 184.373 293.433 188.944 291.949 188.92 291.972 C 188.896 291.995 191.14 285.741 191.14 285.741 C 191.14 285.741 193.694 282.009 193.694 281.986 C 193.694 281.963 190.793 277.731 190.793 277.731 L 191.46 273.335 L 195.54 273.57 L 199.867 281.009 L 203.263 282.088 L 205.042 280.88 C 205.042 280.88 204.14 265.947 204.117 265.923 C 204.094 265.899 208.388 261.278 208.388 261.278 C 208.388 261.278 211.877 257.765 211.877 257.742 C 211.877 257.719 216.321 245.588 216.321 245.588 L 216.89 238.242 L 223.915 224.994 L 226.722 225.148 L 232.282 227.939 L 237.776 228.776 L 243.396 232.548 L 245.389 233.08 L 248.724 241.431 L 246.996 250.68 L 245.304 259.822 L 240.812 260.272 L 239.237 260.125 L 237.152 266.401 L 234.78 266.351 L 228.408 266.131 L 226.198 259.713 C 226.198 259.713 228.294 253.338 228.316 253.338 C 228.338 253.338 225.449 252.221 225.449 252.221 L 222.354 253.182 L 218.784 258.902 L 219.135 263.058 C 219.135 263.058 223.815 269.196 223.815 269.219 C 223.815 269.242 226.752 275.581 226.752 275.581 L 229.19 281.695 L 231.217 286.044 L 229 287.722 L 228.637 291.998 L 223.347 291.626 C 223.347 291.626 221.721 287.741 221.698 287.741 C 221.675 287.741 220.036 290.345 220.036 290.345 L 217.882 294.597 C 217.882 294.597 222.304 298.837 222.304 298.859 C 222.304 298.881 222.379 306.209 222.355 306.209 C 222.331 306.209 226.055 308.787 226.055 308.787 L 227.52 316.196 L 228.306 318.353 L 228.55 325.703 L 223.978 324.84 L 223.623 328.802 L 216.488 329.639 L 213.153 328.546 L 211.311 334.46 L 210.025 337.289 L 216.129 340.067 L 214.314 334.276 L 218.054 329.438 L 222.88 328.769 L 224.746 333.2 L 228.032 336.288 C 228.032 336.288 228.249 340.834 228.249 340.859 C 228.249 340.884 226.497 342.532 226.497 342.532 L 220.628 343.641 L 217.658 342.829 L 222.221 347.29 L 217.329 353.133 L 218.225 358.281 L 221.987 354.642 L 218.713 353.308 L 221.873 348.18 L 221.488 343.536 L 226.628 343.42 L 226.674 347.037 L 229.719 347.02 C 229.719 347.02 230.682 345.207 230.682 345.221 C 230.682 345.235 234.981 347.69 234.981 347.69 L 238.087 356.597 L 241.098 361.627 L 246.185 365.491 L 248.519 363.975 L 244.027 360.777 L 243.609 356.042 L 236.707 350.975 L 234.73 346.425 L 234.074 347.146 L 230.91 344.39 L 232.827 341.248 L 229.074 341.358 L 228.762 337.51 L 230.408 334.15 L 229.403 329.265 L 232.451 330.239 L 237.397 338.824 L 240.782 340.747 L 243.966 336.953 C 243.966 336.953 241.18 329.873 241.167 329.834 C 241.154 329.795 236.791 322.899 236.791 322.899 L 237.167 316.254 L 236.403 311.778 C 236.403 311.778 238.172 307.813 238.172 307.802 C 238.172 307.791 236.247 302.578 236.247 302.578 C 236.247 302.578 236.527 290.393 236.527 290.369 C 236.527 290.345 239.371 284.238 239.371 284.238 L 244.311 285.74 L 247.713 284.921 C 247.713 284.921 246.773 282.453 246.761 282.453 C 246.749 282.453 236.268 280.727 236.24 280.727 C 236.212 280.727 231.96 277.107 231.96 277.094 C 231.96 277.081 229.901 269.831 229.901 269.831 L 229.397 266.247 L 234.09 266.693 L 235.916 269.435 L 240.555 273.059 L 245.616 273.823 L 247.654 276.818 L 251.347 274.604 L 252.685 274.441 L 254.377 272.253 L 256.499 273.497 L 256.499 278.095 L 254.679 282.603 C 254.679 282.603 258.497 284.868 258.497 284.883 C 258.497 284.898 262.952 285.633 262.952 285.633 L 263.77 287.469 L 270.279 289.103 C 270.279 289.103 268.97 297.827 268.97 297.843 C 268.97 297.859 271.525 300.774 271.525 300.774 L 270.673 303.816 C 270.673 303.816 268.023 301.702 268.023 301.688 C 268.023 301.674 268.023 298.635 268.023 298.635 L 267.904 304.054 L 262.489 302.357 L 266.352 309.241 L 270.127 305.091 L 268.657 312.559 L 262.725 311.379 C 262.725 311.379 264.659 317.068 264.677 317.086 C 264.695 317.104 270.472 315.266 270.49 315.266 C 270.508 315.266 274.391 322.159 274.391 322.159 L 270.195 328.466 C 270.195 328.466 270.524 335.133 270.542 335.133 C 270.56 335.133 279.312 345.828 279.312 345.828 L 282.93 350.974 L 286.761 354.719 L 285.776 360.907 L 282.615 364.258 L 275.651 374.169 L 273.256 370.566 L 270.43 371.366 L 263.765 375.18 L 260.325 376.353 L 253.55 382.106 L 250.351 381.248 L 256.497 388.895 L 257.807 385.324 L 254.993 381.431 L 261.59 375.48 L 261.062 378.752 C 261.062 378.752 264.056 381.782 264.056 381.8 C 264.056 381.818 266.22 381.755 266.22 381.755 L 270.904 381.009 L 274.873 381.976 L 281.54 378.281 L 282.664 377.341 L 280.03 375.583 L 280.724 379.4 L 275.443 380.981 L 273.929 378.738 L 272.491 375.765 L 269.516 381.306 L 267.38 381.666 L 266.165 378.807 L 264.853 376.789 L 264.81 374.692 L 271.991 370.766 L 274.608 372.067 L 276.891 372.916 L 282.838 365.433 L 286.955 371.267 L 291.832 373.581 L 293.687 373.793 L 290.718 370.067 L 283.748 363.499 L 286.802 359.587 L 287.037 363.003 L 289.662 363.3 C 289.662 363.3 293.324 364.95 293.342 364.95 C 293.36 364.95 296.931 368.93 296.931 368.93 L 299.541 372.392 L 300.691 374.494 C 300.691 374.494 305.704 375.301 305.724 375.301 C 305.744 375.301 307.556 375.301 307.556 375.301 L 307.608 378.094 L 306.807 385.167 C 306.807 385.167 301.18 387.058 301.136 387.058 C 301.092 387.058 298.053 387.337 298.053 387.337 L 301.473 392.224 L 306.076 390.689 L 312.066 386.182 C 312.066 386.182 316.506 387.47 316.506 387.489 C 316.506 387.508 319.288 389.172 319.288 389.172 C 319.288 389.172 320.958 385.493 320.976 385.493 C 320.994 385.493 319.204 380.781 319.185 380.762 C 319.166 380.743 313.225 371.734 313.225 371.734 L 305.942 362.566 L 303.514 357.678 L 296.823 355.081 C 296.823 355.081 296.809 358.764 296.828 358.764 C 296.847 358.764 300.609 361.197 300.609 361.197 L 300.512 366.752 L 290.731 355.328 L 290.252 351.609 L 293.684 348.479 L 286.293 341.154 C 286.293 341.154 283.712 341.854 283.692 341.854 C 283.672 341.854 281.882 343.497 281.882 343.497 C 281.882 343.497 270.822 330.497 270.822 330.477 C 270.822 330.457 271.098 326.67 271.098 326.67 L 273.834 324.427 L 278.331 324.658 L 279.173 321.135 C 279.173 321.135 274.65 314.966 274.63 314.966 C 274.61 314.966 268.854 311.315 268.854 311.315 L 268.304 306.977 L 270.834 300.055 L 268.78 295.88 L 270.187 291.131 L 272.767 291.733 L 273.609 295.092 L 279.007 298.085 L 280.284 295.465 C 280.284 295.465 271.187 285.438 271.167 285.438 C 271.147 285.438 277.335 284.166 277.335 284.166 L 277.427 282.397 C 277.427 282.397 275.303 277.412 275.283 277.412 C 275.263 277.412 270.532 274.09 270.532 274.09 C 270.532 274.09 269.948 268.98 269.927 268.959 C 269.906 268.938 262.783 268.182 262.783 268.182 L 259.45 260.12 L 262.75 259.289 L 261.849 257.713 L 253.631 254.258 C 253.631 254.258 254.579 252.956 254.598 252.974 C 254.617 252.992 261.845 252.938 261.845 252.938 C 261.845 252.938 256.674 248.687 256.654 248.667 C 256.634 248.647 252.413 241.478 252.413 241.458 C 252.413 241.438 246.935 242.375 246.935 242.375 L 248.149 239.18 L 246.564 232.767 L 249.543 230.949 L 252.298 232.843 L 253.494 238.77 L 257.303 241.491 L 260.031 246.428 L 272.781 257.741 C 272.781 257.741 279.908 261.13 279.908 261.142 C 279.908 261.154 282.305 269.523 282.305 269.523 L 285.243 273.81 L 286.771 280.397 C 286.771 280.397 289.758 286.46 289.758 286.474 C 289.758 286.488 286.911 297.153 286.896 297.153 C 286.881 297.153 284.31 303.729 284.31 303.729 C 284.31 303.729 283.302 310.629 283.302 310.614 C 283.302 310.599 285.029 314.654 285.029 314.669 C 285.029 314.684 286.369 328.534 286.369 328.534 L 294.929 342.312 L 300.767 349.205 L 309.068 360.103 L 322.231 373.791 L 344.984 391.83 C 344.984 391.83 354.339 395.156 354.357 395.156 C 354.375 395.156 354.34 399.102 354.34 399.102 L 360.67 401.702 L 366.307 400.735 L 367.356 402.623 L 365.806 405.145 L 365.758 415.98 L 360.952 414.472 L 359.967 410.392 L 357.665 406.284 L 357.127 404.168 L 353.396 407.346 C 353.396 407.346 349.65 407.572 349.632 407.572 C 349.614 407.572 349.042 399.34 349.042 399.34 C 349.042 399.34 338.104 394.349 338.065 394.349 C 338.026 394.349 334.599 391.196 334.599 391.196 C 334.599 391.196 333.657 389.338 333.618 389.319 C 333.579 389.3 328.935 386.165 328.935 386.165 L 326.45 385.779 L 325.107 386.911 L 328.414 391.992 L 327.754 396.096 C 327.754 396.096 324.287 394.038 324.269 394.038 C 324.251 394.038 320.966 390.653 320.948 390.635 C 320.93 390.617 317.793 391.804 317.793 391.804 L 319.313 394.169 L 319.362 397.376 L 325.468 401.269 C 325.468 401.269 336.373 409.19 336.373 409.173 C 336.373 409.156 346.826 412.224 346.826 412.24 C 346.826 412.256 356.536 421.019 356.536 421.019 L 367.805 423.792 L 375.095 424.788 L 379.516 409.087 C 379.516 409.087 385.766 398.11 385.766 398.089 C 385.766 398.068 387.019 393.548 387.019 393.548 L 367.656 388.068 L 343.266 376.215 C 343.266 376.215 332.159 366.676 332.06 366.578 C 331.961 366.48 318.664 348.882 318.664 348.836 C 318.664 348.79 301.63 326.525 301.63 326.525 L 297.778 310.164 L 301.028 296.031 L 303.635 279.132 L 302.534 267.254 C 302.534 267.254 292.799 261.591 292.799 261.546 C 292.799 261.501 283.574 247.369 283.528 247.324 C 283.482 247.279 272.318 237.996 272.318 237.996 C 272.318 237.996 241.598 217.612 241.598 217.654 C 241.598 217.696 229.629 214.098 229.629 214.098 L 223.495 206.455 Z"/>
  <path id="Gospic region" style="stroke: rgb(0, 0, 0); fill: rgba(178, 79, 79, 0.53);" d="M 329.453 209.268 C 329.453 209.268 330.595 228.06 330.659 228.06 C 330.723 228.06 331.13 237.234 331.13 237.234 L 315.227 233.741 L 307.042 233.339 C 307.042 233.339 307.116 242.419 307.181 242.419 C 307.246 242.419 311.907 252.741 311.907 252.741 L 317.339 268.125 L 322.524 267.152 L 329.886 264.407 L 332.538 257.232 L 342.753 257.964 L 351.195 279.27 C 351.195 279.27 354.873 287.125 354.938 287.19 C 355.003 287.255 365.818 297.281 365.89 297.425 C 365.962 297.569 381.694 298.944 381.694 298.944 L 386.194 305.182 L 385.513 307.937 L 382.17 307.937 L 380.29 311.053 L 377.232 312.5 L 378.507 314.686 C 378.507 314.686 382.653 316.569 382.67 316.585 C 382.687 316.601 389.434 326.999 389.45 327.015 C 389.466 327.031 396.861 326.438 396.861 326.438 L 399.746 324.359 L 400.504 326.681 L 400.504 328.539 L 405.456 330.595 L 406.576 331.591 L 406.544 335.527 L 412.61 338.726 C 412.61 338.726 417.251 342.2 417.234 342.183 C 417.217 342.166 417.146 346.31 417.146 346.31 L 413.132 351.018 L 412.145 351.736 L 412.76 355.261 L 418.449 354.663 L 421.54 353.739 L 423.67 355.856 C 423.67 355.856 424.99 363.489 424.99 363.505 C 424.99 363.521 427.587 367.454 427.587 367.482 C 427.587 367.51 427.47 374.475 427.47 374.475 L 426.852 378.094 L 435.574 381.104 L 434.932 383.914 L 432.618 388.485 L 432.78 397.058 L 433.815 404.343 L 419.092 401.967 L 405.671 399.278 C 405.671 399.278 391.901 395.909 391.901 395.881 C 391.901 395.853 385.976 393.817 385.976 393.817 L 366.351 387.34 L 342.87 375.615 L 331.756 366.942 L 302.171 326.769 L 297.852 310.176 C 297.852 310.176 301.076 295.88 301.048 295.88 C 301.02 295.88 303.725 279.651 303.725 279.651 L 302.538 267.396 L 292.218 260.554 L 283.81 247.719 L 272.492 237.597 L 251.391 223.972 L 241.3 217.086 C 241.3 217.086 229.852 213.88 229.823 213.88 C 229.794 213.88 219.89 202.47 219.89 202.47 L 231.671 203.061 C 231.671 203.061 237.778 197.704 237.805 197.704 C 237.832 197.704 244.327 193.789 244.327 193.789 L 244.974 186.464 L 247.858 181.803 L 252.162 178.724 L 252.024 173.519 L 258.473 175.163 L 258.473 183.236 L 261.242 188.147 L 265.067 188.655 L 265.58 194.556 L 270.825 196.645 L 273.467 199.786 L 278.294 201.04 L 278.169 207.024 L 282.208 208.818 L 284.864 205.181 L 290.45 204.75 L 290.384 198.454 L 292.397 197.379 L 300.024 203.007 L 302.641 204.713 L 306.148 202.437 L 310.582 207.888 L 317.496 213.199 L 323.624 213.98 L 329.453 209.268 Z"/>
  <path id="Knin region" style="stroke: rgb(0, 0, 0); fill: rgba(115, 184, 199, 0.525);" d="M 387.385 394.965 L 407.681 399.589 L 426.116 403.223 C 426.116 403.223 433.699 404.982 433.699 404.96 C 433.699 404.938 437.479 409.423 437.479 409.423 L 442.027 414.086 C 442.027 414.086 447.842 425.299 447.842 425.32 C 447.842 425.341 451.251 426.167 451.251 426.167 C 451.251 426.167 453.025 425.602 453.004 425.602 C 452.983 425.602 455.835 429.069 455.835 429.069 C 455.835 429.069 459.198 429.922 459.198 429.944 C 459.198 429.966 461.517 436.151 461.517 436.151 L 467.731 439.128 C 467.731 439.128 471.776 444.382 471.754 444.403 C 471.732 444.424 476.503 452.083 476.503 452.083 L 487.636 463.386 L 490.071 472.847 L 508.304 487.224 L 529.334 509.616 L 541.257 517.82 C 541.257 517.82 550.602 517.66 550.624 517.66 C 550.646 517.66 556.979 527.004 556.979 527.004 L 553.331 533.902 L 557.817 544.472 C 557.817 544.472 562.109 554.95 562.131 554.95 C 562.153 554.95 569.518 555.294 569.518 555.294 L 571.156 564.976 L 574.578 569.531 L 582.043 572.151 L 597.066 583.071 L 598.578 592.808 L 600.945 595.706 L 597.902 599.321 L 593.355 600.059 L 589.22 602.795 L 582.03 600.395 L 579.344 599.138 L 575.122 594.307 L 580.007 590.374 L 579.145 587.647 L 573.68 587.383 L 571.35 586.601 L 568.645 587.103 L 570.532 582.681 L 576.128 582.77 C 576.128 582.77 566.214 573.745 566.17 573.701 C 566.126 573.657 556.091 564.89 556.091 564.89 L 538.414 554.276 L 531.321 544.234 L 526.143 531.576 L 520.878 526.414 L 503.387 520.64 L 491.531 521.845 L 469.018 504.83 L 446.217 503.852 L 417.829 485.695 L 393.649 469.369 L 368.79 448.855 C 368.79 448.855 345.609 429.832 345.565 429.809 C 345.521 429.786 341.253 422.299 341.253 422.299 C 341.253 422.299 342.64 414.846 342.659 414.846 C 342.678 414.846 346.727 412.69 346.727 412.69 C 346.727 412.69 356.853 420.886 356.853 420.906 C 356.853 420.926 375.289 425.327 375.289 425.347 C 375.289 425.367 379.988 408.85 379.988 408.85 C 379.988 408.85 385.492 398.152 385.511 398.152 C 385.53 398.152 387.395 394.269 387.385 394.965 Z"/>
  <path id="Karlovac region" style="stroke: rgb(0, 0, 0); fill: rgba(179, 144, 129, 0.592);" d="M 339.744 161.632 C 339.744 161.632 346.737 165.256 346.786 165.256 C 346.835 165.256 352.448 170.511 352.448 170.561 C 352.448 170.611 358.527 175.081 358.527 175.081 L 365.778 174.639 C 365.778 174.639 371.42 178.085 371.42 178.136 C 371.42 178.187 377.993 184.236 377.993 184.236 C 377.993 184.236 391.583 181.092 391.632 181.092 C 391.681 181.092 400.992 186.279 401.043 186.33 C 401.094 186.381 410.304 192.283 410.355 192.334 C 410.406 192.385 415.797 200.285 415.797 200.285 L 421.452 206.044 L 430.252 206.044 C 430.252 206.044 444.248 202.949 444.308 202.949 C 444.368 202.949 455.256 203.743 455.256 203.743 C 455.256 203.743 464.042 203.681 464.104 203.743 C 464.166 203.805 473.515 210.152 473.515 210.152 C 473.515 210.152 487.578 221.128 487.64 221.19 C 487.702 221.252 502.072 233.754 502.072 233.754 L 508.057 241.725 C 508.057 241.725 506.218 243.699 506.201 243.699 C 506.184 243.699 503.841 244.662 503.841 244.662 C 503.841 244.662 499.729 251.194 499.713 251.194 C 499.697 251.194 494.786 252.271 494.786 252.271 L 492.117 250.972 L 487.491 251.53 C 487.491 251.53 484.6 248.864 484.584 248.864 C 484.568 248.864 480.543 248.531 480.543 248.531 C 480.543 248.531 476.627 246.175 476.611 246.175 C 476.595 246.175 472.71 248.719 472.71 248.719 L 468.484 247.798 C 468.484 247.798 461.794 253.179 461.794 253.195 C 461.794 253.211 459.316 260.842 459.316 260.842 C 459.316 260.842 452.694 263.755 452.694 263.74 C 452.694 263.725 451.705 270.301 451.705 270.317 C 451.705 270.333 449.758 272.734 449.758 272.749 C 449.758 272.764 447.857 281.571 447.841 281.571 C 447.825 281.571 441.579 278.81 441.579 278.81 C 441.579 278.81 438.582 278.801 438.547 278.783 C 438.512 278.765 429.285 270.317 429.285 270.301 C 429.285 270.285 428.014 268.076 428.014 268.076 L 424.381 266.63 L 421.532 260.707 C 421.532 260.707 419.867 255.629 419.849 255.593 C 419.831 255.557 412.922 253.254 412.922 253.238 C 412.922 253.222 413.218 246.777 413.218 246.777 L 392.454 247.314 L 385.337 252.647 L 385.968 255.573 L 388.585 259.135 C 388.585 259.135 386.935 267.818 386.935 267.838 C 386.935 267.858 382.888 271.076 382.888 271.076 L 382.557 275.262 L 386.02 282.697 L 381.105 295.37 L 381.785 299.219 L 365.602 297.39 L 355.159 286.838 L 342.738 257.969 L 331.922 257.166 L 330.059 264.408 C 330.059 264.408 322.747 267.263 322.747 267.283 C 322.747 267.303 317.578 268.099 317.557 268.099 C 317.536 268.099 310.546 249.828 310.546 249.828 L 306.974 241.906 L 307.235 233.369 C 307.235 233.369 314.709 233.473 314.709 233.494 C 314.709 233.515 331.498 237.129 331.498 237.129 L 329.62 210.815 L 337.407 209.486 L 337.407 206.585 L 342.6 205.215 C 342.6 205.215 342.556 203.455 342.556 203.434 C 342.556 203.413 336.223 198.656 336.223 198.656 L 332.162 191.999 L 333.769 187.525 L 333.981 182.72 L 339.357 180.266 C 339.357 180.266 344.83 181.274 344.851 181.274 C 344.872 181.274 344.958 178.368 344.958 178.368 L 340.724 177.248 L 341.071 173.82 L 338.967 169.968 L 335.797 173.507 L 331.435 174.176 L 331.066 170.132 L 328.046 168.655 L 331.3 164.523 L 336.915 163.036 L 339.744 161.632 Z"/>
  <path id="Zagreb region" style="stroke: rgb(0, 0, 0); fill: rgba(124, 172, 201, 0.58);" d="M 554.878 129.951 L 547.624 130.097 L 543.236 133.712 L 534.851 145.671 L 534.727 152.735 L 554.451 163.419 L 562.459 171.728 L 570.013 175.084 L 567.983 191.322 L 562.783 196.993 L 557.666 205.143 L 534.48 201.479 L 525.275 201.375 L 518.809 199.901 L 513.982 207.573 L 522.39 213.562 L 530.894 218.232 L 541.328 224.564 L 546.078 230.504 C 546.078 230.504 543.335 236.622 543.335 236.676 C 543.335 236.73 541.476 242.732 541.422 242.732 C 541.368 242.732 538.125 245.378 538.125 245.378 L 534.568 249.712 L 536.161 254.133 L 536.597 256.44 L 531.168 252.626 L 523.23 249.702 L 523.96 245.846 L 520.994 241.8 L 515.723 245.197 L 514.019 243.121 L 513.801 236.202 L 508.779 240.749 L 507.109 241.011 L 501.849 233.128 L 486.487 220.376 L 464.483 204.183 L 445.013 202.925 L 430.319 205.949 L 421.281 206.074 L 416.553 201.012 L 410.674 192.62 L 391.593 181.081 L 378.15 184.34 L 371.134 177.794 L 365.487 174.429 L 358.218 175.355 C 358.218 175.355 346.767 165.275 346.767 165.291 C 346.767 165.307 340.565 161.993 340.565 161.993 L 342.275 159.785 L 349.848 159.603 C 349.848 159.603 349.746 152.643 349.746 152.625 C 349.746 152.607 353.896 153.038 353.896 153.038 L 358.211 149.527 L 366.898 152.607 L 371.546 153.046 C 371.546 153.046 373.417 150.14 373.417 150.156 C 373.417 150.172 377.307 147.877 377.307 147.877 C 377.307 147.877 375.584 144.289 375.567 144.289 C 375.55 144.289 373.87 143.059 373.87 143.042 C 373.87 143.025 374.08 138.785 374.08 138.768 C 374.08 138.751 377.183 138.647 377.183 138.647 C 377.183 138.647 377.186 131.117 377.169 131.117 C 377.152 131.117 378.268 128.264 378.268 128.264 C 378.268 128.264 376.548 120.991 376.53 120.954 C 376.512 120.917 380.854 117.148 380.854 117.148 L 378.369 115.246 L 373.253 115.252 L 365.261 106.176 L 365.358 101.704 C 365.358 101.704 371.19 97.488 371.173 97.504 C 371.156 97.52 371.657 91.339 371.657 91.339 L 374.872 89.249 C 374.872 89.249 383.169 91.852 383.186 91.852 C 383.203 91.852 387.392 91.028 387.392 91.028 C 387.392 91.028 389.926 85.253 389.943 85.253 C 389.96 85.253 401.969 82.779 401.969 82.779 L 403.819 80.519 C 403.819 80.519 410.499 79.729 410.516 79.729 C 410.533 79.729 413.966 75.515 413.966 75.515 L 420.144 73.477 L 415.812 67.335 C 415.812 67.335 416.721 65.348 416.737 65.348 C 416.753 65.348 421.006 65.512 421.006 65.512 C 421.006 65.512 424.291 66.2 424.307 66.2 C 424.323 66.2 426.515 62.093 426.515 62.093 L 428.994 63.126 L 430.043 65.817 L 433.691 68.197 C 433.691 68.197 436.324 66.377 436.341 66.377 C 436.358 66.377 441.404 66.808 441.421 66.808 C 441.438 66.808 442.719 64.135 442.719 64.135 L 439.515 61.203 L 438.244 52.921 L 436.423 49.264 L 439.713 46.745 L 441.935 43.178 L 447.741 42.108 L 449.87 40.362 L 461.683 43.089 L 470.633 50.029 L 480.815 51.852 L 487.843 62.192 L 493.344 65.895 L 499.964 64.352 L 505.353 71.026 L 505.996 79.219 L 513.865 87.013 L 528.255 94.632 L 535.017 96.646 L 538.798 103.056 L 541.35 108.608 L 543.714 111.559 C 543.714 111.559 547.589 116.861 547.589 116.876 C 547.589 116.891 549.977 122.402 549.977 122.402 L 554.316 125.712 L 554.878 129.951 Z"/>
  <path id="Osijek region" style="stroke: rgb(0, 0, 0); fill: rgba(216, 216, 216, 0.424);" d="M 554.921 129.992 L 548.181 129.992 L 543.488 134.279 L 534.867 146.059 L 534.729 153.04 L 547.896 159.867 L 554.487 163.831 L 562.865 172.036 L 570.203 175.971 L 568.198 192.184 L 562.519 197.05 L 557.644 205.28 L 533.729 201.55 L 526.046 201.722 C 526.046 201.722 518.974 199.77 518.952 199.749 C 518.93 199.728 513.822 207.96 513.822 207.96 L 525.235 215.534 L 541.442 224.524 L 546.184 230.793 L 543.561 236.351 L 541.531 242.903 L 538.575 245.025 L 534.747 249.552 C 534.747 249.552 536.701 256.036 536.681 256.036 C 536.661 256.036 546.513 257.578 546.513 257.578 L 548.373 253.286 L 552.275 251.559 L 554.412 255.909 L 562.634 260.59 L 567.991 257.232 L 569.733 254.591 L 570.431 259.464 L 572.291 260.552 C 572.291 260.552 576.924 263.352 576.924 263.37 C 576.924 263.388 580.786 262.376 580.786 262.376 C 580.786 262.376 582.224 260.875 582.23 260.868 C 582.236 260.861 586.359 262.934 586.359 262.934 L 590.687 260.495 C 590.687 260.495 593.667 258.835 593.667 258.829 C 593.667 258.823 600.292 263.068 600.298 263.068 C 600.304 263.068 609.175 269.065 609.175 269.065 L 612.189 273.152 C 612.189 273.152 618.34 271.863 618.346 271.863 C 618.352 271.863 622.592 265.503 622.592 265.497 C 622.592 265.491 624.335 262.518 624.335 262.518 C 624.335 262.518 627.909 261.4 627.915 261.4 C 627.921 261.4 632.983 257.178 632.983 257.172 C 632.983 257.166 634.302 256.659 634.302 256.659 C 634.302 256.659 636.123 259.028 636.123 259.034 C 636.123 259.04 639.579 265.216 639.579 265.216 L 644.88 266.687 L 653.978 265.078 C 653.978 265.078 656.667 258.845 656.674 258.839 C 656.681 258.833 659.156 257.961 659.169 257.961 C 659.182 257.961 664.724 261.807 664.724 261.807 L 669.515 264.218 C 669.515 264.218 675.186 262.12 675.193 262.114 C 675.2 262.108 677.807 262.557 677.807 262.557 C 677.807 262.557 682.535 267.534 682.541 267.534 C 682.547 267.534 686.341 270.178 686.341 270.178 L 689.609 269.788 L 692.177 263.518 L 694.827 263.737 L 697.898 266.741 L 701.359 265.873 L 706.99 270.549 L 711.414 273.388 C 711.414 273.388 713.433 277.875 713.427 277.881 C 713.421 277.887 717.976 278.322 717.982 278.322 C 717.988 278.322 720.316 281.537 720.316 281.537 L 719.011 287.946 C 719.011 287.946 716.32 289.331 716.306 289.338 C 716.292 289.345 718.388 293.302 718.388 293.302 L 724.203 297.463 L 728.068 300.069 C 728.068 300.069 734.468 299.877 734.474 299.877 C 734.48 299.877 743.902 299.046 743.896 299.046 C 743.89 299.046 746.04 296.563 746.026 296.563 C 746.012 296.563 743.882 293.201 743.875 293.195 C 743.868 293.189 744.362 290.216 744.368 290.216 C 744.374 290.216 747.541 289.288 747.541 289.288 L 750.869 290.607 L 751.916 293.197 L 751.617 297.018 L 753.998 296.823 C 753.998 296.823 755.117 290.964 755.117 290.957 C 755.117 290.95 755.983 285.177 755.983 285.177 C 755.983 285.177 757.954 282.3 757.94 282.3 C 757.926 282.3 754.642 279.085 754.636 279.085 C 754.63 279.085 755.385 271.352 755.385 271.352 C 755.385 271.352 751.877 262.126 751.869 262.096 C 751.861 262.066 747.543 256.239 747.543 256.239 C 747.543 256.239 748.061 253.078 748.061 253.072 C 748.061 253.066 750.978 252.396 750.978 252.396 C 750.978 252.396 755.836 252.92 755.858 252.927 C 755.88 252.934 758.398 250.973 758.392 250.973 C 758.386 250.973 756.772 246.817 756.766 246.817 C 756.76 246.817 758.024 244.339 758.031 244.339 C 758.038 244.339 761.189 245.232 761.189 245.232 L 765.285 247.673 C 765.285 247.673 769.497 249.399 769.497 249.405 C 769.497 249.411 775.267 246.878 775.267 246.878 L 779.464 248.925 L 781.538 249.498 L 785.361 246.721 C 785.361 246.721 786.535 240.492 786.535 240.485 C 786.535 240.478 779.787 239.013 779.787 239.019 C 779.787 239.025 776.06 239.295 776.054 239.295 C 776.048 239.295 769.93 234.321 769.897 234.296 C 769.864 234.271 766.487 233.444 766.48 233.438 C 766.473 233.432 763.631 235.034 763.6 235.034 C 763.569 235.034 761.247 234.604 761.247 234.604 L 761.077 233.018 C 761.077 233.018 757.461 232.164 757.447 232.164 C 757.433 232.164 752.537 228.863 752.537 228.863 L 750.628 222.614 C 750.628 222.614 740.532 221.787 740.518 221.793 C 740.504 221.799 737.046 218.637 737.046 218.637 C 737.046 218.637 737.348 215.365 737.334 215.352 C 737.32 215.339 741.671 212.897 741.671 212.903 C 741.671 212.909 743.991 210.669 743.985 210.669 C 743.979 210.669 741.793 208.947 741.786 208.947 C 741.779 208.947 738.823 207.061 738.823 207.061 L 739.324 200.905 C 739.324 200.905 741.831 199.015 741.817 199.015 C 741.803 199.015 745.938 200.092 745.938 200.092 L 750.236 199.544 C 750.236 199.544 750.309 196.223 750.296 196.21 C 750.283 196.197 749.223 193.847 749.217 193.847 C 749.211 193.847 743.986 193.595 743.986 193.595 L 741.98 187.242 C 741.98 187.242 733.983 193.134 733.969 193.134 C 733.955 193.134 730.407 192.14 730.4 192.14 C 730.393 192.14 728.924 185.135 728.924 185.103 C 728.924 185.071 731.478 177.894 731.478 177.894 C 731.478 177.894 733.867 174.38 733.867 174.374 C 733.867 174.368 735.24 170.316 735.225 170.295 C 735.21 170.274 732.957 168.852 732.957 168.846 C 732.957 168.84 728.788 168.103 728.781 168.09 C 728.774 168.077 729.051 165.633 729.051 165.633 C 729.051 165.633 732.025 163.315 732.031 163.315 C 732.037 163.315 736.05 161.294 736.043 161.288 C 736.036 161.282 735.137 159.75 735.137 159.743 C 735.137 159.736 733.298 156.78 733.283 156.749 C 733.268 156.718 734.2 153.964 734.2 153.958 C 734.2 153.952 729.402 150.815 729.402 150.815 C 729.402 150.815 724.316 146.289 724.286 146.289 C 724.256 146.289 727.209 141.857 727.209 141.857 L 726.006 138.985 L 724.214 134.909 C 724.214 134.909 719.67 137.581 719.641 137.581 C 719.612 137.581 711.658 137.582 711.658 137.582 L 705.416 134.558 L 702.447 135.138 L 696.406 144.523 L 693.025 147.18 L 691.119 153.139 C 691.119 153.139 683.255 154.203 683.242 154.203 C 683.229 154.203 681.9 158.244 681.9 158.244 L 678.41 160.057 L 675.672 163.069 C 675.672 163.069 672.12 159.948 672.106 159.935 C 672.092 159.922 670.425 158.262 670.412 158.249 C 670.399 158.236 668.716 159.287 668.703 159.287 C 668.69 159.287 663.603 161.306 663.603 161.306 C 663.603 161.306 654.153 160.547 654.124 160.532 C 654.095 160.517 652.186 157.92 652.172 157.92 C 652.158 157.92 650.479 156.914 650.479 156.914 C 650.479 156.914 646.357 158.239 646.343 158.239 C 646.329 158.239 642.921 156.835 642.907 156.821 C 642.893 156.807 640.55 158.287 640.521 158.301 C 640.492 158.315 634.629 159.186 634.629 159.186 C 634.629 159.186 625.472 156.624 625.443 156.624 C 625.414 156.624 619.601 156.811 619.601 156.811 C 619.601 156.811 615.984 160.462 615.97 160.462 C 615.956 160.462 612.28 158.595 612.266 158.581 C 612.252 158.567 606.679 153.007 606.679 153.007 C 606.679 153.007 599.775 153.139 599.747 153.139 C 599.719 153.139 595.196 150.936 595.196 150.923 C 595.196 150.91 592.214 143.429 592.2 143.429 C 592.186 143.429 586.515 137.659 586.501 137.659 C 586.487 137.659 577.202 134.816 577.202 134.816 C 577.202 134.816 570.53 132.138 570.502 132.138 C 570.474 132.138 563.572 133.055 563.559 133.055 C 563.546 133.055 557.359 129.896 557.359 129.896 L 554.921 129.992 Z"/>

  <g transform="translate(0.000000,720.000000) scale(0.100000,-0.100000)" fill="#000000" stroke="none">
    <path d="M4471 6796 c-8 -9 -22 -16 -31 -16 -28 0 -50 -11 -50 -25 0 -7 -7 -18 -15 -25 -19 -16 -19 -44 0 -60 11 -9 14 -23 9 -46 -5 -26 -2 -34 15 -43 12 -7 21 -19 21 -27 0 -13 -8 -14 -39 -9 -25 4 -41 2 -46 -5 -8 -13 -35 5 -35 24 0 6 -9 17 -20 24 -17 10 -20 9 -26 -12 -7 -29 -31 -41 -50 -25 -18 15 -58 7 -62 -13 -2 -9 9 -28 24 -42 l28 -25 -39 -17 c-22 -9 -44 -22 -50 -30 -5 -8 -25 -15 -42 -17 -18 -2 -41 -11 -51 -20 -12 -11 -36 -17 -64 -17 -50 0 -78 -21 -78 -58 0 -17 -6 -22 -25 -22 -14 0 -25 5 -25 10 0 6 -22 10 -49 10 -55 0 -76 -17 -68 -52 4 -18 -2 -28 -26 -43 -47 -30 -46 -60 5 -129 41 -56 43 -57 80 -51 40 7 54 -9 18 -20 -23 -7 -27 -44 -8 -75 10 -15 9 -23 -7 -39 -15 -18 -16 -25 -7 -46 11 -23 9 -27 -12 -35 -19 -7 -23 -14 -19 -37 3 -15 15 -36 26 -45 21 -16 21 -16 -8 -24 -16 -4 -37 -16 -46 -27 -16 -21 -16 -20 -63 7 -48 28 -86 28 -86 0 0 -10 -8 -15 -22 -14 -46 4 -49 2 -42 -35 l6 -35 -45 0 c-29 0 -53 -7 -70 -20 -14 -11 -31 -20 -37 -20 -7 0 -25 -8 -41 -17 -34 -20 -39 -53 -8 -53 18 0 20 -4 15 -25 -5 -19 -2 -25 11 -26 41 -3 53 4 67 36 9 21 24 -19 16 -41 -8 -20 -6 -23 16 -26 40 -5 22 -23 -20 -20 -48 3 -80 -21 -71 -55 3 -12 0 -32 -7 -42 -19 -32 22 -106 67 -121 44 -14 47 -40 5 -40 -20 0 -30 -5 -30 -15 0 -11 -12 -15 -45 -15 -34 0 -47 -5 -55 -20 -24 -46 -124 -5 -165 67 -24 43 -40 51 -48 23 -6 -23 -37 -27 -37 -5 0 9 -12 20 -27 26 -16 6 -36 18 -46 27 -16 15 -19 14 -39 -6 -18 -17 -19 -24 -9 -36 18 -21 4 -39 -25 -32 -17 5 -26 2 -30 -9 -4 -8 -17 -15 -30 -15 -21 0 -23 4 -21 38 2 34 0 37 -26 40 -15 2 -31 12 -37 22 -5 10 -20 20 -32 22 -19 2 -23 9 -21 33 2 31 -10 45 -42 45 -29 0 -49 49 -35 85 12 32 8 38 -37 53 -39 13 -57 -3 -48 -41 6 -21 2 -26 -25 -35 -25 -9 -30 -15 -25 -32 5 -14 2 -20 -9 -20 -12 0 -16 -10 -16 -40 0 -36 -4 -42 -38 -59 -20 -11 -43 -29 -50 -40 -22 -38 -158 -22 -175 21 -4 9 -12 6 -25 -9 -14 -16 -31 -23 -56 -23 -20 0 -36 -4 -36 -9 0 -26 -35 -16 -84 24 -57 47 -90 56 -100 29 -9 -25 -7 -34 8 -34 24 0 30 -22 11 -37 -11 -7 -31 -13 -46 -13 -23 0 -28 -5 -31 -27 -4 -38 -35 -43 -48 -8 -9 24 -14 27 -41 21 -24 -4 -35 -1 -48 15 -20 25 -94 37 -116 19 -13 -10 -19 -10 -33 4 -10 9 -30 16 -43 16 -13 0 -41 9 -62 20 -46 25 -87 26 -87 4 0 -9 8 -23 17 -30 16 -11 16 -17 6 -45 -10 -26 -10 -35 0 -41 8 -5 12 -34 12 -85 l0 -78 45 -5 c34 -4 41 -7 30 -15 -27 -17 -37 -66 -22 -98 10 -20 11 -31 3 -41 -8 -9 -7 -27 1 -64 l13 -52 45 0 c25 0 55 -3 68 -6 41 -11 23 -25 -30 -24 -29 1 -59 1 -65 1 -19 -1 -16 -29 5 -40 13 -7 14 -13 5 -22 -16 -16 -5 -39 18 -39 11 0 19 -7 19 -17 0 -9 17 -33 38 -53 51 -51 79 -91 88 -125 6 -24 4 -27 -9 -22 -29 11 -37 -22 -12 -50 13 -14 31 -35 41 -46 11 -12 21 -30 24 -41 3 -11 19 -27 35 -36 19 -11 29 -24 27 -35 -2 -9 -1 -24 2 -32 10 -24 36 4 36 38 0 31 6 34 30 19 19 -12 31 7 23 38 -4 18 -1 24 15 29 26 6 35 40 14 53 -15 8 -14 9 5 10 24 0 53 34 53 62 0 10 5 18 10 18 6 0 16 11 22 25 10 22 9 28 -10 41 -25 17 -28 36 -9 52 9 8 20 -2 42 -39 20 -32 37 -49 50 -49 42 0 47 12 39 102 -6 81 -6 85 15 91 11 3 21 12 21 20 0 9 8 18 19 22 26 8 59 94 67 173 5 46 16 81 38 119 31 54 50 65 70 38 6 -9 28 -18 50 -22 21 -3 49 -17 62 -29 26 -27 81 -33 90 -10 10 25 36 6 30 -20 -5 -18 0 -30 19 -46 14 -12 25 -27 25 -34 0 -7 19 -30 42 -51 23 -21 59 -55 80 -76 21 -20 56 -44 78 -53 35 -14 41 -21 46 -55 4 -21 15 -49 25 -60 11 -12 19 -35 19 -51 0 -16 6 -41 14 -56 7 -15 12 -38 11 -52 -5 -39 -22 -99 -33 -113 -19 -23 -25 -97 -10 -115 10 -11 15 -43 16 -94 0 -53 6 -85 16 -100 9 -12 16 -29 16 -36 0 -7 20 -38 44 -67 24 -30 46 -58 48 -63 1 -4 17 -17 34 -29 17 -12 45 -49 62 -82 21 -39 54 -78 95 -112 34 -30 86 -76 114 -103 29 -28 72 -62 95 -78 24 -15 58 -39 77 -53 19 -14 44 -25 57 -25 17 0 22 -5 19 -19 -5 -29 76 -74 91 -50 7 12 54 12 54 0 0 -5 -7 -12 -16 -15 -13 -5 -15 -16 -9 -61 6 -52 5 -55 -15 -55 -19 0 -21 4 -17 26 3 16 0 28 -9 31 -8 3 -14 15 -14 28 0 31 -27 40 -42 15 -7 -11 -21 -20 -32 -20 -15 0 -17 5 -12 35 6 32 4 36 -21 47 -15 7 -34 18 -41 25 -7 7 -20 13 -28 13 -22 0 -64 30 -64 46 0 8 -11 19 -24 24 -13 5 -27 14 -31 19 -9 16 -45 13 -52 -4 -3 -9 2 -24 11 -34 9 -10 16 -28 16 -40 0 -19 -3 -18 -31 14 -22 25 -29 39 -22 46 12 12 -5 69 -20 69 -5 0 -3 7 4 16 12 15 11 19 -9 32 -12 8 -22 21 -22 28 0 8 -4 14 -9 14 -14 0 -91 81 -91 95 0 8 -8 27 -17 43 -16 28 -46 42 -90 42 -23 0 -11 -44 15 -55 15 -6 22 -18 21 -35 0 -23 -1 -24 -12 -6 -7 11 -27 36 -44 56 -40 45 -41 60 -8 60 24 0 25 1 12 32 -7 17 -22 36 -32 42 -11 6 -26 19 -33 29 -14 19 -47 23 -57 7 -6 -10 -65 54 -65 69 0 11 -91 83 -97 77 -4 -3 1 -14 10 -24 10 -10 17 -28 17 -39 0 -12 3 -23 8 -25 15 -7 122 -153 122 -168 0 -5 6 -7 14 -4 17 6 29 -45 14 -63 -11 -14 24 -53 48 -53 19 0 82 -65 95 -98 7 -18 16 -23 37 -22 15 1 36 2 47 1 17 -1 17 -3 5 -11 -9 -6 -15 -24 -15 -47 0 -38 0 -38 -42 -38 -52 0 -58 -6 -41 -42 15 -32 47 -42 60 -19 5 8 14 13 22 10 7 -3 24 7 39 21 26 27 51 27 40 0 -3 -9 1 -15 11 -15 9 0 13 -6 10 -15 -4 -8 1 -17 10 -21 19 -7 22 -38 4 -32 -7 3 -19 17 -26 31 -15 32 -32 34 -56 8 -15 -16 -15 -20 -1 -31 8 -6 21 -25 29 -42 13 -25 13 -30 0 -35 -19 -7 -18 -42 1 -49 8 -4 15 -12 15 -20 0 -8 6 -14 14 -14 8 0 37 -30 64 -67 57 -79 106 -133 120 -133 5 0 13 -12 17 -27 3 -16 18 -43 32 -61 49 -65 190 -190 243 -217 38 -19 90 -64 90 -77 0 -19 45 -68 62 -68 10 0 18 -4 18 -10 0 -5 -7 -10 -15 -10 -8 0 -15 -7 -15 -15 0 -19 -10 -19 -46 -1 -36 20 -53 8 -23 -15 27 -20 19 -26 -10 -7 -22 13 -55 4 -49 -15 3 -6 14 -13 26 -15 12 -2 22 -7 22 -11 0 -16 77 -32 104 -21 30 11 35 36 9 43 -16 3 -16 5 2 12 29 12 55 36 49 46 -3 5 2 6 10 3 11 -4 16 -19 16 -44 0 -37 23 -70 49 -70 10 0 11 10 7 35 -8 41 9 48 24 10 8 -21 14 -24 40 -19 19 4 30 2 30 -5 0 -6 -3 -10 -7 -10 -5 1 -14 1 -21 0 -18 -1 -9 -26 9 -26 7 0 15 -8 17 -19 3 -16 0 -18 -22 -12 -51 13 -61 -67 -11 -100 14 -9 25 -25 25 -35 0 -13 7 -19 23 -19 l22 0 -24 -19 c-16 -12 -22 -24 -18 -35 7 -19 38 -21 55 -4 9 9 12 8 12 -5 0 -9 7 -17 15 -17 9 0 18 -7 21 -15 8 -20 33 -19 41 0 5 14 7 14 23 0 15 -14 22 -14 42 -3 12 7 26 17 30 23 9 13 0 25 -16 19 -7 -3 -18 2 -25 9 -10 12 -3 14 43 13 49 -1 53 -3 40 -17 -21 -23 -7 -49 26 -49 25 0 29 4 32 32 2 23 9 34 23 37 17 3 18 1 6 -13 -12 -14 -11 -19 4 -36 22 -25 40 -25 57 -2 8 10 26 17 48 17 23 0 34 4 33 12 -2 7 5 13 15 13 10 0 28 7 40 16 12 8 22 11 22 6 0 -4 18 -18 40 -31 22 -12 44 -31 50 -41 5 -10 25 -23 44 -30 19 -6 40 -18 46 -26 7 -7 21 -14 30 -14 10 0 32 -12 49 -26 27 -22 42 -26 106 -28 41 -2 78 -6 82 -9 3 -4 13 -7 22 -7 9 0 36 -23 61 -52 25 -28 60 -67 78 -86 17 -19 32 -39 32 -46 0 -19 55 -76 73 -76 10 0 17 -7 17 -15 0 -9 8 -18 18 -22 9 -3 33 -18 52 -33 19 -15 52 -33 73 -40 21 -6 54 -27 74 -45 21 -19 40 -32 45 -29 4 3 14 -8 22 -23 27 -53 62 -86 84 -79 11 4 23 2 27 -4 3 -5 19 -10 36 -10 34 0 39 -17 7 -22 -17 -2 -24 -11 -26 -30 -2 -16 1 -28 7 -28 5 0 23 -14 40 -31 36 -35 101 -48 121 -24 7 8 22 15 35 15 46 0 70 57 40 96 -8 10 -15 35 -15 55 0 30 -5 38 -32 52 -18 10 -55 36 -83 58 -27 22 -69 49 -92 59 -48 21 -63 44 -63 93 0 32 -20 64 -32 52 -14 -15 -56 17 -75 57 -70 145 -74 164 -43 191 26 22 25 27 -7 70 -16 19 -33 43 -38 52 -10 16 -15 16 -47 6 -59 -19 -118 22 -278 193 -74 79 -142 147 -150 150 -21 8 -122 92 -132 109 -4 8 -11 32 -14 53 -5 31 -23 56 -90 126 -46 48 -84 94 -84 101 0 16 -84 97 -100 97 -5 0 -12 11 -16 25 -3 14 -13 25 -21 25 -7 0 -25 12 -38 26 -21 22 -27 25 -40 14 -13 -11 -19 -4 -39 43 -14 30 -46 76 -71 101 -49 48 -51 53 -61 172 -4 47 -1 64 11 74 18 15 20 51 3 68 -7 7 -23 12 -37 12 -25 0 -26 3 -28 61 -1 41 -7 67 -18 80 -10 10 -20 39 -23 64 -6 54 -20 63 -69 46 -53 -19 -65 0 -24 38 26 24 32 37 29 63 -2 25 -8 34 -25 36 -13 2 -23 10 -23 19 0 12 -7 14 -31 9 -30 -6 -30 -5 -24 25 8 37 -7 58 -38 52 -20 -4 -23 0 -22 24 0 23 -5 29 -27 31 -19 2 -28 -1 -28 -11 0 -8 -12 -17 -27 -20 -20 -4 -31 0 -42 16 -8 11 -22 28 -32 38 -9 9 -20 26 -23 37 -4 12 -17 22 -28 24 -29 4 -35 28 -9 35 12 3 21 9 21 13 0 5 10 10 23 12 32 4 34 40 3 72 -34 33 -33 72 1 143 l27 55 -22 39 c-28 49 -28 67 2 80 16 8 26 22 29 43 3 17 8 41 12 53 5 15 1 27 -15 43 -25 25 -19 37 35 70 29 18 47 20 121 18 l88 -3 1 -35 c0 -33 2 -35 38 -38 36 -3 37 -4 37 -42 0 -24 5 -40 15 -44 8 -3 15 -12 15 -21 0 -9 14 -21 30 -26 17 -6 30 -15 30 -19 0 -5 21 -29 48 -54 35 -34 55 -46 78 -46 17 0 37 -7 44 -15 11 -13 14 -13 26 2 7 10 14 35 14 55 0 23 6 40 16 46 10 6 16 22 16 45 0 32 3 37 23 37 44 0 55 10 55 51 0 31 5 42 28 56 15 9 32 23 39 31 8 10 16 11 31 3 14 -7 25 -6 41 5 20 15 24 14 40 0 10 -9 29 -16 44 -16 14 0 29 -5 33 -11 4 -7 21 -9 40 -6 20 3 34 2 34 -4 0 -6 17 -9 38 -7 33 3 39 8 56 46 11 23 24 41 30 39 6 -2 18 10 27 27 22 42 40 45 37 6 -4 -44 22 -62 52 -35 20 18 21 18 35 -1 8 -10 14 -28 12 -39 -2 -20 33 -45 67 -45 10 0 27 -12 38 -26 16 -19 26 -24 45 -19 13 3 40 0 59 -7 39 -14 54 -3 54 39 0 29 28 20 41 -13 5 -14 17 -24 28 -24 10 0 24 -7 31 -15 21 -25 66 -18 89 13 l20 27 1 -32 c0 -28 4 -33 25 -33 14 0 25 -4 25 -10 0 -16 46 -12 60 5 12 14 15 14 30 0 23 -21 43 -19 69 9 l23 24 36 -24 c21 -13 46 -32 57 -43 11 -10 29 -22 40 -25 11 -3 25 -16 30 -28 25 -57 134 -14 145 56 4 25 9 30 28 28 16 -2 27 5 40 27 21 39 46 36 50 -4 2 -21 13 -37 36 -53 29 -19 41 -22 90 -16 60 7 65 10 71 46 3 13 12 29 22 36 15 10 20 8 38 -15 12 -14 26 -23 32 -20 6 4 16 0 23 -8 16 -19 33 -19 70 0 28 14 29 14 50 -15 12 -17 27 -30 35 -30 7 0 15 -6 18 -14 7 -17 57 -27 62 -12 2 6 6 23 9 39 7 32 32 36 41 7 7 -21 39 -27 50 -10 3 6 21 -6 39 -25 18 -19 38 -35 44 -35 6 0 17 -12 24 -27 10 -21 22 -29 45 -31 17 -2 33 -9 36 -16 9 -23 -5 -64 -24 -69 -27 -7 -24 -33 8 -60 15 -12 38 -33 51 -47 22 -23 32 -25 119 -27 87 -3 97 -1 114 19 19 21 19 22 -1 40 -26 24 -16 50 19 46 23 -3 26 -7 24 -41 -2 -36 -1 -38 25 -35 25 3 27 6 30 58 2 40 9 62 25 79 13 14 18 25 11 28 -6 2 -19 10 -29 17 -15 11 -16 16 -5 35 15 29 -3 105 -32 137 -10 11 -15 23 -12 27 3 3 -3 12 -15 19 -44 27 -17 62 30 38 13 -8 25 -7 40 1 21 11 22 29 4 72 -11 25 29 23 46 -4 19 -28 93 -38 118 -15 16 15 19 15 31 1 20 -24 66 -19 89 11 21 27 28 69 13 78 -5 3 -35 8 -67 11 -47 5 -64 12 -86 36 -30 32 -40 35 -70 17 -17 -11 -22 -10 -33 5 -7 9 -24 17 -37 17 -30 0 -56 29 -61 67 -3 27 -5 28 -62 29 -49 1 -62 5 -74 22 -17 26 -10 39 27 47 44 9 53 65 11 65 -21 0 -34 31 -25 60 7 21 39 27 50 10 12 -20 52 -11 63 16 17 35 0 64 -38 64 -25 0 -29 4 -32 32 -4 43 -23 46 -57 9 -31 -34 -65 -40 -75 -15 -3 9 -6 34 -6 56 0 31 6 45 25 60 14 11 23 24 20 28 -3 5 0 18 6 28 18 29 4 52 -31 52 -44 0 -34 32 14 41 10 2 24 12 30 22 9 14 7 21 -7 32 -12 8 -14 15 -8 20 19 11 12 23 -41 61 -29 21 -55 40 -58 42 -3 2 3 8 13 13 18 11 24 49 6 49 -5 0 -7 5 -3 11 7 12 -14 59 -27 59 -5 0 -19 -11 -32 -24 -29 -29 -72 -27 -123 5 -32 20 -36 20 -59 5 -14 -9 -34 -34 -45 -56 -11 -22 -29 -44 -39 -50 -11 -5 -22 -23 -26 -39 -6 -27 -10 -30 -53 -33 -41 -3 -47 -6 -46 -25 0 -16 -5 -23 -18 -23 -11 0 -23 -11 -29 -27 l-10 -28 -21 28 c-23 31 -53 35 -67 8 -15 -28 -107 -17 -144 17 -20 19 -30 23 -38 15 -6 -6 -26 -9 -44 -6 -19 3 -35 0 -39 -6 -9 -13 -78 -15 -92 -2 -5 5 -32 12 -59 16 -44 5 -53 3 -69 -14 -23 -26 -53 -27 -60 -3 -9 27 -68 54 -122 56 -47 1 -48 2 -57 39 -6 26 -26 54 -61 88 -43 41 -57 49 -89 49 -21 0 -49 7 -62 16 -17 11 -36 14 -58 10 -47 -9 -123 25 -131 59 -4 14 -17 32 -31 41 -14 9 -25 24 -25 34 0 10 -11 25 -25 34 -15 10 -25 26 -25 40 0 14 -10 30 -25 40 -15 10 -25 26 -25 40 0 38 -37 75 -81 82 -21 4 -44 13 -50 20 -6 8 -17 14 -24 14 -49 0 -181 116 -170 151 7 20 -26 99 -49 119 -14 11 -22 11 -37 2 -10 -7 -27 -12 -37 -12 -22 0 -87 66 -101 102 -15 41 -56 64 -91 51 -24 -9 -31 -7 -61 22 -50 46 -82 65 -120 70 -19 2 -46 7 -60 10 -17 5 -29 1 -38 -9z m107 -23 c34 -4 52 -15 85 -50 39 -41 45 -44 80 -39 50 8 72 -5 95 -58 30 -67 98 -107 137 -82 18 12 25 13 33 3 22 -28 42 -78 42 -108 0 -49 58 -106 159 -156 47 -24 92 -43 101 -43 30 0 60 -30 60 -60 0 -19 9 -35 25 -48 14 -11 25 -30 25 -42 0 -12 14 -34 30 -48 17 -15 30 -35 30 -44 0 -10 11 -23 25 -28 14 -5 25 -17 25 -26 0 -23 29 -54 50 -54 9 0 25 -7 36 -15 13 -9 32 -12 56 -8 26 4 45 0 62 -11 14 -9 42 -16 63 -16 25 -1 47 -8 63 -23 42 -37 70 -78 70 -103 0 -39 26 -55 79 -48 45 6 48 4 88 -35 46 -46 62 -50 89 -20 16 17 25 19 69 14 27 -4 54 -11 59 -16 16 -15 75 -10 102 8 22 14 27 14 35 2 7 -12 12 -12 31 0 20 12 24 11 41 -10 14 -17 33 -25 80 -30 55 -7 64 -6 76 11 17 26 38 25 46 0 3 -11 15 -20 26 -20 10 0 24 9 31 20 7 11 21 20 30 20 12 0 18 8 18 24 0 23 5 25 48 28 43 3 47 5 50 30 2 15 14 36 26 46 13 10 33 37 45 60 12 24 28 45 35 48 8 3 31 -4 52 -15 45 -25 106 -27 124 -6 19 23 40 18 40 -9 0 -14 4 -27 10 -31 5 -3 0 -15 -12 -27 l-21 -21 22 -16 c12 -9 34 -26 48 -38 14 -13 31 -23 37 -23 6 0 5 -4 -3 -9 -12 -8 -12 -13 2 -35 22 -32 21 -36 -2 -36 -22 0 -64 -47 -55 -61 3 -5 18 -9 34 -9 35 0 45 -13 24 -30 -8 -7 -12 -20 -9 -28 3 -8 -6 -22 -20 -34 -20 -15 -25 -28 -25 -63 0 -98 41 -123 103 -64 l32 31 3 -31 c3 -31 7 -34 52 -35 16 -1 26 -8 28 -20 7 -32 -13 -41 -58 -26 -50 17 -60 7 -60 -57 0 -37 3 -43 25 -49 29 -7 28 -27 -1 -33 -45 -8 -58 -49 -27 -83 12 -13 30 -18 70 -18 49 0 53 -2 53 -23 0 -29 49 -77 78 -77 13 0 25 -7 28 -15 7 -18 28 -19 54 -3 17 11 24 8 53 -20 29 -28 39 -32 90 -32 54 0 57 -1 57 -25 0 -24 -31 -65 -48 -65 -5 0 -19 9 -32 20 -13 11 -24 20 -25 20 -1 0 -12 -9 -25 -20 -30 -26 -46 -25 -85 4 -45 35 -79 38 -83 7 -2 -13 1 -28 7 -34 20 -20 -7 -35 -54 -29 -44 4 -45 4 -45 -23 0 -15 13 -43 29 -64 40 -50 57 -110 43 -150 -10 -27 -8 -34 11 -52 20 -19 21 -21 5 -30 -14 -8 -18 -23 -18 -64 0 -30 -5 -57 -11 -61 -7 -4 -9 0 -5 14 15 45 -33 84 -74 62 -22 -12 -27 -49 -9 -67 24 -24 -3 -33 -96 -33 -80 0 -94 2 -99 18 -3 9 -22 28 -41 41 -37 25 -45 41 -20 41 9 0 15 9 15 24 0 14 4 27 10 31 20 12 -12 53 -48 62 -27 6 -38 15 -42 33 -4 16 -14 26 -28 28 -12 2 -22 10 -22 18 0 8 -8 18 -17 21 -10 4 -24 14 -31 22 -11 14 -14 14 -25 -1 -11 -16 -13 -15 -34 10 -18 22 -25 25 -40 16 -10 -6 -22 -25 -27 -43 -10 -36 -17 -38 -41 -11 -10 11 -23 20 -30 20 -6 0 -21 14 -34 31 -22 29 -24 30 -46 15 -28 -18 -61 -21 -70 -6 -3 6 -14 10 -23 10 -10 0 -23 9 -30 20 -7 11 -20 20 -29 20 -22 0 -53 -29 -53 -50 0 -26 -21 -39 -66 -41 -49 -3 -87 22 -100 66 -12 42 -58 48 -76 11 -7 -16 -19 -26 -33 -26 -26 0 -45 -18 -45 -43 0 -31 -41 -67 -77 -67 -26 0 -33 4 -33 19 0 12 -9 21 -25 25 -14 4 -35 18 -47 31 -12 14 -27 25 -34 25 -7 0 -25 11 -40 25 l-27 25 -27 -25 c-31 -29 -47 -31 -72 -8 -17 15 -20 15 -39 -6 -19 -20 -22 -21 -38 -7 -10 9 -25 16 -34 16 -11 0 -17 8 -17 25 0 18 -5 25 -18 25 -11 0 -24 -11 -30 -25 -13 -28 -30 -31 -58 -10 -10 8 -26 15 -34 15 -8 0 -21 14 -29 31 -11 24 -18 30 -40 27 -20 -2 -27 -9 -29 -32 -3 -26 -6 -28 -35 -21 -18 4 -44 7 -59 6 -18 -1 -31 6 -38 19 -6 12 -29 25 -56 31 -37 10 -44 15 -39 30 6 19 -22 68 -39 69 -5 0 -17 -7 -27 -16 -24 -22 -37 -11 -36 31 1 19 -2 38 -6 42 -9 8 -67 -50 -67 -66 0 -6 -7 -11 -15 -11 -8 0 -24 -18 -35 -40 -24 -48 -44 -58 -68 -37 -11 9 -29 13 -48 10 -18 -3 -35 0 -38 6 -4 6 -19 11 -33 11 -15 0 -35 7 -44 16 -17 15 -21 15 -42 1 -16 -11 -28 -12 -41 -5 -22 12 -46 3 -46 -17 0 -8 -6 -15 -13 -15 -29 0 -49 -27 -51 -65 -1 -41 -2 -42 -74 -61 -9 -3 -12 -13 -7 -32 4 -21 1 -33 -15 -47 -13 -12 -20 -31 -20 -57 0 -36 -12 -50 -25 -28 -3 6 -21 10 -38 10 -27 0 -42 10 -82 55 -28 30 -58 55 -67 55 -11 0 -18 8 -18 18 0 9 -9 23 -20 30 -14 8 -20 23 -20 46 0 34 -13 46 -50 46 -14 0 -20 9 -22 38 l-3 37 -109 -3 c-80 -3 -113 -8 -124 -19 -8 -8 -25 -21 -38 -30 -29 -19 -31 -44 -4 -61 30 -18 18 -89 -21 -120 -29 -24 -39 -65 -18 -77 26 -17 30 -57 8 -101 -11 -25 -23 -62 -26 -83 -4 -32 0 -43 26 -73 36 -41 38 -48 12 -48 -10 0 -24 -7 -31 -15 -6 -8 -17 -13 -23 -12 -7 1 -13 -10 -15 -25 -3 -22 2 -30 22 -38 14 -5 26 -15 26 -22 0 -7 16 -30 35 -52 19 -21 35 -42 35 -47 0 -17 63 -2 79 19 21 29 49 15 32 -16 -13 -25 -2 -35 37 -30 20 2 26 -1 23 -12 -11 -43 -6 -55 24 -55 20 -1 30 -6 30 -15 0 -9 11 -16 26 -18 22 -3 26 -7 21 -25 -3 -12 -16 -32 -29 -45 -42 -39 -10 -104 37 -74 11 6 29 12 40 12 17 0 20 -7 20 -41 0 -25 7 -50 19 -66 11 -13 18 -30 15 -38 -3 -7 -1 -22 4 -32 7 -13 6 -24 -4 -37 -17 -23 -10 -36 19 -36 13 0 33 -7 46 -16 l22 -16 -20 -22 c-17 -18 -20 -31 -16 -86 9 -122 13 -135 69 -188 29 -28 57 -65 65 -88 18 -51 40 -77 56 -64 8 7 17 4 30 -10 10 -11 24 -20 32 -20 7 0 18 -11 23 -25 5 -13 22 -31 37 -39 35 -18 66 -51 87 -94 9 -18 48 -64 86 -102 60 -59 72 -76 81 -119 10 -46 17 -56 77 -103 37 -29 137 -123 222 -209 174 -176 214 -204 275 -196 37 5 42 3 73 -33 17 -21 32 -41 32 -45 0 -3 -9 -19 -21 -34 l-21 -29 27 -68 c59 -150 69 -164 120 -164 26 0 35 -17 35 -65 0 -25 8 -40 31 -59 17 -14 36 -26 42 -27 7 0 37 -18 67 -39 30 -22 70 -50 87 -62 25 -18 33 -30 33 -54 0 -17 9 -43 20 -57 11 -14 20 -30 20 -35 0 -15 -26 -33 -56 -38 -16 -3 -31 -9 -34 -14 -3 -4 -22 -8 -42 -7 -27 1 -40 6 -44 19 -3 10 -11 18 -18 18 -7 0 -21 9 -31 20 -17 19 -17 20 9 31 14 7 26 20 26 30 0 18 -33 35 -49 25 -5 -3 -12 1 -15 10 -4 11 -14 14 -34 10 -25 -6 -30 -2 -61 49 -18 30 -40 55 -48 55 -8 0 -31 13 -51 29 -20 16 -48 32 -62 36 -24 7 -79 41 -90 56 -3 3 -15 9 -27 13 -13 4 -23 14 -23 22 0 8 -4 14 -8 14 -14 0 -82 65 -82 78 0 12 -17 32 -102 123 -21 22 -38 44 -38 49 0 6 -8 10 -18 10 -10 0 -23 5 -29 11 -6 6 -46 11 -89 11 -72 1 -82 4 -114 29 -19 16 -41 29 -48 29 -8 0 -25 9 -39 20 -14 11 -33 20 -43 20 -9 0 -22 11 -28 25 -6 14 -17 25 -23 25 -7 0 -27 11 -45 25 -31 24 -36 25 -75 13 -24 -8 -44 -20 -47 -31 -3 -14 -11 -16 -37 -11 -25 4 -35 2 -43 -12 -7 -12 -15 -15 -28 -10 -18 7 -17 9 4 17 29 11 28 21 -5 37 -46 21 -63 11 -63 -39 0 -12 -7 -19 -20 -19 -11 0 -20 5 -20 10 0 6 5 10 10 10 6 0 10 11 10 25 0 18 -5 25 -19 25 -11 0 -22 -4 -25 -9 -3 -5 -24 -7 -47 -4 -36 5 -41 4 -37 -13 2 -10 14 -24 26 -30 l23 -11 -22 -6 c-13 -4 -29 -1 -37 5 -10 9 -18 9 -33 0 -11 -7 -19 -8 -19 -2 0 5 -5 10 -11 10 -7 0 -17 8 -24 17 -11 15 -17 15 -39 5 -22 -10 -26 -9 -26 3 0 8 6 15 14 15 23 0 27 29 6 42 -11 7 -20 18 -20 24 0 6 -11 17 -25 24 -26 14 -42 51 -30 69 3 6 17 11 31 11 29 0 42 24 24 45 -9 10 -9 15 -1 15 6 0 11 7 11 15 0 17 -36 39 -55 32 -7 -3 -18 6 -24 19 -8 18 -18 24 -34 22 -19 -3 -21 -8 -19 -37 3 -31 2 -33 -12 -22 -12 10 -15 23 -10 46 5 28 2 35 -26 55 -22 16 -40 21 -59 17 -22 -5 -34 0 -55 22 -14 15 -26 33 -26 40 0 16 -32 43 -90 78 -97 58 -229 187 -265 260 -14 29 -30 53 -35 53 -16 0 -70 63 -102 118 -17 29 -40 58 -52 64 -11 6 -31 21 -43 34 -18 20 -19 25 -7 35 19 15 18 27 -7 73 -22 42 -18 63 7 28 33 -48 91 -51 73 -4 -5 12 -14 22 -21 22 -9 0 -9 3 1 13 10 10 19 4 47 -28 28 -33 36 -37 44 -25 15 23 12 67 -5 74 -17 6 -21 36 -5 36 6 0 13 -6 16 -14 3 -8 16 -17 30 -20 14 -4 24 -14 24 -24 0 -17 50 -52 75 -52 8 0 18 -6 22 -14 4 -8 17 -16 28 -18 16 -3 19 -10 17 -40 -2 -20 1 -39 6 -42 17 -10 71 6 75 23 3 13 5 13 11 -4 4 -11 12 -28 17 -37 5 -10 9 -26 9 -37 0 -25 36 -37 56 -20 12 10 14 23 9 57 -5 32 -3 48 9 61 9 10 12 22 7 29 -8 14 -61 19 -79 9 -11 -8 -65 17 -56 26 3 3 3 15 -1 26 -4 15 -15 21 -35 21 -16 0 -41 10 -57 23 -15 12 -41 29 -57 37 -16 8 -59 43 -95 77 -36 34 -92 83 -123 108 -34 28 -70 69 -89 103 -17 31 -56 81 -85 110 -30 29 -61 66 -69 82 -9 17 -20 30 -25 30 -6 0 -10 8 -10 18 0 10 -7 28 -17 41 -11 17 -16 47 -17 101 -1 49 -6 83 -15 94 -15 17 -9 90 10 112 15 19 37 114 31 138 -3 11 -11 30 -19 41 -7 11 -13 33 -13 50 0 17 -8 41 -17 55 -9 13 -19 40 -22 59 -5 30 -13 39 -47 56 -49 24 -194 152 -194 171 0 8 -11 24 -24 35 -14 12 -22 27 -19 34 13 35 -44 75 -63 44 -10 -16 -65 -2 -81 21 -9 13 -26 20 -47 20 -20 0 -40 8 -51 20 -31 34 -56 21 -96 -47 -27 -48 -38 -79 -42 -126 -8 -83 -33 -146 -63 -158 -14 -5 -24 -17 -24 -28 0 -11 -9 -21 -21 -24 -23 -6 -23 -9 -3 -133 5 -35 3 -42 -14 -46 -19 -5 -60 35 -75 75 -5 12 -15 17 -29 15 -31 -4 -38 -63 -11 -83 17 -13 17 -14 -3 -37 -12 -13 -24 -35 -28 -50 -4 -19 -13 -28 -27 -28 -24 0 -35 -25 -19 -44 9 -12 7 -17 -9 -26 -14 -7 -21 -21 -21 -41 0 -26 -2 -29 -19 -19 -16 8 -22 6 -30 -7 -9 -16 -11 -16 -28 -2 -10 9 -26 19 -35 22 -11 4 -18 17 -18 32 0 14 -6 25 -13 25 -17 0 -50 67 -37 75 19 12 10 70 -15 99 -14 16 -25 35 -25 41 0 7 -16 23 -35 36 -19 13 -35 32 -35 42 0 10 -11 22 -24 27 -19 7 -23 14 -19 31 4 15 0 26 -12 35 -17 12 -11 14 47 14 71 0 91 12 64 38 -10 11 -34 16 -71 16 -52 1 -55 2 -61 31 -3 17 -11 35 -16 42 -6 7 -5 14 2 18 13 8 13 58 -1 72 -11 11 -1 37 30 75 16 20 9 25 -43 30 -31 3 -61 37 -39 45 14 5 7 84 -9 116 -6 12 -5 23 2 33 16 18 4 62 -18 66 -9 2 -12 6 -7 10 6 3 28 -3 50 -14 22 -11 55 -21 73 -23 19 -2 40 -12 47 -22 12 -15 17 -16 34 -5 35 21 89 15 114 -12 16 -18 30 -23 49 -19 20 4 28 0 33 -16 10 -32 62 -29 75 4 10 26 15 29 61 39 35 8 42 29 19 59 -33 42 -10 38 49 -9 54 -42 93 -55 106 -34 3 6 18 10 33 10 15 0 37 7 50 15 19 14 24 14 44 1 32 -21 117 -30 151 -17 16 6 31 20 34 31 3 11 11 20 18 20 26 0 65 41 65 70 0 15 7 33 15 40 9 7 14 19 11 27 -3 7 7 19 25 29 26 13 29 19 24 45 -7 30 -3 33 30 20 16 -6 19 -16 17 -49 -4 -51 20 -92 55 -92 19 0 24 -4 19 -16 -10 -25 3 -54 24 -54 10 0 25 -9 32 -19 8 -10 25 -21 38 -23 21 -2 26 -10 30 -43 4 -34 9 -40 31 -43 14 -2 31 4 39 12 7 9 25 16 40 16 32 0 45 22 30 50 -6 12 -6 21 -1 25 11 6 82 -39 94 -61 10 -18 32 -18 51 2 14 14 17 12 32 -18 16 -35 97 -88 134 -88 11 0 29 9 40 20 13 13 33 20 60 20 21 0 43 6 47 13 4 7 22 17 38 22 40 14 39 43 -3 65 -57 31 -92 96 -61 115 6 4 7 19 4 35 -5 23 -2 31 15 40 16 9 25 8 36 0 23 -20 64 -4 64 25 0 20 -5 25 -26 25 -21 0 -24 4 -19 20 7 22 -10 60 -28 60 -7 0 -17 -10 -22 -22 -15 -33 -45 -36 -45 -5 0 14 -7 28 -16 31 -13 5 -14 9 -4 21 7 8 20 15 29 15 9 0 32 10 51 22 19 12 55 24 80 27 43 6 45 8 44 37 -1 27 1 31 18 26 14 -3 26 3 38 18 18 23 21 23 70 -5 32 -19 77 -19 87 -1 4 8 17 15 27 17 10 2 24 12 30 22 9 16 7 22 -11 34 -29 19 -30 50 -2 58 18 6 20 12 15 45 -3 22 -2 41 4 45 14 9 13 41 -2 65 -11 18 -9 23 17 44 26 21 28 26 16 40 -10 12 -23 15 -46 10 -29 -5 -36 -1 -69 39 -46 56 -48 90 -5 113 26 13 30 20 27 45 -7 46 14 57 73 35 61 -21 86 -14 97 27 8 30 11 32 66 37 39 4 62 11 71 23 7 10 26 17 47 17 27 0 40 6 52 25 9 14 23 25 30 25 8 0 24 8 37 19 l23 18 -27 25 c-15 14 -27 28 -27 31 0 4 20 4 44 1 39 -6 45 -4 56 17 l13 23 14 -27 c14 -28 55 -37 69 -16 4 8 9 8 17 0 16 -16 42 -14 57 4 11 13 9 21 -9 46 -14 19 -20 37 -16 49 4 13 -1 30 -15 47 -18 23 -19 29 -7 38 7 5 19 20 26 33 8 15 21 22 41 22 17 0 30 5 30 11 0 7 10 9 28 5 15 -4 46 -9 70 -13z m-1808 -2958 c28 -36 55 -63 60 -60 4 3 10 -4 13 -14 8 -34 -20 -32 -42 2 -11 18 -39 56 -61 85 -22 28 -36 52 -31 52 5 0 33 -29 61 -65z m107 -49 c4 -7 18 -18 31 -25 34 -18 27 -38 -15 -44 -46 -5 -60 1 -37 17 16 12 16 14 -1 39 -15 24 -15 27 -2 27 9 0 20 -6 24 -14z m98 -211 l30 -40 5 40 c5 34 2 43 -20 62 -30 25 -22 40 11 21 31 -17 48 -39 49 -61 0 -10 23 -41 51 -70 43 -44 54 -63 58 -109 1 -4 10 -10 22 -13 15 -5 17 -10 9 -20 -8 -10 -7 -14 2 -18 10 -3 10 -7 1 -17 -9 -10 -15 -9 -28 4 -22 21 -44 20 -75 -4 -14 -11 -33 -20 -42 -20 -10 0 -18 -7 -18 -16 0 -19 -16 -10 -31 18 -11 20 -9 21 24 15 48 -8 71 10 65 51 -2 18 -1 32 3 32 20 0 15 30 -8 46 -22 14 -30 14 -46 4 -21 -12 -37 -1 -37 28 0 6 -4 12 -10 12 -5 0 -17 14 -25 30 -10 20 -26 33 -45 36 -16 4 -36 14 -45 24 -15 16 -14 18 1 24 13 5 14 9 4 21 -6 8 -9 19 -5 24 6 10 47 -32 100 -104z m853 -1157 c-3 -7 -13 -15 -24 -17 -16 -3 -17 -1 -5 13 16 19 34 21 29 4z m-101 -41 c5 13 43 5 60 -13 10 -9 8 -13 -8 -17 -23 -6 -119 21 -119 34 0 4 14 3 32 -3 22 -8 33 -8 35 -1z"/>
    <path d="M2465 4781 c-3 -11 -3 -31 1 -45 4 -16 1 -32 -7 -42 -7 -9 -12 -31 -11 -49 3 -38 -12 -53 -33 -35 -23 19 -45 4 -45 -29 0 -22 -4 -29 -14 -25 -8 3 -17 1 -21 -5 -9 -16 4 -51 19 -51 7 0 21 -9 31 -20 10 -11 27 -20 37 -20 11 0 28 -10 37 -22 19 -22 59 -19 45 4 -5 8 -2 9 10 5 13 -5 19 -1 23 13 3 11 9 17 14 14 12 -7 11 -64 -1 -64 -5 0 -10 -9 -10 -20 0 -11 5 -20 11 -20 6 0 17 -7 26 -15 8 -8 19 -13 23 -10 5 3 14 -4 20 -15 6 -12 21 -20 36 -20 38 0 63 -17 57 -39 -3 -13 5 -25 31 -41 68 -41 93 5 30 56 -19 16 -40 37 -46 47 -8 16 -7 18 12 12 23 -7 50 9 50 30 0 8 -19 33 -42 56 -29 29 -42 50 -40 65 3 20 -2 23 -34 26 -21 2 -40 10 -44 18 -4 8 -12 25 -19 38 -10 19 -9 22 10 22 38 0 18 34 -28 45 -57 14 -68 29 -15 20 56 -9 57 12 2 49 -24 16 -40 34 -40 46 0 36 -64 54 -75 21z m63 -34 c2 -18 13 -32 32 -42 16 -8 32 -21 36 -27 6 -10 4 -11 -7 0 -17 16 -44 15 -58 -2 -15 -18 2 -32 52 -41 39 -8 51 -25 17 -25 -24 0 -26 -13 -5 -30 9 -7 13 -21 10 -31 -8 -24 31 -50 63 -42 22 5 24 3 19 -17 -4 -17 1 -30 19 -47 14 -13 28 -23 31 -23 9 0 32 -34 33 -48 0 -10 -8 -12 -27 -8 -16 3 -35 2 -43 -4 -13 -8 -12 -11 5 -24 11 -8 16 -18 11 -23 -5 -4 -11 -2 -13 5 -3 6 -20 12 -39 12 -21 0 -33 4 -29 10 3 6 -2 13 -12 16 -65 22 -72 28 -58 44 17 19 15 69 -2 88 -15 15 -33 7 -33 -14 0 -9 -5 -12 -12 -8 -6 4 -17 -1 -25 -11 -12 -18 -14 -18 -25 -2 -7 9 -24 18 -37 20 -14 2 -27 9 -29 16 -2 7 -15 16 -28 21 -28 11 -32 28 -7 26 17 -1 19 3 22 45 1 16 4 19 14 12 16 -13 48 -8 58 9 5 7 6 27 3 44 -3 18 -1 35 5 38 6 4 11 27 11 52 0 41 2 45 23 42 16 -2 23 -11 25 -31z m267 -515 c-2 -2 -18 2 -34 9 -23 10 -31 21 -31 38 0 25 0 25 35 -9 19 -18 33 -36 30 -38z"/>
    <path d="M2196 4653 c-36 -53 -33 -77 19 -137 32 -38 45 -62 45 -83 0 -17 10 -43 22 -58 19 -25 20 -28 5 -37 -13 -7 -15 -14 -7 -28 7 -13 6 -19 -6 -24 -21 -8 -33 1 -45 31 -11 29 -22 24 -43 -19 -20 -40 -21 -38 10 -71 19 -21 24 -34 19 -55 -4 -22 0 -33 20 -52 15 -14 25 -35 25 -51 0 -14 7 -32 15 -39 8 -7 12 -17 8 -24 -4 -6 -6 -19 -5 -28 3 -13 -3 -17 -20 -15 -20 2 -23 -3 -26 -37 -3 -40 21 -101 44 -110 20 -8 37 21 32 54 -3 16 -3 30 -2 30 1 0 14 -20 28 -44 14 -24 37 -51 51 -60 25 -17 28 -17 46 0 27 24 16 76 -28 133 -36 48 -38 53 -23 82 8 13 7 25 -1 40 -8 16 -8 27 1 45 9 16 10 27 3 36 -29 36 -22 173 10 205 12 12 18 12 34 2 26 -16 53 -5 53 21 0 25 -35 40 -90 40 -42 0 -70 26 -70 65 0 11 -7 29 -15 39 -8 11 -15 31 -15 44 0 13 -5 32 -11 43 -8 16 -7 25 6 39 27 30 15 55 -27 58 -33 3 -39 -1 -62 -35z m79 16 c4 -5 0 -18 -9 -28 -20 -22 -20 -45 -1 -61 8 -7 15 -27 15 -46 0 -18 5 -36 10 -39 6 -3 10 -17 10 -30 0 -13 12 -37 26 -54 22 -26 33 -31 72 -31 48 0 82 -13 69 -26 -4 -4 -18 -2 -33 4 -31 15 -62 1 -68 -31 -3 -12 -8 -35 -11 -52 -10 -44 -6 -127 7 -142 8 -10 8 -20 -2 -38 -11 -20 -11 -27 0 -40 10 -12 10 -21 0 -45 -10 -25 -10 -34 4 -55 9 -14 13 -25 10 -25 -4 0 6 -12 21 -26 28 -26 44 -88 25 -99 -20 -12 -84 56 -85 89 0 5 -8 14 -17 20 -25 16 -44 -5 -29 -32 6 -11 8 -28 5 -37 -11 -27 -53 32 -54 73 0 31 1 32 22 21 18 -9 24 -8 34 5 16 23 10 87 -10 101 -9 7 -16 23 -16 37 0 14 -9 33 -20 43 -14 12 -20 31 -20 57 0 27 -6 45 -20 56 -14 12 -17 25 -13 45 5 28 23 38 23 13 0 -16 21 -26 56 -26 20 0 24 5 24 30 0 17 5 30 10 30 16 0 11 23 -10 50 -11 14 -20 40 -20 59 0 25 -11 45 -45 83 -52 58 -56 84 -19 127 26 32 48 39 59 20z"/>
    <path d="M2667 4218 c-2 -7 -1 -20 4 -29 6 -13 3 -15 -22 -11 -31 5 -38 -8 -14 -28 8 -7 15 -18 15 -26 0 -7 8 -18 18 -24 13 -9 10 -10 -20 -5 -44 7 -56 -7 -28 -35 11 -11 20 -24 20 -30 0 -15 27 -12 44 5 14 14 17 13 30 -13 8 -15 14 -37 13 -47 -2 -15 5 -21 26 -23 19 -2 27 -9 27 -23 0 -23 25 -26 34 -3 3 8 1 24 -4 34 -6 10 -10 28 -10 40 0 23 -60 86 -92 96 -22 7 -24 34 -3 34 22 0 18 33 -5 48 -27 16 -27 37 -1 22 29 -15 33 -12 14 10 -20 23 -39 26 -46 8z m32 -64 c5 -4 -26 -34 -35 -34 -4 0 -4 3 -1 7 4 3 -1 15 -10 25 -17 19 -16 19 12 12 17 -4 32 -8 34 -10z m55 -116 c43 -42 48 -78 11 -78 -21 0 -24 4 -20 23 4 14 -3 32 -19 52 -22 27 -27 29 -45 17 -13 -7 -21 -8 -21 -2 0 6 -10 15 -22 19 -17 7 -10 8 28 7 44 -2 57 -8 88 -38z"/>
    <path d="M2755 4166 c-17 -12 -17 -13 6 -19 29 -8 45 6 26 21 -10 9 -18 8 -32 -2z"/>
    <path d="M2180 4049 c0 -11 5 -17 10 -14 6 3 10 13 10 21 0 8 -4 14 -10 14 -5 0 -10 -9 -10 -21z"/>
    <path d="M2130 3916 c0 -8 -6 -21 -12 -28 -14 -15 -38 -55 -38 -63 0 -3 9 -5 20 -5 11 0 20 -4 20 -9 0 -5 9 -11 21 -14 24 -7 37 17 19 38 -9 11 -8 19 4 36 11 16 12 27 5 41 -11 21 -39 24 -39 4z m14 -38 c-15 -16 -16 -22 -5 -40 16 -25 7 -35 -14 -15 -19 20 -19 43 0 51 8 3 15 13 15 21 0 9 5 13 11 10 7 -5 4 -14 -7 -27z"/>
    <path d="M2260 3770 c0 -16 -1 -33 -2 -37 -5 -21 37 -12 58 13 35 40 31 54 -16 54 -38 0 -40 -2 -40 -30z m48 -1 c-10 -5 -18 -17 -18 -24 0 -8 -4 -15 -10 -15 -5 0 -10 11 -10 25 0 21 5 25 28 25 23 -1 24 -2 10 -11z"/>
    <path d="M2170 3770 c0 -5 6 -10 14 -10 7 0 16 -9 19 -20 3 -11 11 -20 17 -20 10 0 10 3 0 15 -7 8 -9 15 -5 15 4 0 2 7 -5 15 -14 17 -40 20 -40 5z"/>
    <path d="M2341 3710 c2 -19 14 -48 26 -63 13 -16 23 -32 23 -36 0 -13 59 -71 73 -71 27 0 28 30 2 42 -19 8 -23 16 -19 33 4 16 -3 29 -26 49 -17 14 -36 26 -41 26 -5 0 -9 6 -9 14 0 7 -7 20 -16 27 -14 12 -16 9 -13 -21z m64 -56 c16 -10 24 -24 23 -40 -1 -12 -3 -22 -5 -21 -10 11 -51 77 -47 77 2 0 16 -7 29 -16z m60 -92 c-3 -3 -11 0 -18 7 -9 10 -8 11 6 5 10 -3 15 -9 12 -12z"/>
    <path d="M2155 3670 c-4 -6 1 -22 10 -36 16 -25 17 -25 36 -8 24 21 25 46 2 42 -10 -1 -23 1 -30 5 -6 4 -15 3 -18 -3z"/>
    <path d="M2790 3582 c0 -5 7 -12 15 -16 8 -3 15 -10 15 -17 0 -39 92 -111 114 -88 8 7 3 17 -15 32 -15 12 -46 38 -69 57 -47 39 -60 46 -60 32z m110 -92 c0 -5 -2 -10 -4 -10 -3 0 -8 5 -11 10 -3 6 -1 10 4 10 6 0 11 -4 11 -10z"/>
    <path d="M2700 3495 c-16 -19 -5 -34 12 -17 18 18 28 15 28 -8 0 -11 5 -20 10 -20 13 0 13 16 0 41 -13 23 -33 25 -50 4z"/>
    <path d="M2586 3474 c-4 -9 -1 -23 6 -32 7 -8 12 -22 10 -31 -2 -17 44 -44 59 -35 12 7 11 44 -1 44 -5 0 -10 11 -10 25 0 25 -14 33 -25 15 -11 -18 -26 -10 -20 10 8 24 -10 27 -19 4z m62 -72 c2 -7 -2 -10 -12 -6 -9 3 -16 11 -16 16 0 13 23 5 28 -10z"/>
    <path d="M2703 3435 c-7 -8 -13 -20 -13 -28 0 -19 50 -41 63 -28 13 13 1 41 -18 41 -18 0 -20 -16 -2 -23 9 -4 9 -6 0 -6 -18 -1 -27 19 -14 32 13 13 15 27 4 27 -5 -1 -14 -7 -20 -15z"/>
    <path d="M2803 3426 c7 -15 14 -20 18 -14 10 15 0 38 -16 38 -10 0 -11 -5 -2 -24z"/>
    <path d="M2490 3404 c0 -11 63 -94 72 -94 16 0 21 31 10 56 -7 13 -20 24 -31 24 -11 0 -23 5 -26 10 -7 11 -25 14 -25 4z m80 -64 c0 -5 -2 -10 -4 -10 -3 0 -8 5 -11 10 -3 6 -1 10 4 10 6 0 11 -4 11 -10z"/>
    <path d="M2598 3299 c-15 -10 0 -29 23 -29 10 0 27 -4 37 -9 9 -6 29 -12 45 -16 24 -5 26 -8 17 -25 -7 -14 -7 -20 0 -20 5 0 10 -6 10 -14 0 -24 29 -41 49 -29 14 9 21 7 34 -8 18 -20 8 -33 -17 -23 -9 4 -18 0 -22 -9 -3 -9 -13 -13 -25 -10 -14 4 -19 0 -19 -13 0 -33 16 -47 44 -40 20 5 24 3 20 -9 -5 -11 1 -15 20 -15 17 0 26 5 26 16 0 14 3 14 16 4 13 -11 16 -10 21 8 7 30 25 28 63 -8 36 -33 52 -37 70 -15 10 12 23 1 83 -65 72 -81 98 -95 136 -71 11 7 5 19 -29 54 -23 25 -61 58 -84 73 -22 16 -49 37 -59 47 -10 10 -31 20 -47 24 -16 3 -31 11 -34 19 -3 8 -14 14 -25 14 -11 0 -25 9 -31 20 -11 21 -40 28 -40 10 0 -5 -5 -10 -11 -10 -5 0 -8 3 -6 8 3 4 1 18 -4 31 -7 18 -15 22 -35 18 -18 -3 -33 2 -50 20 -13 13 -24 26 -24 29 0 3 -9 15 -20 27 -16 17 -33 22 -71 22 -28 0 -55 -3 -61 -6z m118 -27 c11 -16 9 -18 -17 -14 -30 4 -38 17 -16 25 20 9 22 8 33 -11z m54 -62 c0 -5 3 -15 6 -24 4 -11 1 -16 -10 -16 -9 0 -16 3 -16 8 0 4 -3 17 -6 30 -5 18 -3 21 10 16 9 -3 16 -10 16 -14z m71 -30 c1 -5 2 -15 3 -21 0 -7 9 -17 19 -23 14 -8 20 -8 27 4 8 13 11 13 22 -1 18 -21 64 -49 83 -49 8 0 15 -4 15 -10 0 -5 4 -10 10 -10 17 0 145 -98 168 -130 23 -30 23 -30 2 -30 -20 0 -54 31 -123 113 -29 34 -67 50 -67 27 0 -19 -27 -10 -54 17 -32 32 -66 40 -78 18 -5 -8 -14 -15 -20 -15 -6 0 -17 -8 -24 -17 -12 -17 -13 -16 -14 5 0 21 -3 23 -30 17 -19 -4 -30 -3 -30 4 0 6 9 11 20 11 11 0 20 4 20 9 0 4 11 6 25 3 21 -4 25 -1 25 21 0 13 -7 30 -15 37 -8 7 -15 16 -15 21 0 12 30 11 31 -1z"/>
    <path d="M2840 3012 c0 -3 21 -27 46 -53 25 -25 47 -54 48 -64 4 -29 25 -30 35 -2 16 42 9 82 -16 85 -11 2 -23 11 -25 20 -4 13 -17 18 -46 19 -23 1 -42 -1 -42 -5z m83 -32 c3 -11 12 -20 21 -20 11 0 16 -9 16 -27 l0 -27 -30 29 c-16 16 -30 37 -30 47 0 24 16 23 23 -2z"/>
    <path d="M3035 2954 c-14 -15 -12 -20 27 -63 23 -25 46 -47 50 -49 17 -7 20 30 4 47 -9 10 -16 22 -16 27 -1 10 -35 54 -43 54 -3 0 -13 -7 -22 -16z m50 -49 l28 -40 -36 34 c-20 19 -34 38 -31 43 3 5 7 8 8 6 1 -2 15 -21 31 -43z"/>
    <path d="M3006 2859 c-20 -19 -20 -20 9 -75 28 -54 67 -86 93 -77 8 3 12 -6 12 -26 0 -36 18 -50 35 -28 7 10 17 17 23 17 12 0 22 24 22 52 0 16 -5 19 -25 15 -19 -3 -33 3 -53 24 -15 16 -31 29 -36 29 -16 0 -35 34 -36 63 0 32 -17 34 -44 6z m69 -83 c28 -16 45 -40 35 -50 -10 -10 -70 30 -70 46 0 6 -7 19 -16 29 -10 11 -14 25 -10 35 6 14 10 11 24 -16 9 -18 26 -38 37 -44z m89 -93 c-16 -12 -19 -11 -25 4 -4 13 0 20 15 24 27 7 34 -10 10 -28z"/>
    <path d="M3230 2861 c0 -23 183 -251 201 -251 11 0 20 48 13 75 -3 13 -15 27 -25 30 -10 4 -19 10 -19 15 0 4 -21 31 -47 59 -45 47 -123 93 -123 72z m95 -71 c3 -11 12 -20 20 -20 8 0 16 -9 20 -20 3 -10 19 -30 36 -44 20 -17 29 -34 29 -53 l-1 -28 -22 30 c-12 17 -42 53 -67 80 -25 28 -54 63 -64 78 l-17 28 30 -15 c16 -9 32 -25 36 -36z"/>
    <path d="M3243 2723 c-34 -7 -28 -21 14 -32 43 -12 64 -1 43 24 -13 15 -17 16 -57 8z m42 -13 c3 -5 1 -10 -4 -10 -6 0 -11 5 -11 10 0 6 2 10 4 10 3 0 8 -4 11 -10z"/>
    <path d="M3250 2646 c0 -10 9 -14 26 -13 22 2 29 -4 37 -28 5 -16 15 -37 22 -45 7 -8 10 -21 8 -28 -5 -13 23 -52 38 -52 4 0 19 -11 33 -25 28 -28 26 -32 -4 -12 -17 10 -22 9 -30 -3 -8 -13 -13 -12 -37 6 -15 11 -30 30 -33 40 -9 35 -48 77 -67 72 -13 -4 -18 1 -19 19 -2 28 1 28 34 3 15 -12 29 -17 34 -12 11 11 0 62 -13 62 -13 0 -11 -24 3 -38 8 -8 9 -12 1 -12 -6 0 -21 16 -33 35 -24 38 -41 46 -33 15 3 -11 1 -20 -5 -20 -5 0 -10 -15 -9 -34 1 -37 25 -54 46 -33 8 8 11 8 11 0 0 -6 8 -19 17 -29 10 -9 18 -22 19 -28 0 -6 2 -15 3 -21 0 -5 17 -21 36 -34 28 -18 38 -21 49 -12 10 8 16 9 21 1 3 -6 10 -8 15 -5 5 3 16 -9 23 -28 8 -18 27 -41 42 -51 27 -18 29 -18 41 -2 10 15 9 24 -9 53 -11 20 -29 38 -39 41 -10 2 -18 8 -18 13 0 5 -11 14 -25 19 -14 5 -25 14 -25 19 0 6 -15 18 -32 27 -18 10 -27 19 -20 21 18 7 15 29 -8 44 -11 8 -21 24 -23 36 -2 11 -9 28 -16 37 -17 20 -61 21 -61 2z m250 -273 c0 -7 5 -13 11 -13 5 0 7 -4 4 -10 -4 -6 -15 -4 -30 6 -26 17 -38 41 -29 56 7 12 44 -20 44 -39z"/>
    <path d="M3481 2598 c7 -13 15 -30 19 -38 11 -23 35 -18 38 9 4 27 -20 51 -50 51 -16 0 -17 -3 -7 -22z m40 -21 c-1 -12 -15 -9 -19 4 -3 6 1 10 8 8 6 -3 11 -8 11 -12z"/>
    <path d="M3565 2559 c-9 -13 38 -57 69 -65 17 -4 22 -11 19 -25 -4 -13 0 -19 10 -19 28 0 47 12 47 30 0 18 -30 50 -47 50 -6 0 -14 7 -17 16 -4 9 -13 14 -21 10 -8 -3 -15 -1 -15 4 0 13 -37 13 -45 -1z m108 -52 c18 -7 24 -37 7 -37 -5 0 -7 6 -5 13 3 7 -8 18 -25 25 -16 8 -30 18 -30 24 0 6 8 4 18 -4 9 -8 25 -18 35 -21z"/>
    <path d="M3616 2307 c7 -25 31 -47 51 -47 7 0 13 -4 13 -10 0 -9 62 -30 93 -30 25 0 21 29 -5 40 -30 13 -60 32 -73 46 -5 6 -27 14 -48 17 -35 6 -38 4 -31 -16z m69 -17 c3 -5 25 -19 48 -30 l42 -21 -35 7 c-19 3 -42 12 -51 20 -8 8 -23 14 -32 14 -9 0 -17 5 -17 10 0 13 37 13 45 0z"/>
    <path d="M4223 1964 c-18 -14 -33 -33 -33 -43 0 -15 5 -16 45 -7 43 10 46 13 43 40 -4 39 -16 41 -55 10z m41 -26 c-3 -5 -10 -6 -15 -2 -5 3 -16 0 -24 -6 -9 -7 -15 -8 -15 -2 0 16 44 41 52 29 4 -6 4 -15 2 -19z"/>
    <path d="M4120 1960 c0 -5 6 -10 14 -10 8 0 16 -6 19 -12 2 -7 8 -10 12 -6 13 12 -4 38 -25 38 -11 0 -20 -4 -20 -10z"/>
    <path d="M4305 1888 c-14 -21 -14 -24 2 -35 9 -7 24 -13 32 -13 9 0 36 -14 60 -30 24 -17 50 -30 57 -30 7 0 19 -3 27 -6 12 -4 17 3 19 28 4 30 5 31 14 11 17 -40 121 -122 162 -128 20 -3 62 -9 92 -14 30 -5 108 -6 174 -2 99 6 121 10 132 26 31 43 11 85 -41 85 -19 0 -39 8 -50 20 -11 12 -31 20 -50 20 -17 0 -40 7 -51 15 -10 8 -40 15 -66 15 -26 0 -50 5 -53 10 -8 13 -202 13 -210 1 -3 -5 -1 -12 5 -16 5 -3 10 -10 10 -16 0 -14 -26 -11 -40 6 -7 8 -25 15 -41 15 -15 0 -30 4 -33 9 -9 15 -90 51 -114 51 -11 0 -28 -10 -37 -22z m107 -23 c50 -23 80 -56 65 -71 -7 -7 -60 16 -82 36 -11 10 -35 22 -54 27 -32 8 -33 10 -17 26 10 9 21 16 24 14 4 -2 33 -16 64 -32z m360 -26 c9 -5 35 -9 57 -9 22 0 42 -4 45 -9 3 -4 25 -11 48 -15 23 -4 50 -14 59 -22 9 -8 29 -17 45 -20 44 -7 54 -12 54 -26 -1 -36 -19 -43 -132 -50 -62 -4 -117 -8 -123 -8 -17 -2 -149 22 -175 32 -22 8 -110 82 -110 92 0 2 8 2 19 -1 24 -6 35 11 22 35 -9 17 -4 18 82 14 51 -2 100 -8 109 -13z"/>
    <path d="M4670 1620 c0 -5 7 -10 15 -10 9 0 20 -12 26 -26 11 -31 2 -47 -12 -21 -6 9 -19 17 -29 17 -10 0 -22 5 -25 10 -6 10 -61 6 -95 -7 -8 -3 -23 -5 -32 -4 -11 1 -18 -4 -18 -13 0 -9 7 -16 15 -16 8 0 15 -5 15 -11 0 -7 -10 -9 -27 -5 -50 12 -57 11 -61 -6 -4 -22 102 -48 120 -30 16 16 53 15 67 -2 7 -8 39 -17 71 -21 57 -7 103 -30 123 -62 9 -14 71 -43 93 -43 26 0 14 28 -21 49 -19 11 -35 24 -35 28 0 12 192 3 220 -11 18 -8 76 -11 198 -8 160 4 172 6 172 23 0 22 -17 27 -115 33 -38 3 -117 10 -175 16 -58 6 -145 14 -194 18 l-89 7 -12 35 c-13 37 -37 49 -91 43 -19 -2 -36 3 -44 12 -14 17 -60 21 -60 5z m175 -57 c11 -46 23 -53 89 -53 33 0 81 -5 106 -11 63 -15 210 -29 300 -29 41 0 82 -4 90 -10 19 -12 28 -11 -129 -16 -77 -2 -161 1 -195 7 -75 14 -254 20 -261 9 -7 -12 34 -60 52 -60 9 0 14 -3 10 -6 -11 -11 -47 7 -88 46 -35 33 -51 40 -98 45 -31 3 -63 10 -71 16 -45 29 -62 33 -81 21 -10 -7 -24 -12 -31 -12 -10 0 -9 3 1 9 8 5 11 16 8 25 -5 11 1 17 21 22 15 3 33 7 40 10 7 2 36 -7 65 -20 58 -27 71 -25 64 10 -4 23 -2 24 48 24 49 0 53 -2 60 -27z"/>
    <path d="M3450 1411 c-13 -26 -13 -31 5 -31 9 0 15 9 15 25 0 30 -6 32 -20 6z"/>
    <path d="M4235 1391 c-3 -6 -26 -11 -49 -11 -26 0 -48 -6 -56 -15 -14 -16 -6 -35 16 -35 8 0 14 -4 14 -10 0 -5 -5 -10 -11 -10 -6 0 -9 -10 -7 -22 3 -21 9 -23 56 -23 31 -1 57 4 63 12 8 9 15 9 28 2 13 -9 23 -5 49 19 38 35 40 55 10 76 -30 22 -48 20 -48 -4 0 -27 -18 -25 -22 2 -3 24 -32 36 -43 19z m52 -55 c9 -4 17 1 20 14 6 24 29 26 41 3 14 -24 -34 -63 -71 -56 -15 3 -27 1 -27 -4 0 -6 -12 -10 -27 -10 -16 0 -36 -3 -45 -7 -13 -6 -18 -4 -18 8 0 9 5 16 10 16 19 0 10 37 -12 48 -20 9 -18 11 22 11 25 1 52 6 60 11 11 7 17 4 24 -10 5 -10 15 -21 23 -24z"/>
    <path d="M5212 1335 c4 -5 3 -14 -3 -21 -12 -15 -4 -34 16 -34 7 0 15 -7 19 -15 3 -8 13 -15 21 -15 9 0 23 -6 31 -14 15 -15 135 -33 152 -22 5 3 50 -17 100 -44 50 -28 100 -50 112 -50 30 0 75 -38 75 -63 0 -17 8 -23 37 -28 21 -3 46 -13 56 -22 10 -10 35 -17 55 -17 20 0 39 -4 42 -10 3 -5 20 -10 37 -10 17 0 39 -7 48 -15 10 -9 30 -17 46 -18 16 -1 32 -6 36 -12 4 -5 17 0 31 13 29 27 54 28 62 2 3 -11 13 -20 21 -20 8 0 14 -4 14 -10 0 -5 -20 -10 -45 -10 -55 0 -62 -23 -11 -40 18 -6 44 -22 56 -35 39 -42 76 -25 46 20 -15 23 -15 24 1 18 10 -3 27 -14 38 -23 11 -10 31 -23 44 -30 15 -8 20 -15 13 -22 -6 -6 -16 -5 -29 3 -21 13 -53 7 -53 -10 0 -6 17 -13 38 -17 20 -4 44 -10 52 -14 22 -11 40 -1 40 21 0 10 5 19 10 19 10 0 92 -70 115 -97 5 -7 28 -13 50 -15 38 -3 40 -5 43 -40 3 -32 11 -44 65 -86 67 -52 161 -112 177 -112 6 0 33 -25 62 -55 28 -30 55 -55 60 -55 4 0 8 19 8 43 0 34 -5 47 -29 67 -24 20 -32 38 -42 90 -17 97 -15 93 -55 87 -27 -5 -36 -2 -41 11 -3 9 -15 26 -26 36 -17 16 -24 18 -51 8 -52 -19 -63 -15 -130 46 -76 68 -182 152 -194 152 -5 0 -35 25 -67 55 -33 30 -67 55 -77 55 -9 0 -23 7 -30 15 -7 9 -24 27 -38 40 -19 19 -22 27 -12 37 16 16 15 33 -4 52 -12 13 -20 14 -36 5 -15 -8 -27 -8 -47 1 -70 33 -66 33 -109 3 -44 -30 -48 -46 -13 -51 12 -2 27 -14 33 -28 6 -13 15 -24 20 -24 5 0 13 -11 18 -25 5 -14 14 -25 20 -25 5 0 10 -6 10 -14 0 -8 -21 8 -47 35 -27 27 -52 49 -56 49 -4 0 -17 8 -28 18 -10 11 -31 24 -44 30 -14 7 -36 17 -49 23 -13 6 -29 9 -34 5 -17 -11 -76 17 -108 51 -17 18 -49 41 -70 51 -21 9 -50 24 -64 32 -44 26 -113 39 -202 40 -65 0 -89 4 -95 15 -5 7 -28 17 -53 21 -25 4 -42 3 -38 -1z m60 -20 c9 4 18 0 21 -9 5 -13 24 -16 90 -16 79 0 155 -16 202 -43 11 -6 40 -21 65 -33 46 -23 85 -54 92 -74 5 -16 89 -43 101 -31 19 19 226 -119 227 -151 0 -13 -28 -9 -44 7 -8 8 -31 15 -50 15 -20 0 -36 4 -36 10 0 5 -17 12 -37 15 -21 4 -51 13 -68 20 -16 8 -42 17 -57 20 -21 4 -28 11 -28 28 0 25 -44 57 -79 57 -11 0 -37 10 -58 21 -21 12 -56 32 -78 43 -22 12 -46 26 -54 30 -7 5 -47 10 -89 11 -45 2 -78 7 -80 14 -2 6 -8 11 -14 11 -6 0 -26 9 -45 21 -28 17 -32 24 -22 36 8 9 14 10 19 3 4 -6 14 -8 22 -5z m895 -204 c31 16 38 6 23 -30 -12 -29 -10 -32 31 -71 24 -22 51 -40 60 -40 10 0 26 -11 37 -24 21 -28 108 -96 121 -96 4 0 16 -10 27 -21 10 -12 38 -35 62 -51 23 -16 53 -40 66 -53 l23 -23 -28 -4 c-24 -4 -39 5 -91 54 -65 59 -77 65 -94 48 -7 -7 -18 -2 -34 15 -13 14 -28 25 -34 25 -5 0 -19 9 -31 20 -40 38 -98 24 -59 -14 24 -25 8 -33 -19 -9 -12 11 -35 28 -52 37 l-30 15 32 -6 c35 -6 63 9 63 33 0 8 -6 14 -14 14 -7 0 -21 12 -31 26 -14 22 -22 25 -50 21 -30 -5 -35 -2 -50 29 -9 19 -19 34 -24 34 -4 0 -14 11 -21 25 -7 14 -22 25 -32 25 -24 0 -23 7 9 34 l26 23 45 -24 c39 -21 49 -23 69 -12z m223 -341 c0 -5 -4 -10 -10 -10 -5 0 -10 5 -10 10 0 6 5 10 10 10 6 0 10 -4 10 -10z m356 -120 c30 10 38 9 55 -6 10 -9 19 -23 19 -31 0 -9 14 -13 45 -13 l45 0 0 -45 c0 -58 20 -106 54 -128 16 -11 26 -27 26 -42 0 -14 -2 -25 -5 -25 -2 0 -23 20 -46 45 -23 25 -47 45 -54 45 -17 0 -101 54 -182 117 -42 32 -63 55 -63 69 0 30 8 34 41 17 24 -12 36 -12 65 -3z"/>
    <path d="M3754 1305 c-7 -18 12 -45 32 -45 16 0 45 40 38 52 -9 14 -64 9 -70 -7z m41 -14 c-3 -6 -11 -8 -17 -5 -6 4 -5 9 3 15 16 10 23 4 14 -10z"/>
    <path d="M4080 1250 c0 -5 -7 -10 -15 -10 -18 0 -20 -41 -4 -57 9 -9 18 -8 35 4 27 17 31 38 10 59 -17 16 -26 18 -26 4z m10 -45 c-7 -8 -17 -12 -23 -8 -6 4 -3 11 8 19 23 17 32 10 15 -11z"/>
    <path d="M4807 1243 c-16 -16 -4 -31 28 -37 42 -8 47 -26 7 -26 -26 0 -52 -15 -52 -31 0 -14 58 -28 143 -33 49 -4 104 -13 124 -21 34 -14 39 -14 82 6 25 11 54 25 64 30 11 6 24 6 35 0 10 -5 55 -11 100 -12 65 -3 85 0 98 13 15 15 13 18 -28 42 -75 44 -133 57 -223 49 -44 -3 -91 -13 -103 -21 -25 -16 -19 -17 -162 28 -39 13 -106 20 -113 13z m117 -29 c28 -9 59 -21 68 -25 23 -12 95 -12 102 0 9 14 178 23 216 10 54 -17 119 -52 114 -61 -9 -14 -157 -9 -178 7 -16 12 -23 12 -45 0 -60 -31 -115 -46 -135 -37 -21 10 -119 28 -203 37 -51 6 -56 18 -11 25 44 7 43 32 -2 47 -35 12 -35 12 -6 12 15 1 51 -6 80 -15z"/>
    <path d="M5623 953 c-14 -3 -23 -12 -23 -23 0 -28 90 -67 175 -76 39 -4 80 -13 92 -21 14 -10 40 -14 71 -11 35 2 54 -2 66 -13 16 -16 85 -31 96 -22 2 2 -2 16 -10 30 -16 28 -59 46 -81 33 -7 -5 -21 -3 -33 6 -11 8 -28 14 -37 14 -9 0 -22 7 -29 15 -7 8 -26 15 -42 15 -16 0 -43 8 -61 17 -18 9 -54 20 -82 24 -27 4 -57 9 -65 12 -8 2 -25 2 -37 0z m7 -23 c0 -5 -5 -10 -11 -10 -5 0 -7 5 -4 10 3 6 8 10 11 10 2 0 4 -4 4 -10z m95 -7 c22 -3 58 -13 81 -24 22 -10 52 -19 65 -19 14 0 29 -3 33 -7 4 -5 22 -13 39 -19 l32 -12 -27 -7 c-19 -5 -41 -1 -73 15 -29 14 -55 20 -70 16 -13 -3 -27 -2 -30 4 -3 5 -22 10 -41 10 -29 0 -53 10 -93 36 -11 8 14 24 28 18 9 -4 34 -9 56 -11z m340 -103 c13 -15 15 -19 4 -16 -8 2 -27 7 -42 10 -15 4 -25 11 -22 16 10 17 41 11 60 -10z"/>
    <path d="M4643 903 c-13 -8 -23 -21 -23 -28 0 -8 -5 -15 -12 -17 -9 -3 -9 -6 1 -12 8 -5 14 -1 18 12 7 28 41 35 49 10 9 -30 15 -15 8 20 -7 36 -10 37 -41 15z"/>
    <path d="M5096 913 c-3 -4 -29 -6 -56 -4 -44 2 -51 0 -59 -21 -11 -28 -6 -38 19 -38 13 0 17 -5 13 -20 -7 -25 19 -27 43 -3 13 13 19 14 22 5 2 -6 11 -12 19 -12 17 0 73 54 73 70 0 20 -58 39 -74 23z m50 -25 c9 -9 -5 -28 -21 -28 -7 0 -16 -7 -19 -16 -5 -14 -7 -14 -22 1 -15 15 -18 15 -35 -1 -18 -16 -19 -16 -19 4 0 16 -6 22 -21 22 -16 0 -19 3 -11 13 11 12 135 17 148 5z"/>
  </g>
 </svg>