<?xml version="1.0" encoding="utf-8"?>
<svg version="1.0" xmlns="http://www.w3.org/2000/svg" width="1300.000000pt" height="1390.000000pt" viewBox="0 0 1300.000000 1390.000000" preserveAspectRatio="xMidYMid meet">

  <path id="Kosovo i Metohija" style="stroke: rgb(0, 0, 0); fill: rgba(106, 99, 194, 0.616);" d="M 512.982 339.548 L 531.143 317.01 L 528.786 298.462 L 546.066 288.243 L 521.827 236.026 C 521.827 236.026 499.033 223.747 499.033 223.596 C 499.033 223.445 498.222 201.224 498.222 201.224 L 541.414 195.901 L 567.85 175.892 L 594.482 175.776 L 603.734 162.444 L 634.612 178.954 C 634.612 178.954 636.944 198.117 636.944 198.273 C 636.944 198.429 624.015 202.197 624.015 202.197 C 624.015 202.197 616.526 224.155 616.526 224.306 C 616.526 224.457 678.725 260.936 678.725 260.936 L 703.539 257.738 L 727.885 275.229 L 744.233 256.363 L 772.235 273.068 C 772.235 273.068 783.341 349.475 783.341 349.631 C 783.341 349.787 812.129 333.923 812.129 333.923 L 827.006 397.144 L 842.789 418.429 L 877.414 421.164 L 883.699 437.663 L 920.872 440.086 C 920.872 440.086 901.311 522.158 901.311 522.31 C 901.311 522.462 945.673 525.905 945.829 525.905 C 945.985 525.905 970.85 538.36 970.85 538.36 L 997.825 535.016 L 1000.413 554.17 L 1030.541 560.797 L 1037.375 580.117 C 1037.375 580.117 1051.895 560.875 1051.744 560.875 C 1051.593 560.875 1088.764 559.418 1088.764 559.418 L 1097.17 588.402 L 1086.064 605.979 L 1074.934 625.379 L 1083.516 657.728 L 1057.387 664.305 L 1059.83 691.26 L 1022.365 730.423 L 1027.899 759.699 L 1009.557 778.777 L 995.712 774.778 L 988.052 789.096 L 975.249 788.789 L 970.107 821.792 L 986.652 831.91 L 999.716 850.852 C 999.716 850.852 992.036 866.012 991.884 866.012 C 991.732 866.012 962.961 873.939 962.961 873.939 L 958.644 859.303 L 949.997 846.204 L 924.427 847.533 C 924.427 847.533 924.11 878.985 924.11 879.136 C 924.11 879.287 902.282 868.6 902.282 868.6 L 869.637 909.395 C 869.637 909.395 860.123 941.814 860.123 941.97 C 860.123 942.126 862.797 965.495 862.797 965.495 L 817.374 976.711 L 804.874 946.296 C 804.874 946.296 780.941 907.647 780.941 907.491 C 780.941 907.335 763.754 896.965 763.754 896.965 C 763.754 896.965 740.471 899.126 740.471 899.277 C 740.471 899.428 723.795 932.935 723.795 932.935 L 668.345 949.147 L 645.075 976.515 L 622.225 973.745 C 622.225 973.745 588.628 992.147 588.477 992.147 C 588.326 992.147 569.157 1032.479 569.157 1032.479 L 578.965 1073.856 L 586.459 1104.895 L 570.252 1118.312 L 550.314 1141.471 L 531.468 1126.462 L 505.924 1134.873 L 481.719 1097.423 L 511.222 1072.246 L 499.336 1042.365 L 487.199 998.795 L 475.625 989.67 L 478.637 955.971 L 447.605 877.572 L 364.943 817.06 L 333.285 824.534 C 333.285 824.534 311.361 815.322 311.361 815.166 C 311.361 815.01 314.071 782.43 314.071 782.43 L 299.465 764.828 L 301.339 737.959 L 266.024 682.252 L 232.875 665.411 L 229.526 615.963 L 243.622 580.852 L 203.166 550.259 L 198.107 519.644 L 214.6 499.302 L 269.018 515.286 L 304.075 521.706 C 304.075 521.706 324.801 501.847 324.801 501.708 C 324.801 501.569 321.345 475.884 321.345 475.884 L 343.348 461.319 L 367.838 463.052 L 404.583 453.287 L 417.495 466.816 L 448.385 435.56 L 462.507 430.18 L 438.437 392.946 L 459.154 368.175 L 470.919 373.497 L 488.189 337.117 L 512.982 339.548 Z"/>
    <g transform="translate(0.000000,1390.000000) scale(0.100000,-0.100000)" fill="#000000" stroke="none">
    <path d="M5951 12291 c-17 -16 -37 -44 -45 -62 l-14 -33 -133 -1 c-122 0 -137 -2 -171 -23 -20 -12 -50 -44 -67 -70 -41 -64 -98 -118 -146 -138 -32 -14 -71 -17 -205 -16 -185 1 -227 -7 -248 -51 -11 -23 -10 -36 6 -90 11 -34 25 -84 31 -111 16 -69 40 -96 120 -140 85 -47 101 -64 130 -138 15 -37 35 -66 57 -83 34 -26 104 -134 125 -193 20 -57 7 -76 -80 -117 -103 -49 -111 -68 -72 -152 56 -118 52 -134 -67 -261 l-77 -83 -40 20 c-29 16 -58 21 -111 21 -63 0 -76 -3 -102 -25 -17 -14 -39 -44 -50 -68 -56 -120 -93 -194 -106 -211 -14 -17 -16 -17 -38 -2 -38 27 -71 19 -138 -31 -134 -100 -217 -252 -179 -326 6 -12 63 -74 125 -138 63 -64 114 -120 114 -125 0 -6 -37 -23 -82 -39 -137 -47 -177 -78 -256 -195 -27 -42 -57 -81 -65 -89 -22 -18 -54 -5 -72 29 -39 75 -91 77 -285 10 -176 -61 -228 -69 -304 -45 -46 15 -64 16 -94 7 -48 -15 -191 -103 -238 -147 -41 -39 -42 -57 -5 -155 11 -30 20 -75 21 -99 0 -40 -5 -49 -44 -86 -56 -55 -157 -105 -209 -105 -25 0 -70 14 -121 38 -74 34 -89 37 -173 38 -51 1 -91 -2 -88 -6 9 -14 -16 -23 -28 -11 -8 8 -7 11 4 11 12 0 12 2 -1 10 -8 5 -26 10 -38 10 -13 0 -36 9 -52 20 -15 11 -30 17 -34 13 -3 -3 -6 1 -6 10 0 10 -6 17 -14 17 -8 0 -23 3 -33 6 -17 5 -17 5 0 -6 14 -9 16 -15 6 -26 -7 -8 -7 -14 -1 -14 5 0 12 -9 15 -20 6 -22 0 -25 -23 -10 -12 8 -12 10 -1 10 11 0 11 3 1 15 -6 8 -9 18 -6 24 3 5 -9 14 -27 20 -24 9 -28 14 -18 20 11 7 9 10 -8 16 -36 11 -152 8 -164 -4 -9 -9 -8 -11 4 -6 10 4 16 0 16 -10 0 -18 -2 -18 -28 -5 -10 6 -19 7 -19 2 0 -5 -14 -12 -30 -16 -22 -4 -35 -15 -48 -43 -9 -21 -23 -43 -31 -49 -10 -8 -11 -13 -3 -18 7 -4 12 -17 12 -29 -1 -22 -1 -22 -14 1 l-13 24 -18 -39 c-10 -21 -20 -60 -22 -88 l-4 -50 17 33 c9 18 19 31 21 28 2 -2 0 -12 -5 -23 -44 -84 -41 -103 36 -233 73 -123 119 -166 244 -231 113 -57 158 -87 158 -104 0 -6 -29 -44 -65 -84 -71 -80 -114 -158 -122 -218 -3 -26 3 -61 21 -112 24 -68 26 -85 23 -220 -2 -133 0 -150 20 -187 30 -56 77 -99 131 -119 171 -64 270 -154 353 -317 16 -31 71 -121 124 -199 53 -80 95 -152 95 -166 0 -13 -13 -47 -30 -76 -51 -91 -43 -113 88 -246 72 -74 77 -99 37 -175 -14 -26 -25 -58 -25 -70 0 -25 42 -143 62 -176 19 -29 69 -50 123 -50 25 0 77 -5 115 -11 92 -16 133 -6 185 42 24 22 48 37 56 33 8 -3 34 -30 58 -61 38 -48 58 -62 145 -103 56 -26 126 -69 156 -94 30 -26 96 -66 145 -90 114 -55 239 -149 315 -237 73 -85 93 -122 120 -230 12 -46 55 -167 95 -269 111 -277 117 -310 93 -503 -11 -92 -11 -99 9 -140 12 -23 53 -76 92 -118 l70 -77 11 -108 c5 -60 10 -119 10 -131 0 -12 6 -28 13 -35 8 -7 12 -20 10 -28 -4 -13 -3 -13 5 -1 6 8 8 20 5 26 -2 7 10 23 26 35 21 14 31 30 31 46 0 14 -4 22 -10 19 -5 -3 -10 -1 -10 4 0 6 5 11 11 11 13 0 6 132 -10 188 -6 18 -44 69 -86 114 -41 45 -78 93 -82 106 -3 13 -1 61 6 106 24 171 9 245 -98 511 -38 94 -81 215 -95 269 -14 54 -38 120 -52 147 -78 143 -284 323 -445 389 -31 12 -87 48 -125 78 -38 30 -107 73 -154 95 -70 32 -97 52 -155 113 -66 70 -73 74 -113 74 -37 0 -49 -6 -92 -46 -49 -46 -50 -46 -102 -40 -29 4 -85 9 -125 12 l-71 7 -21 57 -21 58 25 53 c26 58 32 120 14 166 -6 15 -46 65 -90 109 -43 45 -79 84 -79 88 0 3 13 32 30 63 51 96 42 134 -73 301 -41 59 -94 143 -117 187 -99 184 -182 271 -322 338 -51 25 -105 49 -119 55 -16 6 -35 28 -48 55 -20 42 -22 55 -15 169 6 116 5 128 -20 201 -14 42 -26 85 -26 95 1 34 39 98 102 172 74 86 88 108 88 145 0 63 -51 110 -195 183 -126 63 -154 89 -216 193 -31 52 -60 109 -64 127 -5 23 -12 32 -26 32 -11 0 -18 4 -14 10 3 5 11 8 18 6 7 -1 9 -1 5 1 -5 3 -8 9 -8 14 0 6 5 7 10 4 16 -10 12 11 -5 25 -12 10 -15 9 -15 -7 0 -10 -5 -24 -11 -30 -14 -14 -3 -33 17 -33 8 0 13 -4 9 -10 -8 -12 -32 -2 -39 16 -3 8 0 24 7 34 9 16 9 24 -1 40 -18 29 -16 61 3 54 10 -4 14 -14 10 -28 -2 -11 -2 -16 1 -9 3 7 12 9 20 6 8 -3 14 0 14 6 0 6 -6 11 -12 11 -9 0 -9 3 -3 8 6 4 11 24 12 45 1 60 2 67 13 67 14 0 12 -54 -2 -68 -10 -10 -10 -15 2 -22 12 -8 13 -11 1 -19 -8 -5 -9 -11 -3 -15 13 -8 44 41 44 71 1 13 4 26 9 29 5 3 9 0 9 -5 0 -6 9 -2 20 9 11 11 20 27 20 35 0 15 10 19 45 15 l20 -2 -20 16 -20 15 20 15 c27 21 39 20 60 -4 12 -13 25 -18 40 -14 13 3 26 1 30 -5 3 -6 10 -9 14 -7 4 3 8 -1 8 -9 0 -8 -4 -12 -9 -9 -4 3 -8 0 -8 -5 0 -6 5 -11 12 -11 6 0 8 -3 5 -6 -8 -9 59 -56 103 -74 19 -7 39 -17 44 -22 6 -4 20 -8 32 -8 17 0 20 5 16 25 -3 18 0 25 12 25 25 0 31 -4 30 -17 -1 -7 4 -13 12 -13 19 0 18 20 -2 35 -15 11 -15 12 -1 18 11 4 17 -2 22 -24 8 -38 3 -43 -32 -35 -21 6 -24 9 -12 17 12 7 11 9 -3 9 -10 0 -18 -4 -18 -9 0 -19 28 -29 100 -35 55 -6 97 -17 155 -44 68 -32 90 -37 151 -37 63 0 80 5 148 39 99 51 180 127 196 187 15 53 7 130 -19 199 l-19 50 67 43 c119 79 118 79 202 61 94 -20 129 -14 311 47 81 27 155 49 165 49 10 0 25 -13 34 -29 17 -30 91 -71 128 -71 53 0 93 36 170 152 59 90 92 114 217 157 186 64 182 132 -20 331 -53 52 -96 101 -96 108 0 36 85 153 141 193 l29 20 26 -20 c15 -12 37 -21 50 -21 51 0 123 94 185 241 17 41 37 80 44 87 20 21 96 17 138 -8 59 -35 97 -22 177 58 36 37 86 93 110 126 39 52 45 66 48 121 3 48 -1 73 -17 110 -12 26 -21 51 -21 55 0 4 19 16 42 26 94 42 137 107 124 187 -10 61 -84 195 -139 250 -28 29 -57 71 -68 101 -26 66 -66 107 -149 150 -73 39 -78 46 -102 153 l-14 61 175 4 c154 3 182 6 222 24 60 28 121 84 170 155 21 31 45 59 54 63 9 3 76 6 149 6 151 0 174 9 196 75 6 19 19 39 28 44 37 20 159 -46 235 -127 42 -46 62 -87 69 -142 3 -23 0 -25 -52 -31 -30 -3 -65 -12 -78 -20 -24 -15 -52 -66 -52 -95 0 -10 -7 -44 -16 -76 -29 -102 1 -138 151 -183 119 -36 209 -78 330 -155 176 -111 224 -126 301 -94 71 30 151 3 254 -86 68 -59 89 -70 134 -70 46 0 95 42 127 110 l24 50 55 -59 c30 -33 66 -62 80 -65 14 -3 41 -7 61 -11 19 -3 44 -11 54 -19 17 -12 17 -16 2 -79 -22 -88 -21 -116 8 -222 47 -171 64 -240 75 -313 15 -93 44 -132 98 -132 42 1 56 10 97 63 33 44 72 67 114 67 65 0 84 -80 83 -329 -2 -174 -1 -187 22 -235 13 -28 60 -92 104 -142 108 -121 167 -148 374 -169 57 -6 58 -7 92 -63 19 -31 48 -65 64 -74 43 -25 156 -40 245 -33 l77 7 0 -43 c0 -82 -69 -389 -125 -556 -57 -170 -63 -200 -44 -235 22 -41 72 -51 249 -49 191 2 204 -1 350 -83 52 -29 111 -59 132 -65 37 -12 51 -9 128 33 20 11 37 12 83 3 l57 -10 0 -63 c0 -52 4 -67 25 -93 35 -40 83 -54 170 -49 l73 5 5 -48 c7 -57 38 -122 69 -143 47 -33 93 -11 150 72 17 26 32 48 33 49 1 2 40 8 86 14 46 6 115 19 153 30 92 25 100 19 170 -125 l56 -114 -61 -59 c-66 -62 -89 -102 -89 -155 0 -27 -7 -38 -37 -58 -42 -29 -73 -75 -73 -108 0 -13 15 -51 34 -85 59 -107 57 -155 -12 -220 -25 -24 -35 -27 -65 -22 -67 13 -137 -44 -137 -110 0 -14 7 -40 16 -57 34 -65 34 -84 4 -130 -32 -50 -128 -144 -256 -251 -169 -141 -186 -179 -121 -273 44 -64 63 -101 72 -142 6 -29 2 -38 -33 -76 -22 -24 -50 -62 -61 -84 l-21 -41 -46 20 c-80 36 -127 13 -164 -79 -17 -44 -23 -46 -69 -22 -77 39 -132 24 -162 -46 -29 -64 -46 -248 -29 -308 14 -51 54 -92 98 -102 90 -20 86 -18 94 -63 7 -43 16 -61 72 -140 28 -40 28 -41 10 -68 -25 -40 -45 -52 -81 -53 -43 0 -79 -15 -124 -51 l-39 -31 0 34 c0 46 -19 108 -42 141 -11 15 -43 40 -71 55 -48 25 -61 27 -172 27 -103 0 -125 -3 -155 -21 -48 -27 -64 -77 -50 -152 12 -67 13 -132 2 -132 -4 0 -24 12 -43 26 -139 104 -199 88 -321 -86 -26 -36 -82 -100 -126 -142 -99 -96 -122 -141 -129 -251 -3 -47 -15 -112 -29 -154 -29 -87 -29 -94 -4 -173 27 -84 26 -87 -16 -82 -28 3 -56 -6 -132 -44 -88 -44 -103 -49 -165 -49 -95 0 -99 7 -91 150 l7 111 -47 54 c-58 69 -128 173 -163 242 -43 88 -82 134 -136 164 -49 28 -58 29 -177 29 -183 0 -230 -26 -341 -186 -35 -51 -77 -106 -93 -122 -63 -60 -179 -103 -391 -141 -72 -13 -150 -33 -173 -45 -49 -25 -95 -81 -151 -183 -48 -87 -46 -87 -146 -62 -58 15 -68 15 -119 0 -31 -9 -90 -32 -130 -50 -41 -19 -99 -41 -129 -50 -150 -44 -300 -322 -301 -561 -1 -85 2 -95 41 -182 58 -127 60 -134 29 -180 -36 -53 -34 -99 7 -153 36 -47 77 -112 77 -121 0 -4 -29 -25 -64 -47 -66 -41 -95 -75 -155 -182 -40 -70 -81 -100 -139 -100 -36 0 -43 4 -63 36 -27 44 -79 68 -126 59 -60 -11 -123 -44 -158 -82 l-34 -37 -30 28 c-49 47 -160 279 -148 310 3 8 31 31 61 51 161 107 226 271 160 403 -31 63 -94 118 -94 82 0 -5 8 -10 17 -10 13 0 14 -3 5 -12 -16 -16 -28 -2 -36 42 -5 32 -5 34 9 16 8 -11 15 -16 15 -10 0 5 -7 18 -15 28 -8 11 -13 29 -9 40 4 17 3 18 -5 6 -6 -8 -11 -10 -11 -5 -1 6 -6 -1 -12 -15 -15 -33 -18 -81 -6 -74 5 3 4 -3 -3 -14 -12 -19 -9 -26 21 -63 52 -65 63 -106 44 -168 -18 -62 -56 -107 -141 -167 -79 -57 -103 -87 -103 -131 0 -77 118 -320 185 -382 40 -37 50 -41 96 -41 46 0 54 4 92 41 41 40 62 52 111 65 19 4 27 -1 45 -31 59 -100 240 -82 324 33 19 26 46 70 60 97 29 57 52 80 120 119 58 33 80 65 80 114 0 47 -23 97 -69 150 -19 22 -34 45 -34 51 0 5 11 27 25 47 33 49 31 83 -11 184 -20 47 -43 103 -51 125 -43 113 43 388 157 502 22 23 59 44 100 58 36 12 105 39 155 60 l90 38 61 -17 c128 -33 168 -16 234 101 58 103 85 140 118 157 16 8 84 24 152 36 137 24 260 60 330 95 75 38 122 83 189 178 35 51 73 103 85 116 37 41 100 63 190 64 68 2 89 -2 131 -23 45 -22 54 -34 95 -111 64 -121 100 -176 156 -238 48 -54 49 -55 45 -110 -13 -160 0 -211 66 -253 32 -19 51 -23 123 -23 82 0 88 2 180 49 94 48 95 48 143 36 61 -16 95 -7 103 26 9 37 -1 131 -22 197 -18 57 -18 57 6 113 15 38 25 87 30 154 8 115 14 128 112 219 38 35 90 94 115 130 61 86 93 121 113 121 9 0 44 -18 78 -41 51 -35 63 -39 81 -29 24 12 41 6 41 -16 0 -22 19 -17 50 14 37 37 46 100 30 199 -6 41 -9 78 -5 81 4 4 45 9 92 11 148 6 203 -31 203 -138 0 -64 15 -97 51 -111 41 -18 92 -5 139 35 30 25 52 35 75 35 70 0 138 48 177 124 28 54 19 94 -36 168 -28 37 -46 72 -46 88 0 76 -34 110 -130 131 -59 13 -70 28 -70 96 0 60 18 175 29 186 5 5 27 -1 49 -12 23 -12 55 -21 71 -21 39 0 83 38 106 92 10 24 20 44 21 46 1 2 20 -6 43 -17 78 -40 118 -26 160 57 16 31 45 73 65 92 20 19 41 51 47 73 14 54 -11 145 -63 220 -30 45 -38 65 -31 76 5 9 63 62 129 118 146 126 254 236 277 285 22 47 21 113 -3 167 -24 52 -19 64 25 55 22 -4 45 0 69 11 50 24 123 108 136 157 15 52 -2 135 -42 208 l-29 55 28 20 c68 49 83 71 83 122 0 53 9 65 109 155 32 29 41 45 41 69 0 31 -77 202 -127 282 -47 74 -121 94 -228 61 -27 -8 -86 -19 -129 -24 -117 -14 -139 -24 -177 -80 -19 -28 -37 -50 -40 -50 -9 0 -19 39 -19 78 0 44 -25 91 -55 102 -13 5 -64 6 -113 3 -83 -5 -91 -4 -101 14 -7 14 -7 31 -1 54 25 88 5 115 -102 135 -110 21 -159 18 -202 -11 l-36 -24 -117 64 c-165 89 -199 97 -387 93 -85 -2 -157 0 -160 3 -3 3 16 73 43 155 68 205 131 496 131 606 0 51 -22 107 -43 110 -6 1 -75 2 -152 2 -162 1 -180 7 -215 72 -34 64 -67 84 -158 95 -180 21 -223 41 -309 137 -109 123 -108 119 -105 322 3 188 -6 259 -41 330 -56 113 -192 123 -296 21 l-50 -49 -6 47 c-9 61 -39 186 -71 291 -26 88 -27 129 -5 230 21 98 -26 161 -135 181 -53 10 -63 16 -114 71 -86 93 -148 96 -192 9 -33 -67 -58 -101 -71 -101 -7 0 -41 25 -77 55 -113 97 -208 127 -313 100 -32 -8 -64 -15 -71 -15 -7 0 -73 37 -147 82 -157 95 -243 136 -359 172 -47 14 -90 29 -96 33 -9 6 -7 27 6 78 l18 70 69 5 c77 5 99 17 108 59 9 40 -20 166 -50 216 -35 61 -133 146 -216 188 -94 49 -161 51 -208 8z m-3813 -3420 c11 -7 11 -9 -2 -14 -9 -4 -16 -13 -16 -20 0 -8 -7 -20 -15 -27 -18 -15 -20 1 -3 18 7 7 8 12 4 12 -5 0 -3 7 4 15 9 10 9 15 1 15 -6 0 -11 -4 -11 -8 0 -5 -6 -16 -12 -25 -12 -16 -13 -15 -14 7 -2 30 35 46 64 27z m316 -53 c21 -9 25 -17 23 -43 l-2 -31 -37 14 c-21 8 -38 19 -38 24 0 5 9 4 20 -2 14 -7 20 -7 20 0 0 5 -4 10 -10 10 -5 0 -7 7 -4 15 5 11 2 13 -10 9 -9 -3 -16 -1 -16 5 0 14 22 14 54 -1z m2511 -5236 c-7 -14 -9 -13 -15 8 l-7 25 -11 -25 c-6 -14 -11 -19 -11 -12 -1 7 4 22 9 33 10 18 12 18 26 4 10 -10 13 -22 9 -33z"/>
  </g>
</svg>