<?xml version="1.0" encoding="utf-8"?>
<svg version="1.0" xmlns="http://www.w3.org/2000/svg" width="216.000000pt" height="233.000000pt" viewBox="0 0 216.000000 233.000000" preserveAspectRatio="xMidYMid meet">

  <path id="Northeastern region" style="stroke: rgb(0, 0, 0); fill: rgba(191, 109, 109, 0.537);" d="M 85.305 48.239 L 90.732 55.436 L 94.001 53.571 L 97.013 56.528 L 94.546 62.55 L 93.185 71.476 L 100.358 76.04 L 110.135 80.978 L 124.665 75.091 L 125.611 70.307 L 140.972 73.858 L 146.579 66.773 C 146.579 66.773 155.31 62.765 155.353 62.765 C 155.396 62.765 162.738 60.549 162.738 60.549 L 163.661 55.234 L 155.611 43.806 L 147.256 34.901 L 140.66 37.86 C 140.66 37.86 131.222 41.827 131.202 41.827 C 131.182 41.827 121.767 37.725 121.767 37.725 L 120.33 41.645 L 115.975 40.309 L 109.042 45.103 L 106.501 45.835 L 104.375 48.303 C 104.375 48.303 96.568 46.294 96.568 46.312 C 96.568 46.33 91.563 45.622 91.563 45.622 C 91.563 45.622 87.985 43.807 87.966 43.825 C 87.947 43.843 85.363 45.266 85.363 45.266 C 85.363 45.266 85.248 48.045 85.305 48.239 Z"/>
  <path id="Eastern region" style="stroke: rgb(0, 0, 0); fill: rgba(102, 211, 108, 0.64);" d="M 119.974 77.625 L 124.856 75.172 L 125.624 69.828 L 140.961 73.969 L 146.731 66.776 L 154.941 62.675 L 162.67 60.589 L 163.917 55.093 L 170.404 60.958 L 189.128 68.52 L 191.527 80.884 L 196.438 91.103 L 200.56 92.944 L 201.294 97.577 L 196.417 104.009 L 195.675 109.344 L 197.567 112.203 L 186.329 115.557 C 186.329 115.557 181.555 107.945 181.555 107.908 C 181.555 107.871 179.677 98.042 179.64 98.042 C 179.603 98.042 170.639 96.494 170.639 96.494 L 163.399 98.33 L 160.254 108.448 L 154.57 112.776 L 149.983 115.225 L 139.595 112.725 L 131.81 108.714 L 129.066 103.081 L 131.267 97.306 L 135.617 91.194 C 135.617 91.194 134.375 84.396 134.337 84.358 C 134.299 84.32 122.929 80.044 122.929 80.044 L 119.974 77.625 Z"/>
  <path id="Southeastern region" style="stroke: rgb(0, 0, 0); fill: rgba(220, 99, 191, 0.61);" d="M 150.837 114.666 L 160.178 108.748 L 163.578 98.262 L 170.895 96.481 L 179.802 98.247 L 181.921 108.386 L 186.347 115.816 L 197.706 112.532 L 197.474 126.783 L 197.379 130.969 L 192.097 133.035 L 184.026 133.878 L 182.31 137.882 C 182.31 137.882 181.956 149.874 181.956 149.893 C 181.956 149.912 179.072 152.708 179.072 152.708 L 175.066 148.66 L 171.363 153.503 C 171.363 153.503 160.749 154.425 160.73 154.425 C 160.711 154.425 150.082 153.637 150.082 153.618 C 150.082 153.599 146.546 151.021 146.564 151.021 C 146.582 151.021 143.504 150.51 143.504 150.51 L 140.963 150.499 L 141.829 145.995 L 148.065 143.584 C 148.065 143.584 147.779 139.495 147.798 139.495 C 147.817 139.495 155.339 137.659 155.339 137.659 C 155.339 137.659 155.788 132.304 155.788 132.285 C 155.788 132.266 156.911 128.238 156.911 128.238 C 156.911 128.238 155.429 125.609 155.41 125.589 C 155.391 125.569 151.842 121.396 151.842 121.396 L 150.837 114.666 Z"/>
  <path id="Vardar region" style="stroke: rgb(0, 0, 0); fill: rgba(117, 164, 210, 0.624);" d="M 104.9 78.246 L 109.908 81.217 L 119.529 77.495 C 119.529 77.495 122.99 80.28 122.99 80.309 C 122.99 80.338 134.64 85.008 134.64 85.008 L 135.627 91.151 L 131.424 96.856 L 128.605 102.645 L 131.698 108.639 L 140.008 113.074 L 150.814 115.738 L 151.863 121.864 L 156.641 127.769 L 155.449 137.816 L 147.757 139.991 L 147.757 143.203 C 147.757 143.203 141.192 146.548 141.219 146.548 C 141.246 146.548 140.41 150.946 140.41 150.946 L 137.755 154.357 L 131.825 152.514 L 120.962 157.354 L 120.053 162.033 L 114.368 159.361 C 114.368 159.361 106.13 154.062 106.13 154.092 C 106.13 154.122 106.278 143.643 106.278 143.577 C 106.278 143.511 106.934 133.958 106.934 133.958 L 103.731 127.931 C 103.731 127.931 99.724 125.337 99.683 125.337 C 99.642 125.337 93.791 128.176 93.791 128.214 C 93.791 128.252 90.754 132.554 90.714 132.593 C 90.674 132.632 84.077 133.668 84.032 133.58 C 83.987 133.492 76.229 128.234 76.229 128.193 C 76.229 128.152 74.363 122.926 74.363 122.926 L 68.802 117.362 C 68.802 117.362 70.487 110.22 70.525 110.18 C 70.563 110.14 76.364 103.092 76.364 103.132 C 76.364 103.172 83.444 103.548 83.483 103.548 C 83.522 103.548 90.199 103.186 90.199 103.186 L 94.648 97.622 L 95.326 89.078 L 103.09 88.887 L 104.9 78.246 Z"/>
  <path id="Pelagonia region" style="stroke: rgb(0, 0, 0); fill: rgba(216, 210, 130, 0.604);" d="M 69.194 117.399 L 62.711 130.483 L 55.328 137.217 L 44.439 132.553 C 44.439 132.553 45.485 145.871 45.535 145.921 C 45.585 145.971 39.48 149.153 39.48 149.153 L 37.033 160.358 L 34.405 172.439 L 35.679 176.444 L 39.349 177.629 L 43.437 173.548 L 51.681 175.583 L 54.36 179.716 L 58.828 181.916 L 70.432 179.135 L 73.308 180.524 L 86.991 175.872 L 93.876 176.761 L 97.136 179.294 L 106.382 173.44 L 112.408 173.516 L 113.502 169.625 L 120.033 162.568 L 106.165 154.184 L 106.916 133.992 L 104.074 128.421 L 100.056 125.187 C 100.056 125.187 93.64 128.207 93.64 128.179 C 93.64 128.151 90.826 132.507 90.826 132.507 L 84.336 133.226 L 75.576 128.115 C 75.576 128.115 74.258 122.355 74.229 122.326 C 74.2 122.297 68.85 117.206 69.194 117.399 Z"/>
  <path id="Southwestern region" style="stroke: rgb(0, 0, 0); fill: rgba(129, 210, 139, 0.573);" d="M 69.261 117.396 L 66.22 111.228 C 66.22 111.228 63.93 100.918 63.93 100.893 C 63.93 100.868 58.516 94.16 58.516 94.16 L 49.287 100.281 C 49.287 100.281 49.367 106.364 49.367 106.398 C 49.367 106.432 46.088 112.114 46.088 112.114 L 39.629 112.022 L 36.751 116.389 C 36.751 116.389 36.839 123.581 36.839 123.616 C 36.839 123.651 37.065 128.578 37.065 128.578 C 37.065 128.578 34.799 131.55 34.799 131.582 C 34.799 131.614 29.098 130.332 29.098 130.332 L 21.844 127.442 L 21.356 131.738 L 17.812 133.561 C 17.812 133.561 19.437 145.114 19.437 145.133 C 19.437 145.152 24.528 153.949 24.528 153.949 L 24.624 157.124 L 31.142 160.948 C 31.142 160.948 34.572 172.396 34.572 172.414 C 34.572 172.432 39.557 149.077 39.557 149.077 L 45.673 145.815 L 44.548 132.27 L 55.215 137.243 L 62.842 130.43 C 62.842 130.43 69.658 116.833 69.261 117.396 Z"/>
  <path id="Skopje region" style="stroke: rgb(0, 0, 0); fill: rgba(210, 58, 165, 0.58);" d="M 22.015 127.489 L 18.791 123.449 L 17.637 120.02 L 14.793 116.807 L 15.838 113.412 L 20.732 111.698 L 20.055 96.749 L 20.878 91.735 L 22.887 89.973 L 23.329 82.916 L 26.462 82.849 L 27.234 83.828 C 27.234 83.828 34.186 83.076 34.208 83.076 C 34.23 83.076 37.9 78.115 37.9 78.115 L 37.294 68.581 C 37.294 68.581 39.066 62.673 39.066 62.694 C 39.066 62.715 47.814 60.357 47.814 60.357 L 50.292 57.285 L 64.189 50.724 L 71.933 61.271 L 74.861 60.509 L 79.197 50.333 C 79.197 50.333 82.85 47.13 82.85 47.152 C 82.85 47.174 84.92 47.409 84.92 47.409 L 90.969 55.917 L 94.242 53.7 L 96.774 56.66 L 94.532 64.224 C 94.532 64.224 93.359 71.768 93.359 71.79 C 93.359 71.812 105.033 78.553 105.033 78.553 L 102.857 88.983 L 95.115 88.919 L 94.779 97.61 L 90.351 103.295 C 90.351 103.295 76.676 102.894 76.654 102.894 C 76.632 102.894 70.452 109.842 70.452 109.842 L 68.891 116.831 C 68.891 116.831 65.981 111.439 65.981 111.416 C 65.981 111.393 63.616 100.453 63.616 100.453 L 58.271 93.938 L 49.031 100.114 L 49.078 106.698 C 49.078 106.698 46.308 112.021 46.308 112.043 C 46.308 112.065 38.989 111.963 38.989 111.963 L 36.63 117.072 L 37.118 128.752 L 34.656 132.136 L 22.015 127.489 Z"/>
    <g transform="translate(0.000000,233.000000) scale(0.100000,-0.100000)" fill="#000000" stroke="none">
    <path d="M1433 1971 c-18 -18 -99 -51 -128 -51 -8 0 -29 9 -47 20 -37 23 -48 25 -48 9 0 -5 4 -8 9 -5 5 3 20 -3 34 -14 14 -11 34 -20 46 -20 33 0 114 30 137 51 20 19 21 19 65 -23 24 -23 54 -55 66 -72 81 -110 100 -130 145 -152 67 -34 93 -45 108 -48 51 -10 70 -26 71 -58 0 -18 4 -42 9 -53 7 -14 8 -9 4 20 -10 74 -14 85 -33 85 -10 0 -21 3 -25 7 -3 4 -16 8 -29 10 -12 2 -26 8 -31 13 -6 6 -16 10 -23 10 -24 0 -121 68 -128 89 -7 23 -51 77 -112 138 -24 24 -43 47 -43 53 0 17 -28 11 -47 -9z"/>
    <path d="M1112 1909 c-18 -18 -31 -34 -28 -36 2 -3 18 10 34 27 26 26 34 30 51 21 23 -13 41 -14 41 -3 0 4 -8 8 -17 8 -10 1 -25 4 -33 8 -10 4 -27 -5 -48 -25z"/>
    <path d="M868 1893 c-10 -3 -18 -11 -18 -19 0 -8 -7 -14 -15 -14 -21 0 -53 -34 -61 -65 -3 -14 -10 -28 -15 -31 -5 -3 -9 -14 -9 -26 0 -16 -5 -19 -25 -16 -14 3 -25 1 -25 -3 0 -17 51 -9 56 9 26 77 57 122 86 122 10 0 18 6 18 14 0 21 27 27 44 11 8 -8 29 -14 48 -14 18 1 46 -4 61 -10 36 -14 35 -15 47 12 10 20 10 20 -3 4 -12 -15 -19 -16 -43 -6 -16 6 -42 11 -58 11 -16 -1 -38 5 -50 12 -11 7 -29 11 -38 9z"/>
    <path d="M590 1801 c-19 -15 -50 -32 -68 -36 -18 -4 -36 -13 -39 -21 -3 -8 -13 -14 -23 -14 -32 0 -78 -30 -90 -60 -8 -20 -9 -42 -2 -73 12 -58 -10 -101 -46 -92 -13 3 -30 1 -38 -6 -11 -9 -14 -9 -14 0 0 7 -10 11 -22 9 -20 -3 -23 -9 -22 -45 0 -29 -4 -43 -12 -43 -24 0 -27 -82 -8 -177 4 -24 2 -32 -10 -36 -13 -4 -13 -5 1 -3 19 2 19 6 8 128 -5 49 -3 60 14 74 14 13 18 25 14 55 -5 31 -2 39 10 39 9 0 19 -5 22 -10 4 -6 12 -7 18 -3 6 4 23 6 37 5 19 -1 32 6 47 26 19 25 20 34 11 76 -14 67 1 99 55 116 23 8 47 19 52 26 6 6 26 16 46 22 19 5 48 21 63 36 39 35 51 33 82 -14 34 -51 43 -52 13 -2 -38 62 -49 64 -99 23z"/>
    <path d="M1910 1521 c0 -6 4 -11 9 -11 5 0 13 -10 16 -22 15 -52 28 -78 41 -78 7 0 18 -10 25 -21 9 -17 7 -28 -7 -55 -10 -19 -24 -34 -31 -34 -15 0 -18 -56 -4 -65 6 -3 8 -44 7 -91 -2 -47 -1 -83 2 -80 9 10 11 165 1 171 -12 8 -12 55 0 55 5 0 19 16 31 37 18 30 19 40 10 64 -7 15 -20 29 -30 32 -12 3 -23 20 -29 45 -11 38 -41 78 -41 53z"/>
    <path d="M147 1179 c-4 -13 1 -26 14 -37 10 -9 19 -26 19 -37 0 -11 8 -25 19 -32 24 -15 17 -63 -11 -71 -17 -4 -18 -10 -12 -46 4 -22 8 -50 9 -61 2 -12 15 -38 29 -60 15 -21 25 -47 24 -58 -3 -19 9 -30 45 -41 9 -3 19 -11 22 -18 2 -7 13 -46 25 -85 15 -54 25 -73 38 -73 16 1 16 1 1 10 -9 5 -20 22 -24 37 -27 111 -36 131 -65 142 -19 6 -30 17 -30 29 0 11 -12 36 -26 58 -14 21 -28 54 -30 73 -3 20 -7 44 -10 54 -4 12 1 24 14 33 28 20 34 62 11 82 -11 9 -19 24 -19 33 0 9 -9 24 -20 34 -15 13 -17 22 -9 36 5 11 6 19 1 19 -6 0 -12 -9 -15 -21z"/>
    <path d="M1968 1033 c-4 -14 -16 -23 -34 -26 -29 -4 -29 -4 -3 -6 29 -1 53 21 47 41 -3 7 -7 3 -10 -9z"/>
    <path d="M1832 988 c-7 -7 -11 -38 -10 -77 l2 -66 5 70 6 70 35 6 c35 6 35 6 5 8 -17 0 -36 -4 -43 -11z"/>
    <path d="M1727 819 c-14 -25 -22 -30 -41 -25 -13 3 -38 1 -56 -5 -24 -9 -37 -9 -55 1 -13 7 -33 10 -44 7 -12 -3 -22 1 -25 9 -3 8 -13 14 -23 14 -14 0 -13 -3 6 -17 31 -21 67 -25 186 -22 34 0 45 6 60 30 l20 29 18 -21 c14 -17 20 -19 32 -9 8 7 15 17 15 23 0 6 -6 3 -13 -7 -12 -16 -14 -16 -31 3 -25 27 -28 27 -49 -10z"/>
    <path d="M1428 823 c6 -2 18 -2 25 0 6 3 1 5 -13 5 -14 0 -19 -2 -12 -5z"/>
    <path d="M1274 795 c-55 -27 -74 -44 -74 -65 0 -10 -18 -37 -40 -59 -22 -22 -40 -48 -40 -57 0 -13 -7 -16 -34 -11 -29 5 -40 0 -71 -29 -42 -39 -53 -41 -70 -17 -19 26 -86 25 -141 -3 -52 -27 -74 -30 -91 -13 -8 8 -20 7 -44 -5 -18 -9 -52 -16 -76 -16 -36 0 -45 4 -52 23 -13 32 -30 44 -78 50 -38 4 -44 2 -58 -22 -16 -26 -16 -26 3 -5 13 16 26 21 48 17 46 -7 73 -24 76 -47 3 -18 11 -22 52 -24 30 -2 61 3 83 13 27 13 37 14 49 4 12 -9 24 -9 57 0 23 7 49 19 57 26 23 19 82 15 107 -7 26 -24 52 -18 89 21 23 25 32 28 65 24 35 -5 39 -3 39 16 0 12 17 36 39 57 24 21 41 46 43 62 2 21 14 33 53 52 46 24 52 24 77 11 24 -14 28 -14 47 3 12 11 19 22 16 24 -3 3 -12 -3 -19 -14 -14 -18 -16 -18 -43 -4 -26 15 -31 14 -69 -5z"/>
  </g>
</svg>