<?xml version="1.0" encoding="utf-8"?>
<svg version="1.0" xmlns="http://www.w3.org/2000/svg" width="626.000000pt" height="626.000000pt" viewBox="0 0 626.000000 626.000000" preserveAspectRatio="xMidYMid meet">
  <path id="Kosovo i Metohija" style="stroke: rgb(0, 0, 0); fill: rgb(213, 132, 132); stroke-width: 4px;" d="M 255.467 476.997 L 270.952 473.403 L 279.111 461.464 L 269.679 448.563 L 282.739 442.98 C 282.739 442.98 296.884 437.071 296.987 437.071 C 297.09 437.071 298.683 425.783 298.683 425.783 L 304.425 415.135 L 312.884 407.115 C 312.884 407.115 324.088 415.437 324.088 415.539 C 324.088 415.641 320.542 428.041 320.542 428.041 L 328.922 433.891 L 341.181 430.388 L 355.183 437.987 L 365.594 450.838 L 369.592 467.723 L 377.034 477.36 L 389.957 481.674 L 383.526 499.307 L 398.69 505.627 C 398.69 505.627 411.991 510.452 411.885 510.452 C 411.779 510.452 408.524 523.495 408.524 523.598 C 408.524 523.701 398.891 535.702 398.891 535.702 L 393.968 549.436 L 391.935 562.75 C 391.935 562.75 384.079 560.205 384.079 560.14 C 384.079 560.075 380.604 564.251 380.604 564.251 L 370.048 558.429 L 370.048 562.052 L 363.84 564.202 L 359.447 583.191 L 354.776 584.817 L 342.91 570.125 L 334.697 570.493 C 334.697 570.493 314.335 583.261 314.335 583.32 C 314.335 583.379 303.984 590.349 303.984 590.349 L 301.902 611.109 L 294.911 614.971 L 286.727 619.787 L 282.539 617.411 L 290.649 602.573 L 285.226 598.02 L 275.294 568.278 L 255.779 554.53 L 248.165 554.407 L 243.15 537.077 L 231.462 525.417 L 229.597 513.274 L 219.934 503.74 C 219.934 503.74 219.934 496.351 219.934 496.286 C 219.934 496.221 225.552 491.31 225.552 491.31 L 240.13 495.908 L 245.305 491.883 L 251.847 482.547 C 251.847 482.547 256.331 476.082 255.467 476.997 Z"/>
  <path id = "Jugozapadna Srbija" style="stroke: rgb(0, 0, 0); fill: rgb(198, 213, 177);" d="M 157.84 346.964 C 157.84 346.964 170.914 340.769 185.811 339.396 C 201.344 337.964 218.727 341.352 218.727 341.4 C 218.727 341.494 232.824 351.996 232.824 351.996 L 248.6 351.148 C 248.6 351.148 252.305 337.993 252.305 337.896 C 252.305 337.799 257.301 329.256 257.391 329.256 C 257.481 329.256 270.344 328.004 270.344 328.004 C 270.344 328.004 282.946 337.111 282.946 337.201 C 282.946 337.291 294.006 341.797 294.006 341.797 C 294.006 341.797 307.865 347.377 307.865 347.467 C 307.865 347.557 310.198 357.645 310.198 357.645 C 310.198 357.645 300.263 360.878 300.263 360.968 C 300.263 361.058 296.576 369.741 296.576 369.741 L 294.418 388.124 C 294.418 388.124 303.047 403.731 303.047 403.822 C 303.047 403.913 308.228 409.867 308.228 409.867 C 308.228 409.867 302.198 414.976 302.198 415.003 C 302.198 415.03 297.281 424.255 297.281 424.255 L 295.088 435.955 L 267.361 447.325 L 277.708 461.117 L 269.327 471.688 L 254.246 475.743 L 247.669 467.126 L 235.564 464.823 L 228.769 460.631 C 228.769 460.631 220.231 461.279 220.168 461.279 C 220.105 461.279 217.692 461.125 217.692 461.125 L 212.038 450.224 L 180.591 428.108 L 173.857 418.86 L 165.357 413.065 L 158.657 403.243 L 149.312 400.333 L 138.949 388.793 L 144.673 380.306 L 155.403 376.392 L 156.882 385.329 C 156.882 385.329 166.42 378.938 166.448 378.938 C 166.476 378.938 168.614 372.165 168.614 372.165 C 168.614 372.165 171.168 362.968 171.196 362.968 C 171.224 362.968 164.825 355.932 164.825 355.932 C 164.825 355.932 158.036 346.732 157.84 346.964 Z"/>
  <path id = "Zapadna Srbija" style="stroke: rgb(0, 0, 0); fill: rgb(145, 154, 202);" d="M 149.002 195.11 L 160.945 182.855 C 160.945 182.855 170.347 174.731 170.43 174.719 C 170.513 174.707 184.929 175.002 185.715 175.528 C 186.501 176.054 195.684 180.84 195.684 180.939 C 195.684 181.038 196.857 192.035 196.857 192.035 L 195.402 208.877 C 195.402 208.877 211.617 220.101 211.617 220.197 C 211.617 220.293 230.866 225.115 230.866 225.215 C 230.866 225.315 242.092 236.48 242.092 236.48 L 246.972 244.226 L 259.102 243.824 L 269.726 229.669 L 280.038 228.054 C 280.038 228.054 290.649 238.205 290.649 238.304 C 290.649 238.403 289.981 255.752 289.981 255.752 L 285.591 279.357 C 285.591 279.357 279.254 299.888 279.254 299.97 C 279.254 300.052 280.959 312.566 280.959 312.566 L 288.843 325.549 L 288.096 339.465 L 281.099 336.433 L 270.306 328.107 L 257.457 328.736 L 252.112 338.32 L 248.86 351.335 L 232.85 352.296 L 219.007 341.884 L 184.797 338.878 L 157.357 347.37 L 142.864 325.147 C 142.864 325.147 141.785 315.958 141.785 315.928 C 141.785 315.898 144.681 315.609 144.681 315.638 C 144.681 315.667 166.035 326.932 166.035 326.932 L 173.736 319.368 L 179.273 311.45 C 179.273 311.45 158.207 294.872 158.178 294.843 C 158.149 294.814 150.233 283.937 150.233 283.937 L 138.737 281.428 C 138.737 281.428 127.79 271.04 127.79 271.011 C 127.79 270.982 128.266 262.683 128.266 262.683 L 132.773 256.575 C 132.773 256.575 128.59 247.976 128.59 248.005 C 128.59 248.034 134.325 243.488 134.325 243.488 C 134.325 243.488 136.13 237.277 136.13 237.247 C 136.13 237.217 144.903 226.082 144.903 226.082 C 144.903 226.082 150.89 202.065 150.89 202.036 C 150.89 202.007 151.633 197.11 151.633 197.11 L 149.002 195.11 Z"/>
  <path id="Srem" style="stroke: rgb(0, 0, 0); fill: rgb(113, 225, 153);" d="M 276.817 227.447 L 282.186 218.465 L 287.365 212.176 L 294.474 203.799 L 289.542 198.061 L 285.609 192.464 L 286.587 180.164 C 286.587 180.164 280.068 169.632 279.92 169.557 C 279.772 169.482 271.475 162.208 271.475 162.139 C 271.475 162.07 267.015 157.837 267.015 157.77 C 267.015 157.703 254.3 159.164 254.3 159.164 L 240.597 154.572 C 240.597 154.572 234.157 147.873 234.157 147.806 C 234.157 147.739 219.806 144.312 219.806 144.243 C 219.806 144.174 209.568 144.828 209.501 144.828 C 209.434 144.828 193.796 144.828 193.796 144.828 L 179.616 143.082 L 162.258 146.567 L 157.541 150.038 C 157.541 150.038 157.397 157.036 157.375 157.036 C 157.353 157.036 143.785 155.984 143.764 155.984 C 143.743 155.984 135.785 152.722 135.785 152.722 L 132.519 152.722 L 129.781 160.431 L 125.915 161.342 L 120.733 161.342 C 120.733 161.342 122.436 172.081 122.415 172.081 C 122.394 172.081 119.614 179.922 119.614 179.922 L 125.461 186.99 C 125.461 186.99 115.296 190.117 115.296 190.137 C 115.296 190.157 112.797 193.08 112.797 193.08 L 117.617 199.881 C 117.617 199.881 125.763 198.938 125.763 198.917 C 125.763 198.896 131.83 193.161 131.83 193.161 L 149.788 194.773 C 149.788 194.773 163.791 180.37 163.744 180.323 C 163.697 180.276 169.862 174.752 169.883 174.752 C 169.904 174.752 186.172 175.394 186.193 175.372 C 186.214 175.35 196.152 182.141 196.152 182.141 L 197.061 193.031 L 195.795 209.12 L 212.209 220.095 L 231.715 225.18 L 243.12 237.24 L 247.395 244.24 L 259.435 243.485 C 259.435 243.485 269.324 229.791 269.302 229.768 C 269.28 229.745 277.062 227.602 276.817 227.447 Z"/>
  <path id="Backa" style="stroke: rgb(0, 0, 0); fill: rgb(89, 193, 195);" d="M 259.422 158.653 L 247.112 123.57 L 236.229 105.208 C 236.231 105.212 228.059 97.748 224.743 91.647 C 224.743 91.647 223.934 83.891 225.222 78.933 C 226.618 73.561 229.654 66.119 229.654 66.077 C 229.654 65.997 228.38 38.983 228.38 38.983 L 228.38 23.394 L 227.403 16.961 L 219.412 15.306 C 219.412 15.306 213.909 17.433 213.885 17.409 C 213.861 17.385 206.709 13.339 206.709 13.339 L 189.561 18.905 C 189.561 18.905 180.101 14.399 180.101 14.376 C 180.101 14.353 165.207 16.125 165.183 16.125 C 165.159 16.125 152.362 31.364 152.362 31.364 L 140.646 34.134 C 140.646 34.134 141.038 42.176 141.038 42.199 C 141.038 42.222 126.512 39.194 126.512 39.194 C 126.512 39.194 122.251 35.869 122.251 35.846 C 122.251 35.823 119.835 36.71 119.835 36.71 L 119.003 46.758 L 110.61 50.884 L 97.309 51.566 L 95.775 58.969 L 99.908 63.789 L 100.853 71.098 L 102.463 72.936 L 99.683 76.724 C 99.683 76.724 108.873 86.558 108.873 86.535 C 108.873 86.512 104.801 101.427 104.801 101.477 C 104.801 101.527 108.937 105.383 108.937 105.383 C 108.937 105.383 117.854 102.202 117.882 102.202 C 117.91 102.202 120.623 106.169 120.623 106.169 L 120.048 109.427 L 115.609 110.03 L 112.768 113.434 C 112.768 113.434 114.447 119.042 114.474 119.042 C 114.501 119.042 113.414 126.114 113.414 126.114 L 124.153 137.556 L 134.692 143.031 L 138.899 143.321 L 143.478 146.342 L 157.024 149.896 C 157.024 149.896 162.157 145.802 162.157 145.779 C 162.157 145.756 179.73 142.852 179.73 142.852 L 194.137 144.842 L 219.193 144.165 C 219.193 144.165 233.829 147.262 233.852 147.284 C 233.875 147.306 240.994 154.827 240.994 154.827 L 254.175 159.337 L 259.422 158.653 Z"/>
  <path id="Banat" style="stroke: rgb(0, 0, 0); fill: rgb(191, 163, 67);" d="M 281.859 171.57 C 281.859 171.57 288.599 165.901 288.599 165.83 C 288.599 165.759 297.032 167.402 297.032 167.468 C 297.032 167.534 303.805 178.745 303.805 178.895 C 303.805 179.045 310.911 193.588 310.911 193.588 C 310.911 193.588 311.14 202.848 315.606 205.934 C 320.072 209.02 331.588 207.558 329.932 206.439 L 343.144 202.572 L 352.59 204.29 L 349.57 197.481 L 354.456 194.215 C 354.456 194.215 367.775 194.518 367.775 194.48 C 367.775 194.442 367.812 189.339 367.851 189.299 C 367.89 189.259 353.361 178.423 353.361 178.423 L 350.268 173.363 L 355.866 170.451 L 360.53 159.985 L 363.775 156.744 C 363.775 156.744 343.237 143.209 343.237 143.169 C 343.237 143.129 334.302 142.894 334.302 142.932 C 334.302 142.97 330.89 138.65 330.89 138.65 L 328.669 132.43 L 319.707 133.406 C 319.707 133.406 310.561 129.764 310.561 129.725 C 310.561 129.686 295.672 114.971 295.672 114.971 L 288.105 109.305 L 291.004 99.387 L 286.195 91.847 L 288.842 71.05 L 285.348 68.879 L 279.988 71.533 L 273.313 65.549 L 266.209 52.911 C 266.209 52.911 258.579 50.389 258.579 50.349 C 258.579 50.309 255.023 44.215 255.023 44.215 L 243.392 37.032 L 233.27 20.516 L 228.015 16.766 L 228.701 25.199 L 229.849 67.281 L 224.863 79.983 L 224.769 91.769 L 235.813 105.179 L 247.118 123.346 L 259.971 158.732 L 267.023 157.716 C 267.023 157.716 282.05 171.688 281.859 171.57 Z"/>
  <path id="Beograd" style="stroke: rgb(0, 0, 0); fill: rgb(218, 48, 48);" d="M 323.707 208.236 L 318.854 214.733 L 318.186 224.404 L 316.692 236.654 L 310.804 241.334 L 303.572 242.476 L 297.611 229.775 L 293.887 222.385 L 287.967 218.336 L 284.487 216.426 L 287.775 211.653 L 294.354 203.762 L 285.545 192.157 L 286.565 179.901 L 281.902 172.215 L 288.553 166.133 L 297.822 168.21 L 306.56 185.093 L 310.937 193.942 L 314.965 205.228 L 323.707 208.236 Z"/>
  <path id="Pomoravlje" style="stroke: rgb(0, 0, 0); fill: rgb(63, 53, 38);" d="M 316.933 236.362 L 320.594 240.384 L 328.252 239.458 L 342.018 264.043 L 343.365 289.956 L 341.572 297.777 L 345.369 304.65 L 351.079 304.549 L 357.058 308.218 C 357.058 308.218 362.157 315.283 362.157 315.326 C 362.157 315.369 361.709 326.945 361.709 326.945 L 360.998 332.367 L 369.613 333.928 L 371.873 332.254 C 371.873 332.254 374.651 340.187 374.651 340.23 C 374.651 340.273 372.193 354.05 372.193 354.006 C 372.193 353.962 367.183 355.486 367.183 355.486 C 367.183 355.486 365.125 360.973 365.125 361.017 C 365.125 361.061 366.924 368.981 366.924 368.981 L 374.285 374.101 L 383.975 371.221 L 389.097 367.37 L 397.815 367.092 L 405.596 365.639 L 409.54 358.609 C 409.54 358.609 408.874 350.138 408.815 350.138 C 408.756 350.138 393.072 311.083 393.072 311.083 C 393.072 311.083 396.46 301.444 396.46 301.385 C 396.46 301.326 402.608 298.904 402.608 298.904 L 403.205 284.639 C 403.205 284.639 394.919 280.151 394.86 280.092 C 394.801 280.033 388.456 279.788 388.456 279.788 L 387.103 268.729 L 383.351 261.004 L 397.082 256.984 L 397.346 247.292 L 396.581 239.267 C 396.581 239.267 387.382 239.071 387.323 239.012 C 387.264 238.953 382.53 234.344 382.53 234.344 L 382.53 226.607 L 383.95 222.322 L 377.027 219.633 L 371.562 209.401 L 352.909 206.801 L 351.115 203.578 L 343.781 202.775 L 329.872 206.741 L 324.482 208.209 L 318.602 214.622 L 316.933 236.362 Z"/>
  <path id="Sumadija" style="stroke: rgb(0, 0, 0); fill: rgb(119, 193, 104);" d="M 390.675 367.217 C 390.675 367.217 390.925 383.366 390.925 383.421 C 390.925 383.476 381.625 397.531 381.625 397.531 C 381.625 397.531 360.533 409.618 360.533 409.675 C 360.533 409.732 351.147 403.944 351.147 403.944 C 351.147 403.944 347.397 397.903 347.397 397.847 C 347.397 397.791 353.786 387.468 353.786 387.468 L 346.202 382.446 L 336.336 372.594 C 336.336 372.594 323.54 368.723 323.409 368.657 C 323.278 368.591 311.681 362.422 311.681 362.422 C 311.681 362.422 309.996 357.551 309.975 357.551 C 309.954 357.551 308.01 347.479 308.01 347.479 L 288.037 339.296 C 288.037 339.296 288.877 325.17 288.898 325.17 C 288.919 325.17 280.759 312.995 280.759 312.995 L 279.424 300.148 L 285.843 278.432 L 290.139 256.583 C 290.139 256.583 290.403 238.707 290.403 238.687 C 290.403 238.667 280.621 228.328 280.621 228.328 L 274.981 228.914 L 283.149 217.396 L 284.536 216.586 L 293.986 222.862 C 293.986 222.862 303.004 243.737 303.004 243.716 C 303.004 243.695 310.827 241.263 310.827 241.283 C 310.827 241.303 316.58 237.363 316.58 237.363 L 320.107 240.762 L 328.286 240.154 L 342.16 265.213 L 343.917 289.366 L 341.708 297.756 L 345.685 305.281 L 350.855 305.054 L 357.45 308.883 C 357.45 308.883 361.392 315.893 361.412 315.893 C 361.432 315.893 360.862 332.802 360.862 332.802 L 369.708 334.351 L 371.963 332.748 C 371.963 332.748 374.707 340.531 374.707 340.551 C 374.707 340.571 372.382 354.001 372.382 354.021 C 372.382 354.041 369.163 354.825 369.163 354.825 L 366.966 355.511 C 366.966 355.511 364.866 361.498 364.866 361.518 C 364.866 361.538 367.801 369.396 367.801 369.416 C 367.801 369.436 371.08 372.129 371.08 372.129 L 374.093 374.407 L 384.893 371.129 L 388.721 366.966 L 390.675 367.217 Z"/>
  <path id="Jugoistocna Srbija" style="stroke: rgb(0, 0, 0); fill: rgb(204, 54, 132);" d="M 405.91 365.368 L 426.146 369.874 C 426.146 369.874 427.377 382.981 427.377 383.027 C 427.377 383.073 429.918 401.585 429.918 401.585 L 437.369 401.585 C 437.369 401.585 440.52 410.015 440.52 410.063 C 440.52 410.111 443.245 419.412 443.245 419.46 C 443.245 419.508 450.991 426.584 451.096 426.689 C 451.201 426.794 448.213 440.248 448.213 440.294 C 448.213 440.34 453.164 449.354 453.164 449.354 C 453.164 449.354 470.17 442.981 470.17 443.028 C 470.17 443.075 481.695 446.6 481.695 446.6 L 482.375 456.501 L 488.313 463.854 L 484.067 467.955 L 478.753 469.162 L 470.603 478.869 L 477.133 491.93 L 472.627 510.518 L 484.451 523.044 C 484.451 523.044 482.493 533.768 482.493 533.808 C 482.493 533.848 468.16 548.57 468.16 548.57 L 461.066 548.57 L 455.61 545.457 L 436.416 552.709 L 429.3 549.83 L 420.881 550.135 L 414.165 548.741 L 406.897 560.6 L 392.811 561.009 L 397.91 532.694 L 407.353 527.087 L 414.982 511.002 C 414.982 511.002 383.521 498.938 383.479 498.938 C 383.437 498.938 390.213 482.686 390.213 482.686 C 390.213 482.686 377.365 476.991 377.325 476.991 C 377.285 476.991 370.02 466.814 369.979 466.814 C 369.938 466.814 365.771 447.91 365.771 447.91 L 354.825 438.714 L 341.223 430.751 L 329.281 433.056 L 320.326 428.643 L 325.204 414.076 C 325.204 414.076 315.004 407.441 315.004 407.402 C 315.004 407.363 309.257 410.38 309.257 410.419 C 309.257 410.458 303.662 404.349 303.662 404.349 L 294.109 387.765 L 296.777 368.896 L 300.298 360.931 L 310.151 357.936 C 310.151 357.936 311.628 362.536 311.628 362.521 C 311.628 362.506 323.088 368.488 323.088 368.488 L 336.245 372.473 C 336.245 372.473 345.759 381.945 345.759 381.93 C 345.759 381.915 353.599 387.467 353.584 387.481 C 353.569 387.495 347.736 398.214 347.736 398.214 C 347.736 398.214 351.25 403.659 351.25 403.674 C 351.25 403.689 360.511 409.499 360.511 409.499 L 381.298 397.677 L 390.798 383.231 L 390.739 367.491 L 400.011 366.631 C 400.011 366.631 406.129 364.596 405.91 365.368 Z"/>
  <path id="Istocna Srbija" style="stroke: rgb(0, 0, 0); fill: rgb(247, 231, 161);" d="M 383.75 223.835 L 382.689 233.942 L 387.969 239.635 L 397.134 239.635 L 397.793 246.976 L 397.637 257.419 L 383.722 260.794 L 387.661 269.192 C 387.661 269.192 388.709 279.698 388.709 279.727 C 388.709 279.756 394.245 279.934 394.274 279.934 C 394.303 279.934 403.746 285.116 403.746 285.116 L 402.671 300.011 L 396.636 301.359 L 393.168 310.728 L 408.863 350.747 L 409.372 358.332 L 405.986 365.6 L 426.46 370.075 L 430.287 401.585 L 437.896 401.462 L 443.417 419.638 L 451.348 427.13 L 448.377 440.486 L 453.073 449.251 C 453.073 449.251 470.559 443.014 470.559 443.033 C 470.559 443.052 481.755 446.839 481.755 446.839 L 482.462 457.154 L 488.175 464.037 L 494.511 469.783 L 505.318 460.223 L 514.171 444.461 L 523.235 432.401 L 523.868 420.427 C 523.868 420.427 513.956 416.943 513.937 416.924 C 513.918 416.905 510.57 410.758 510.57 410.738 C 510.57 410.718 496.305 398.118 496.305 398.118 C 496.305 398.118 485.181 392.498 485.162 392.498 C 485.143 392.498 479.961 389.391 479.941 389.391 C 479.921 389.391 468.851 372.45 468.851 372.45 L 468.851 363.624 L 460.62 355.547 L 458.136 343.437 L 456.681 338.457 L 459.791 309.543 L 469.367 308.12 L 476.862 299.36 L 475.097 293.188 C 475.097 293.188 482.534 281.845 482.516 281.845 C 482.498 281.845 482.263 274.075 482.263 274.075 C 482.263 274.075 470.847 263.352 470.828 263.352 C 470.809 263.352 465.39 251.488 465.371 251.488 C 465.352 251.488 459.482 246.406 459.482 246.387 C 459.482 246.368 461.329 243.795 461.348 243.795 C 461.367 243.795 469.283 245.176 469.301 245.176 C 469.319 245.176 470.2 235.039 470.182 235.039 C 470.164 235.039 487.041 237.152 487.041 237.152 L 489.995 233.883 L 485.726 230.372 L 471.563 222.317 C 471.563 222.317 456.458 212.481 456.458 212.463 C 456.458 212.445 448.835 219.173 448.835 219.154 C 448.835 219.135 442.752 221.452 442.752 221.452 C 442.752 221.452 439.276 228.572 439.276 228.59 C 439.276 228.608 435.854 237.863 435.836 237.863 C 435.818 237.863 431.878 246.536 431.859 246.536 C 431.84 246.536 428.418 247.054 428.399 247.074 C 428.38 247.094 421.527 243.834 421.508 243.815 C 421.489 243.796 417.241 237.087 417.241 237.068 C 417.241 237.049 411.443 227.46 411.443 227.46 L 397.044 224.125 L 383.75 223.835 Z"/>
  <g transform="matrix(0.112198, 0, 0, -0.110475, -41.490372, 661.830872)" fill="#000000" stroke="none" style="">
    <path d="M1900 5880 c-8 -5 -23 -10 -33 -10 -25 0 -77 -40 -77 -60 0 -8 -20 -35 -45 -58 -35 -33 -54 -43 -86 -46 -48 -4 -69 -28 -50 -58 13 -21 9 -22 -59 -7 -35 7 -56 18 -66 35 -15 22 -17 23 -41 7 -22 -14 -24 -22 -20 -55 5 -34 2 -40 -18 -48 -13 -5 -26 -14 -30 -19 -3 -6 -29 -11 -56 -11 -28 0 -63 -7 -79 -15 -25 -13 -30 -22 -30 -53 0 -27 6 -41 20 -50 17 -10 20 -19 14 -46 -4 -26 -2 -36 11 -43 16 -9 16 -11 1 -16 -25 -10 -19 -40 14 -62 50 -34 55 -53 31 -130 l-22 -69 25 -24 c22 -22 26 -23 59 -12 21 8 42 10 53 5 18 -8 17 -9 -4 -12 -12 -3 -30 -16 -39 -29 -14 -21 -14 -29 -3 -50 12 -21 11 -30 -4 -62 l-18 -37 28 -20 c16 -11 45 -36 64 -55 50 -50 95 -80 120 -80 12 0 33 -8 46 -19 13 -10 49 -21 83 -25 56 -6 71 -16 71 -47 0 -18 -112 -10 -156 13 -36 17 -46 19 -59 8 -8 -7 -15 -20 -15 -30 0 -25 -24 -42 -52 -35 -13 3 -31 0 -42 -8 -17 -13 -17 -15 -2 -45 20 -39 20 -62 1 -98 -20 -39 -19 -51 9 -79 24 -24 24 -25 6 -35 -10 -5 -33 -10 -50 -10 -39 0 -46 -18 -23 -66 15 -32 24 -40 51 -42 25 -3 41 4 75 33 34 29 48 35 71 31 16 -3 41 -6 56 -6 15 0 38 -8 51 -19 l23 -18 -28 -114 c-29 -121 -46 -156 -95 -203 -21 -20 -31 -39 -31 -58 0 -19 -9 -37 -27 -52 -24 -21 -26 -27 -16 -47 21 -45 21 -56 2 -88 -32 -53 -20 -98 43 -157 44 -42 69 -54 112 -54 33 0 38 -4 57 -45 12 -25 40 -60 63 -77 22 -18 55 -46 71 -63 17 -17 44 -41 62 -55 l32 -25 -43 -49 -44 -48 -64 22 c-34 12 -82 33 -106 46 -28 16 -50 23 -63 19 -18 -6 -20 -12 -14 -51 4 -27 16 -54 34 -73 16 -17 47 -66 69 -109 24 -46 67 -106 106 -147 57 -61 63 -71 53 -89 -6 -12 -13 -39 -16 -61 -5 -30 -11 -41 -26 -43 -11 -2 -31 -15 -44 -30 l-23 -27 5 31 c4 19 1 39 -7 49 -13 18 -15 17 -44 -3 -16 -12 -38 -22 -49 -22 -19 -1 -73 -70 -73 -95 0 -31 23 -62 73 -96 29 -20 61 -39 72 -43 30 -10 64 -41 74 -70 6 -14 28 -34 50 -45 22 -12 43 -26 48 -33 7 -13 9 -18 11 -50 1 -11 10 -18 22 -18 10 0 24 -9 29 -19 6 -10 35 -33 66 -50 30 -17 55 -36 55 -41 0 -5 12 -13 28 -16 47 -12 123 -84 148 -141 26 -57 24 -56 99 -54 40 2 57 -3 84 -23 20 -15 48 -26 65 -26 37 0 46 -6 69 -42 24 -38 22 -76 -7 -99 -13 -10 -26 -32 -29 -49 -4 -20 -15 -34 -31 -40 -34 -12 -91 -2 -112 21 -22 25 -27 24 -63 -7 -25 -21 -31 -33 -31 -66 0 -47 13 -74 52 -108 21 -19 31 -39 38 -80 9 -49 16 -61 66 -107 48 -43 57 -57 57 -85 0 -18 8 -44 19 -57 10 -13 18 -31 18 -40 0 -27 21 -41 63 -41 43 0 107 -33 150 -78 39 -41 83 -139 92 -203 4 -30 18 -74 30 -99 l23 -45 -24 -46 c-30 -61 -22 -103 22 -107 20 -2 36 4 49 18 10 11 26 20 36 20 9 0 29 14 44 32 25 29 27 37 21 89 -5 41 -2 68 9 95 13 34 26 44 95 77 44 22 104 59 133 83 55 45 95 56 115 32 5 -7 22 -35 38 -63 32 -59 52 -76 79 -69 29 9 45 33 45 72 0 19 9 45 20 59 11 14 20 31 20 38 0 7 13 15 30 19 18 3 30 12 30 21 0 19 14 19 46 -1 21 -14 29 -15 49 -4 26 14 76 17 115 6 14 -3 45 0 69 7 36 11 47 20 55 45 17 50 38 65 68 52 20 -10 31 -9 55 3 27 15 32 14 59 -4 40 -26 65 -24 134 11 70 35 89 37 131 11 30 -18 33 -18 78 -3 25 10 48 21 50 27 2 5 23 30 46 55 37 39 44 53 49 105 l7 60 -49 49 c-46 44 -50 53 -49 92 0 24 6 49 13 55 10 8 11 16 4 29 -7 13 -7 21 0 25 5 3 10 17 10 30 0 25 -35 101 -51 111 -5 3 3 15 18 27 15 12 32 27 36 34 4 7 17 13 27 13 11 0 25 9 32 20 16 25 30 25 53 0 10 -11 25 -20 34 -20 24 0 111 92 111 116 0 12 9 29 20 39 11 10 20 23 20 30 0 7 9 20 20 30 11 10 20 23 20 30 0 6 12 22 26 36 39 36 54 72 54 127 0 54 -7 63 -63 83 -27 9 -39 20 -43 39 -7 30 -132 150 -157 150 -11 0 -30 9 -44 20 -14 11 -33 20 -43 20 -9 0 -40 24 -68 54 -40 43 -52 62 -57 100 -4 25 -5 58 -2 71 3 21 -4 33 -39 64 -37 33 -45 46 -50 87 -4 27 -13 56 -21 65 -7 9 -11 23 -8 30 7 18 16 113 18 194 l2 60 40 5 c29 4 43 11 52 29 6 14 23 31 36 38 26 13 42 49 26 59 -16 10 -9 36 20 73 35 45 47 122 22 145 -9 8 -37 34 -63 57 -32 27 -48 50 -48 65 0 13 -12 38 -28 56 -60 72 -60 69 -14 62 38 -6 41 -4 47 19 4 14 6 33 5 43 -4 32 -1 33 35 18 46 -19 119 -18 135 1 21 25 -2 59 -64 94 -31 17 -61 31 -67 31 -6 0 -40 27 -76 60 -70 66 -99 74 -133 38 -11 -12 -20 -25 -20 -30 0 -4 -11 -8 -24 -8 -34 0 -71 -50 -100 -137 -27 -79 -44 -115 -60 -125 -15 -10 -66 23 -66 42 0 9 -11 27 -25 40 -14 13 -25 34 -25 47 0 30 -70 78 -101 70 -12 -3 -35 1 -51 9 -16 8 -45 15 -66 14 -20 0 -57 3 -82 7 -41 7 -46 11 -61 52 -21 58 -38 69 -120 77 -56 5 -71 11 -84 30 -31 48 -13 64 76 64 52 0 69 13 69 52 0 24 -8 32 -58 57 -33 16 -67 42 -76 56 -10 15 -16 27 -14 28 34 18 44 30 53 68 6 25 20 54 32 66 14 14 20 29 16 43 -6 22 -100 90 -125 90 -8 0 -23 7 -35 15 -12 9 -37 15 -56 13 -42 -2 -54 5 -62 41 -3 16 -17 39 -31 52 -25 23 -26 23 -56 6 -29 -17 -31 -17 -60 8 -16 14 -36 25 -44 25 -22 0 -114 90 -114 111 0 19 -43 54 -73 60 -18 4 -18 5 2 31 28 35 26 63 -5 95 -26 25 -26 26 -8 59 14 26 16 38 7 57 -7 14 -8 29 -2 38 14 22 11 61 -7 80 -15 16 -17 16 -49 -2 l-33 -20 -26 31 c-14 18 -26 41 -26 52 0 12 -15 40 -32 64 -25 33 -40 43 -61 44 -19 0 -30 7 -36 23 -11 28 -37 50 -78 66 -37 15 -58 36 -68 71 -20 67 -128 172 -158 153 -5 -3 -17 3 -28 13 -18 17 -22 17 -47 2 -25 -15 -29 -15 -52 4 -29 23 -58 20 -136 -16 l-52 -24 -23 23 c-27 25 -114 41 -139 25z m126 -51 c27 -25 49 -24 108 6 62 31 86 31 116 0 l23 -24 25 20 c23 18 26 18 43 3 11 -10 25 -13 39 -9 29 9 91 -56 128 -134 24 -49 34 -60 85 -85 31 -16 57 -35 57 -41 0 -24 40 -63 59 -58 24 6 81 -62 81 -97 0 -17 13 -38 34 -59 34 -33 35 -33 67 -17 18 9 33 16 34 16 9 0 -3 -142 -13 -152 -20 -20 -14 -54 13 -72 30 -20 31 -39 4 -77 -25 -35 -15 -58 32 -73 21 -7 35 -19 37 -31 6 -30 82 -105 128 -126 23 -10 47 -26 54 -34 14 -17 57 -20 80 -5 18 11 50 -15 50 -40 0 -40 54 -73 95 -60 14 5 134 -52 165 -78 l25 -21 -22 -16 c-13 -9 -23 -22 -23 -28 0 -35 -23 -87 -40 -92 -55 -18 -15 -95 70 -135 72 -34 68 -56 -11 -63 -61 -5 -99 -26 -99 -55 0 -7 8 -28 18 -45 9 -18 17 -33 18 -35 0 -1 38 -7 83 -14 l83 -11 23 -52 c12 -29 27 -55 33 -59 5 -3 46 -8 91 -11 44 -2 94 -11 110 -20 16 -8 36 -12 44 -9 26 10 75 -23 82 -55 3 -16 15 -37 26 -47 10 -9 19 -24 19 -33 0 -22 60 -61 94 -61 24 0 31 8 55 63 16 34 34 80 41 102 18 56 49 95 76 95 15 0 29 11 41 30 9 17 26 30 36 30 10 0 47 -27 81 -60 35 -33 70 -60 78 -60 18 0 105 -47 114 -61 17 -28 -57 -30 -112 -4 -45 21 -64 8 -64 -47 l0 -40 -34 6 c-29 6 -37 3 -46 -14 -10 -18 -5 -29 34 -77 25 -30 46 -65 46 -78 0 -19 41 -64 108 -116 18 -15 5 -77 -24 -116 -38 -50 -45 -78 -26 -97 15 -15 14 -17 -16 -28 -20 -8 -35 -22 -38 -35 -6 -24 -10 -26 -59 -27 l-30 -1 -7 -80 c-19 -216 -19 -242 -3 -255 9 -8 15 -29 15 -59 0 -43 3 -50 45 -84 43 -36 44 -39 44 -91 -1 -30 2 -64 6 -77 11 -36 116 -139 141 -139 12 0 27 -7 34 -15 7 -8 21 -15 31 -15 21 0 138 -95 146 -118 14 -45 29 -60 75 -80 38 -16 49 -25 44 -37 -3 -9 -6 -29 -6 -45 0 -18 -14 -45 -37 -74 -61 -74 -83 -104 -83 -114 0 -5 -9 -17 -20 -27 -11 -10 -20 -28 -20 -40 0 -11 -18 -38 -40 -60 l-40 -39 -23 22 c-31 29 -69 29 -82 0 -7 -16 -17 -22 -33 -20 -16 2 -25 -2 -28 -15 -3 -10 -23 -31 -45 -47 l-40 -28 23 -27 c45 -51 62 -101 38 -116 -6 -4 -8 -16 -5 -26 4 -11 0 -31 -10 -45 -9 -13 -12 -30 -8 -37 4 -6 6 -23 5 -37 -2 -19 10 -38 48 -75 51 -50 51 -50 44 -100 -5 -39 -15 -59 -47 -95 -23 -25 -57 -52 -76 -62 -34 -15 -37 -15 -62 3 -38 27 -67 24 -150 -16 -71 -34 -95 -35 -114 -5 -8 13 -51 13 -77 -1 -15 -8 -27 -8 -45 0 -33 15 -67 -6 -87 -53 -8 -18 -20 -37 -27 -42 -8 -5 -51 -8 -97 -6 -46 1 -92 -3 -103 -8 -15 -8 -25 -7 -41 5 -13 8 -38 15 -56 15 -29 0 -32 -3 -27 -20 5 -16 2 -20 -19 -20 -19 0 -26 -5 -26 -19 0 -10 -9 -30 -21 -45 -11 -14 -24 -48 -27 -74 -10 -70 -33 -67 -73 8 -56 106 -101 114 -195 36 -29 -24 -89 -61 -133 -82 -98 -47 -116 -77 -113 -185 2 -62 0 -69 -24 -88 -15 -12 -31 -21 -37 -21 -6 0 -21 -9 -33 -21 -24 -23 -44 -18 -44 9 1 9 11 37 24 62 l24 45 -25 48 c-13 27 -27 72 -30 100 -7 66 -62 183 -105 223 -51 48 -120 84 -162 84 -26 0 -38 5 -42 18 -3 9 -12 32 -21 50 -9 17 -14 35 -10 38 14 14 -18 65 -67 107 -48 41 -54 51 -60 98 -6 43 -14 59 -43 86 -47 45 -60 99 -31 130 21 22 21 22 46 3 18 -15 40 -20 81 -20 64 1 91 16 91 52 0 15 12 35 30 51 37 33 39 74 8 126 -30 48 -47 60 -86 61 -18 0 -47 10 -63 22 -24 18 -44 23 -92 23 l-61 0 -10 35 c-13 46 -140 170 -167 163 -13 -4 -19 0 -19 11 0 9 -22 25 -54 40 -30 14 -60 34 -65 45 -6 11 -20 23 -31 26 -12 4 -20 15 -20 29 0 25 -30 56 -72 74 -16 6 -28 16 -28 22 0 16 -71 90 -87 90 -25 0 -123 74 -129 97 -8 30 20 68 66 91 l39 19 3 -30 c2 -16 11 -35 21 -41 15 -9 22 -6 41 17 14 18 28 26 38 22 19 -7 38 21 38 55 0 12 9 43 20 69 l21 47 -71 73 c-41 43 -84 99 -102 135 -17 33 -45 81 -63 106 -29 42 -53 100 -40 100 3 0 18 -8 33 -19 15 -10 64 -32 110 -47 l84 -29 39 45 c67 76 72 85 57 109 -7 12 -18 21 -24 21 -7 0 -32 19 -56 43 -24 23 -62 57 -85 74 -23 19 -48 50 -57 72 -18 45 -40 61 -87 61 -39 0 -87 31 -117 75 -25 36 -27 60 -7 95 17 30 19 74 5 100 -8 16 -6 22 15 36 17 11 25 25 25 46 0 21 13 45 44 80 39 45 48 64 71 157 42 161 42 165 8 188 -15 11 -46 23 -68 27 -22 5 -52 10 -68 13 -21 4 -37 -3 -71 -31 -52 -42 -77 -45 -92 -11 -14 29 -9 35 25 35 14 0 41 9 59 20 40 25 40 54 -1 58 -33 4 -43 22 -27 52 13 24 16 86 5 119 -6 20 -4 21 20 15 26 -7 65 17 65 40 0 6 4 17 9 25 7 11 12 11 32 -2 13 -8 61 -17 106 -20 79 -6 81 -6 87 18 8 32 -12 74 -38 80 -12 2 -43 7 -69 10 -28 4 -50 12 -54 21 -3 8 -18 14 -35 14 -34 0 -65 20 -128 83 -25 24 -52 46 -60 49 -12 4 -13 10 -1 45 10 31 11 45 2 62 -16 28 -6 41 30 41 28 0 30 2 27 32 -2 27 -9 34 -36 42 -22 6 -41 5 -59 -3 -21 -10 -29 -9 -40 2 -12 12 -11 23 6 75 12 34 21 68 21 75 0 8 -16 31 -36 51 -35 36 -36 38 -18 58 18 19 18 20 -5 39 -18 15 -21 22 -12 33 10 11 5 22 -20 50 -31 36 -31 37 -13 57 16 18 28 20 71 17 42 -4 56 -1 70 14 9 10 21 18 28 18 27 0 46 37 39 76 l-7 39 25 -22 c13 -13 31 -23 39 -23 8 0 38 -6 67 -14 44 -11 54 -11 63 1 9 10 9 20 0 39 -15 35 -16 34 31 34 37 0 47 6 95 54 29 30 53 60 53 67 0 17 31 38 57 39 12 0 25 5 28 10 10 16 97 1 121 -21z"/>
  </g>
</svg>