<?xml version="1.0" encoding="utf-8"?>
<svg version="1.0" xmlns="http://www.w3.org/2000/svg" width="90%" viewBox="0 0 920.000000 610.000000" preserveAspectRatio="xMidYMid meet">

  <path id="Slovenia / South-East" style="stroke: rgb(0, 0, 0); fill: rgb(124, 197, 132);" d="M 342.893 500.446 L 332.787 428.091 L 347.059 428.67 L 338.469 395.512 C 338.469 395.512 320.686 376.503 320.374 376.345 C 320.062 376.187 308.368 360.119 308.368 360.119 C 308.368 360.119 332.823 352.456 332.959 352.456 C 333.095 352.456 371.581 356.789 371.722 356.93 C 371.863 357.071 389.861 355.297 389.861 355.297 C 389.861 355.297 390.444 321.291 390.444 320.948 C 390.444 320.605 405.362 305.294 405.362 305.294 L 437.862 293.249 C 437.862 293.249 470.831 321.956 470.831 322.108 C 470.831 322.26 523.277 338.621 523.277 338.621 C 523.277 338.621 566.251 340.691 566.251 340.839 C 566.251 340.987 582.711 355.017 582.711 355.017 L 600.526 370.662 C 600.526 370.662 628.195 362.354 628.195 362.201 C 628.195 362.048 631.316 340.225 631.316 340.225 L 645.553 335.98 L 673.296 350.556 L 668.707 396.472 L 664.291 408.907 L 662.612 431.311 L 652.466 435.647 L 631.022 427.701 L 602.665 434.962 L 598.818 453.911 L 556.766 466.365 L 537.523 484.908 L 556.514 504.66 L 567.993 496.558 L 569.456 504.202 L 580.31 510.877 L 578.903 516.894 L 559.965 519.293 C 559.965 519.293 546.385 530.264 546.385 530.332 C 546.385 530.4 552.78 567.194 552.78 567.26 C 552.78 567.326 569.747 587.597 569.747 587.597 L 544.064 586.207 C 544.064 586.207 522.758 602.582 522.691 602.582 C 522.624 602.582 491.349 581.692 491.349 581.692 L 461.188 570.209 C 461.188 570.209 444.319 558.508 444.319 558.441 C 444.319 558.374 436.923 580.546 436.855 580.546 C 436.787 580.546 419.258 587.439 419.258 587.439 L 382.418 558.056 C 382.418 558.056 380.446 538.012 380.512 538.012 C 380.578 538.012 356.862 524.976 356.862 524.976 L 353.636 509.117 L 342.893 500.446 Z"/>
  <path id="Slovenia / North-East" style="stroke: rgb(0, 0, 0); fill: rgb(78, 213, 142);" d="M 350.871 215.373 C 350.871 215.373 374.048 234.143 374.175 234.27 C 374.302 234.397 392.099 224.265 392.226 224.392 C 392.353 224.519 413.202 230.906 413.202 230.906 L 454.794 249.16 C 454.794 249.16 478.381 257.528 478.381 257.815 C 478.381 258.102 483.206 277.513 483.206 277.801 C 483.206 278.089 492.458 305.515 492.458 305.646 C 492.458 305.777 497.501 330.575 497.501 330.575 L 523.413 339.802 L 565.673 341.507 L 600.113 371.241 L 627.806 362.559 L 630.975 340.435 L 645.704 336.949 L 639.472 299.921 L 649.753 282.681 L 655.403 271.329 C 655.403 271.329 687.908 274.893 687.972 274.893 C 688.036 274.893 702.277 255.474 702.277 255.535 C 702.277 255.596 745.991 235.282 745.991 235.346 C 745.991 235.41 767.962 221.299 767.962 221.233 C 767.962 221.167 767.221 201.973 767.221 201.973 L 794.862 195.705 C 794.862 195.705 831.461 202.197 831.461 202.261 C 831.461 202.325 833.278 188.245 833.278 188.245 L 819.627 159.838 C 819.627 159.838 860.007 132.357 860.007 132.294 C 860.007 132.231 905.523 153.76 905.523 153.76 L 901.541 136.028 L 862.614 98.518 C 862.614 98.518 864.186 80.641 864.186 80.577 C 864.186 80.513 840.748 48.987 840.748 48.987 C 840.748 48.987 839 35.365 839 35.299 C 839 35.233 846.318 16.085 846.318 16.085 C 846.318 16.085 829.259 5.101 829.193 5.101 C 829.127 5.101 804.463 12.85 804.463 12.85 L 781.456 13.485 C 781.456 13.485 755.673 26.518 755.607 26.518 C 755.541 26.518 752.167 61.176 752.167 61.176 L 769.492 73.151 C 769.492 73.151 766.895 86.874 766.895 86.937 C 766.895 87 764.949 98.098 764.883 98.098 C 764.817 98.098 751.474 95.68 751.474 95.68 L 730.669 79.61 L 709.035 69.846 L 682.628 81.619 L 661.811 80.862 L 628.172 90.2 L 617.125 111.061 C 617.125 111.061 599.075 117.153 599.011 117.089 C 598.947 117.025 586.023 99.443 586.023 99.443 C 586.023 99.443 534.548 103.712 534.406 103.782 C 534.264 103.852 507.41 102.033 507.41 102.033 C 507.41 102.033 480.781 103.495 480.639 103.495 C 480.497 103.495 463.378 117.451 463.378 117.451 L 452.767 118.89 L 434.688 119.729 L 418.255 159.555 C 418.255 159.555 396.983 165.186 396.919 165.186 C 396.855 165.186 374.326 187.271 374.326 187.271 C 374.326 187.271 354.344 191.253 354.28 191.253 C 354.216 191.253 350.74 216.603 350.871 215.373 Z"/>
  <path id="Slovenia / South-West" style="stroke: rgb(0, 0, 0); fill: rgb(78, 213, 142);" d="M 86.809 289.681 L 104.819 317.127 L 114.38 321.291 L 118.54 307.318 L 130.117 299.872 L 133.521 320.992 L 139.744 335.651 L 171.549 364.082 L 188.104 379.268 L 207.137 389.903 L 218.976 376.798 L 218.976 359.334 L 218.35 337.467 C 218.35 337.467 233.896 337.77 234.036 337.77 C 234.176 337.77 245.997 354.745 245.997 354.745 L 270.776 372.013 L 297.293 372.606 L 316.592 368.825 L 338.893 395.644 L 347.022 429.96 L 333.137 429.401 C 333.137 429.401 342.454 502.223 342.518 502.288 C 342.582 502.353 328.809 530.098 328.809 530.098 L 319.927 531.691 L 319.677 551.323 L 282.278 578.096 L 266.28 576.213 C 266.28 576.213 242.872 572.521 242.805 572.521 C 242.738 572.521 231.636 577.791 231.636 577.791 C 231.636 577.791 214.765 581.113 214.698 581.113 C 214.631 581.113 192.921 578.699 192.854 578.699 C 192.787 578.699 178.823 563.827 178.757 563.827 C 178.691 563.827 161.088 571.985 161.088 571.985 C 161.088 571.985 167.222 586.224 167.222 586.287 C 167.222 586.35 163.916 591.406 163.916 591.406 L 147.427 591.82 C 147.427 591.82 130.731 599.608 130.667 599.608 C 130.603 599.608 114.708 588.937 114.708 588.937 C 114.708 588.937 79.321 592.706 79.177 592.706 C 79.033 592.706 62.336 583.281 62.269 583.281 C 62.202 583.281 58.274 566.176 58.274 566.112 C 58.274 566.048 80.346 563.2 80.411 563.2 C 80.476 563.2 99.678 555.055 99.743 555.055 C 99.808 555.055 108.376 543.531 108.376 543.531 L 124.174 542.055 C 124.174 542.055 152.642 532.472 152.705 532.472 C 152.768 532.472 150.021 523.093 150.021 523.093 L 150.021 516.822 C 150.021 516.822 141.717 502.816 141.573 502.672 C 141.429 502.528 127.666 481.414 127.666 481.348 C 127.666 481.282 116.094 464.863 115.95 464.79 C 115.806 464.717 86.544 452.665 86.544 452.665 L 69.938 447.103 L 60.37 414.275 C 60.37 414.275 79.142 375.797 79.075 375.797 C 79.008 375.797 72.046 371.162 72.046 371.162 C 72.046 371.162 52.61 370.208 52.546 370.208 C 52.482 370.208 48.514 374.96 48.514 374.96 L 30.015 365.277 C 30.015 365.277 35.594 346.968 35.594 346.901 C 35.594 346.834 82.291 310.034 82.291 310.034 L 83.255 295.204 L 86.809 289.681 Z"/>
  <path id="Slovenia / Central" style="stroke: rgb(0, 0, 0); fill: rgb(231, 216, 182);" d="M 415.19 258.272 L 372.231 255.785 L 332.117 261.162 L 308.121 274.845 L 278.429 289.096 C 278.429 289.096 249.667 299.317 249.667 299.409 C 249.667 299.501 244.434 315.915 244.434 315.915 L 233.92 338.056 L 245.374 355.131 L 270.609 372.496 L 297.942 372.645 L 314.589 368.597 L 308.587 359.845 L 334.111 353.527 L 372.9 356.842 C 372.9 356.842 389.656 356.044 389.749 356.044 C 389.842 356.044 389.855 321.347 389.855 321.347 L 405.163 306.437 L 437.704 293.47 L 470.63 322.5 L 497.511 330.524 L 492.409 304.239 L 481.436 274.855 L 449.656 266.48 L 429.01 260.481"/>
  <path id="Slovenia / North-West" style="fill: rgb(216, 216, 216); stroke: rgb(0, 0, 0);" d="M 85.568 286.983 C 85.568 286.983 54.802 279.943 54.802 279.991 C 54.802 280.039 45.085 269.362 45.085 269.362 L 17.867 268.296 L 8.335 251.26 C 8.335 251.26 21.173 229.18 21.22 229.18 C 21.267 229.18 26.835 213.859 26.835 213.859 L 55.609 199.156 L 70.807 183.653 L 88.525 183.804 L 106.55 153.943 L 128.5 159.957 C 128.5 159.957 158.971 158.617 159.015 158.617 C 159.059 158.617 186.375 169.432 186.375 169.432 L 209.195 173.534 L 225.891 185.739 L 266.065 189.762 L 293.842 187.695 L 322.552 199.93 L 334.676 203.531 L 338.309 211.973 C 338.309 211.973 349.962 215.396 349.962 215.442 C 349.962 215.488 372.698 234.214 372.698 234.214 L 391.95 224.695 L 413.134 230.963 L 478.383 257.644 L 482.416 274.725 L 450.027 266.683 C 450.027 266.683 428.616 260.211 428.585 260.211 C 428.554 260.211 414.883 258.597 414.883 258.597 L 371.295 255.745 C 364.383 256.241 332.363 261.01 332.363 261.01 L 308.687 274.993 L 278.839 289.395 L 249.494 299.447 L 244.726 316.363 L 233.533 337.954 L 218.039 336.881 L 218.845 376.701 L 206.633 389.17 L 187.527 379.781 L 140.232 335.862 L 133.866 322.04 C 133.866 322.04 131.517 305.892 131.485 305.861 C 131.453 305.83 129.949 299.516 129.916 299.516 C 129.883 299.516 127.396 300.955 127.396 300.955 C 127.396 300.955 118.023 306.825 117.992 306.855 C 117.961 306.885 114.243 321.124 114.243 321.155 C 114.243 321.186 105.131 317.033 105.131 317.064 C 105.131 317.095 92.066 296.056 92.066 296.056 L 85.568 286.983 Z"/>
    <path id="Slovenia / Sea" style="stroke: rgb(0, 0, 0); fill: rgb(158, 69, 150);" d="M 50.236 564.183 L 22.49 540.617 L 12.4 528.039 L 49.075 497.636 L 93.314 531.835 L 100.694 545.836 L 100.418 554.323 L 79.304 561.274 L 50.236 564.183 Z"/>
    <g transform="translate(0.000000,610.000000) scale(0.100000,-0.100000)" fill="#000000" stroke="none">
    <path d="M8161 6093 c-14 -3 -59 -17 -100 -33 -107 -38 -146 -44 -173 -25 -13 8 -32 15 -43 15 -30 0 -123 -46 -162 -80 -18 -17 -42 -30 -52 -30 -26 0 -114 -28 -134 -43 -16 -11 -19 -34 -23 -181 -4 -139 -2 -178 12 -222 15 -48 64 -114 85 -114 23 0 49 -66 49 -123 0 -56 -1 -57 -21 -46 -12 6 -38 28 -58 49 -26 27 -48 40 -76 44 -22 4 -65 20 -95 36 -155 85 -204 104 -268 108 -60 4 -71 1 -162 -43 -118 -56 -181 -65 -288 -41 -39 9 -75 16 -80 16 -4 0 -30 -20 -58 -45 -47 -43 -51 -44 -114 -45 -111 -1 -180 -60 -180 -155 0 -32 -6 -47 -27 -67 -37 -34 -82 -56 -131 -64 -38 -6 -40 -5 -63 36 -14 25 -47 59 -81 83 l-57 39 -168 -12 c-92 -6 -199 -18 -236 -26 -95 -20 -141 -17 -222 11 -84 30 -225 35 -295 10 -28 -10 -54 -12 -74 -7 -17 4 -45 6 -61 4 -47 -5 -124 -69 -154 -129 -14 -29 -28 -52 -31 -52 -4 -1 -12 15 -19 34 -24 66 -62 66 -149 -1 -45 -34 -58 -36 -105 -18 -42 16 -137 -127 -181 -273 -47 -155 -58 -166 -179 -183 -111 -16 -133 -26 -169 -78 -70 -105 -100 -127 -236 -172 -47 -16 -92 -36 -100 -44 -10 -9 -18 -47 -23 -107 -5 -61 -12 -97 -23 -107 -14 -14 -18 -9 -44 50 -31 68 -90 128 -126 128 -11 0 -33 -5 -50 -11 -26 -9 -41 -7 -89 11 -47 18 -61 28 -77 61 -20 38 -22 39 -75 39 -61 0 -142 -15 -198 -36 -49 -18 -86 -18 -108 2 -14 12 -52 15 -217 17 -223 2 -226 3 -261 77 -21 44 -85 92 -158 120 -80 30 -131 31 -167 3 -32 -26 -40 -23 -116 34 -24 19 -78 51 -119 71 -65 32 -84 37 -140 36 -91 -1 -199 -18 -213 -32 -16 -16 -53 -15 -86 2 -28 14 -95 30 -170 41 l-42 7 -26 -57 c-14 -31 -30 -86 -34 -123 -5 -37 -11 -74 -14 -82 -2 -8 -7 -27 -10 -43 l-6 -27 -119 2 c-143 4 -159 -4 -206 -100 -34 -70 -31 -67 -184 -152 -79 -45 -126 -65 -153 -66 -55 -3 -63 -15 -60 -83 3 -57 2 -60 -28 -77 -16 -10 -42 -35 -55 -56 -14 -21 -32 -38 -40 -38 -8 0 -22 -11 -30 -24 -15 -22 -15 -31 -1 -98 8 -41 23 -92 32 -113 10 -22 25 -67 33 -100 14 -52 20 -60 43 -63 14 -2 43 6 64 17 45 24 110 27 138 6 11 -8 34 -15 50 -15 47 -1 120 -41 124 -68 6 -40 44 -54 165 -62 105 -7 147 -15 147 -27 0 -3 -10 -22 -23 -42 -12 -19 -29 -52 -37 -72 -21 -52 -195 -200 -393 -335 -38 -25 -45 -44 -46 -114 -1 -37 -8 -65 -21 -85 -11 -16 -20 -47 -20 -67 0 -31 9 -47 56 -97 35 -38 68 -64 89 -70 50 -14 104 2 132 38 23 29 28 31 93 31 l69 0 -5 -72 c-7 -95 -17 -124 -64 -197 -74 -114 -110 -205 -110 -276 0 -43 45 -163 71 -191 23 -24 41 -31 151 -53 46 -10 74 -25 146 -81 49 -38 124 -85 166 -105 46 -22 84 -48 94 -63 9 -15 33 -47 53 -72 20 -25 40 -62 43 -83 10 -54 83 -154 156 -214 36 -28 66 -55 67 -60 2 -4 -17 -20 -40 -35 -24 -15 -70 -55 -103 -89 l-59 -61 -68 6 c-38 4 -95 18 -130 32 -63 27 -113 28 -143 3 -20 -16 -17 -34 12 -78 44 -67 17 -111 -68 -111 -24 0 -72 -9 -106 -20 -35 -11 -87 -20 -115 -20 -29 -1 -63 -7 -77 -15 -14 -8 -37 -14 -51 -15 -51 0 -67 -65 -21 -85 19 -9 22 -17 22 -73 0 -95 14 -114 128 -169 116 -56 148 -59 272 -19 47 15 110 30 141 33 l56 6 28 -52 c15 -28 37 -57 49 -64 19 -13 148 -47 176 -47 6 0 29 17 53 39 61 55 79 62 181 70 l91 6 19 53 c18 50 18 55 3 85 -9 18 -28 47 -43 65 l-27 32 44 0 c24 0 50 4 58 9 10 6 29 -4 65 -33 96 -78 218 -112 415 -118 l115 -3 19 36 c22 42 62 68 81 54 51 -38 69 -47 117 -60 128 -35 157 -39 183 -21 14 9 34 16 44 16 11 0 43 14 73 30 30 17 79 42 109 56 58 27 170 106 208 146 25 27 52 134 52 210 0 45 3 49 39 72 22 14 51 40 65 58 33 43 76 137 76 166 0 26 -2 25 39 11 l31 -11 0 -75 c0 -73 1 -77 35 -109 56 -52 116 -98 168 -128 57 -33 72 -63 56 -114 -6 -21 -9 -53 -7 -72 2 -29 8 -36 33 -43 84 -24 104 -33 155 -67 30 -20 71 -45 90 -55 42 -21 46 -26 65 -90 8 -27 22 -61 31 -74 16 -22 22 -23 80 -18 93 9 206 72 228 128 9 21 16 59 16 83 0 72 18 75 86 15 78 -68 93 -75 209 -94 128 -22 141 -28 166 -70 19 -31 132 -134 211 -192 32 -24 92 -31 103 -12 4 6 26 10 49 9 22 -1 46 -1 53 -1 7 1 26 22 43 49 18 26 48 58 68 71 l36 24 68 -18 c97 -25 126 -17 187 54 57 65 64 98 29 131 -12 11 -26 20 -30 20 -16 0 -119 103 -136 135 -8 16 -19 67 -23 112 -5 56 -14 95 -30 123 l-23 40 25 28 c14 15 33 39 42 55 13 20 26 27 48 27 19 0 39 9 56 26 24 24 28 25 75 15 87 -19 110 17 69 112 -21 48 -34 57 -87 57 -34 0 -35 1 -20 22 18 26 21 71 6 99 -17 32 -73 25 -104 -12 -14 -17 -26 -39 -26 -50 0 -30 -17 -22 -52 25 -18 24 -50 54 -70 67 l-38 24 38 38 c86 90 324 218 438 237 137 23 139 24 142 50 5 42 33 110 45 110 7 0 21 -7 31 -15 34 -26 63 -18 98 26 60 75 109 79 228 19 72 -36 93 -37 131 -5 16 13 45 27 65 31 41 8 58 34 50 78 -3 17 -11 62 -17 99 l-12 68 38 74 38 75 -7 130 c-6 119 -4 140 19 232 14 55 25 111 25 124 0 28 -33 52 -142 103 -88 41 -141 77 -165 110 -17 26 -36 181 -27 229 5 23 25 55 61 94 50 55 53 60 47 97 -6 35 -3 41 20 56 39 26 196 17 247 -14 26 -15 45 -19 68 -15 50 10 97 85 103 164 3 31 6 35 43 42 22 5 81 29 130 54 50 26 119 53 155 60 45 10 83 26 122 54 32 22 72 43 90 46 18 3 42 7 54 9 11 3 34 26 51 53 23 38 38 50 71 60 24 7 49 23 58 37 14 22 14 29 0 79 -9 30 -21 58 -26 61 -22 13 -10 35 19 35 16 0 62 11 103 25 96 33 111 32 165 -10 58 -44 84 -51 133 -35 32 11 45 10 77 -3 72 -28 146 -25 178 8 36 35 32 67 -18 128 -35 43 -52 80 -91 198 l-47 144 32 27 c18 16 48 31 66 34 43 8 137 71 193 128 24 25 47 46 51 46 4 0 9 -9 12 -19 6 -26 64 -61 100 -61 17 0 38 -10 54 -26 18 -18 41 -28 68 -32 34 -3 54 -16 115 -74 96 -89 117 -100 188 -96 53 3 57 5 60 29 3 28 -13 45 -88 92 -32 21 -36 28 -42 84 -8 78 -48 156 -93 186 -19 12 -38 30 -41 40 -9 28 -92 119 -138 150 -43 30 -136 134 -136 153 0 17 21 32 50 36 24 3 25 7 28 77 2 41 -1 78 -6 83 -5 5 -31 14 -58 21 -39 10 -50 17 -52 35 -2 14 -17 32 -38 44 -19 11 -34 24 -34 28 0 5 -18 31 -40 59 -30 37 -40 60 -40 86 0 21 -9 48 -21 65 l-22 29 40 45 c41 46 63 101 63 154 0 25 -10 38 -57 76 -93 74 -144 97 -220 101 -38 2 -79 1 -92 -2z m166 -132 c32 -22 67 -49 77 -60 18 -20 18 -22 -24 -67 l-43 -47 6 -81 c7 -103 36 -179 95 -256 26 -34 61 -80 78 -103 17 -23 40 -47 52 -53 34 -17 37 -22 17 -44 -20 -22 -30 -93 -21 -144 8 -44 94 -144 157 -184 45 -29 119 -109 119 -129 0 -6 25 -32 55 -58 54 -45 77 -81 33 -51 -12 9 -32 16 -43 16 -11 0 -29 6 -40 14 -11 7 -37 19 -58 26 -21 6 -58 29 -83 51 -40 35 -51 39 -98 39 -42 0 -61 -6 -92 -28 -21 -16 -46 -37 -54 -47 -28 -33 -115 -91 -156 -103 -53 -15 -122 -66 -134 -98 -17 -43 -11 -111 15 -176 13 -35 31 -92 40 -128 20 -77 40 -119 69 -143 17 -15 14 -15 -19 3 -26 13 -59 20 -98 20 -45 0 -68 6 -110 30 -62 35 -132 40 -213 15 -27 -8 -80 -20 -119 -25 -87 -13 -105 -30 -105 -104 0 -28 4 -66 9 -84 9 -31 8 -35 -24 -53 -18 -11 -45 -35 -59 -54 -17 -22 -40 -38 -65 -45 -22 -6 -66 -28 -100 -51 -39 -26 -91 -48 -146 -64 -47 -13 -106 -37 -132 -54 -26 -18 -59 -34 -73 -37 -71 -16 -129 -35 -139 -47 -6 -8 -12 -42 -13 -76 l-3 -61 -160 6 c-142 6 -164 5 -195 -11 -64 -32 -80 -53 -80 -107 0 -44 -4 -53 -41 -89 -80 -79 -99 -160 -70 -302 23 -114 52 -172 101 -204 19 -12 46 -30 60 -41 14 -10 48 -27 75 -37 28 -10 60 -24 71 -32 l22 -14 -20 -76 c-15 -61 -19 -102 -16 -217 l3 -141 -34 -47 -34 -47 7 -105 c7 -105 7 -105 -19 -122 -24 -16 -29 -15 -118 15 -50 17 -102 31 -114 31 -31 0 -126 -37 -156 -60 -13 -11 -44 -22 -68 -26 -75 -11 -139 -63 -139 -113 0 -35 -27 -51 -85 -51 -46 0 -74 -10 -224 -85 -138 -68 -184 -96 -236 -145 -35 -33 -71 -60 -79 -60 -38 0 -62 -96 -33 -132 6 -8 28 -26 47 -39 19 -13 71 -57 114 -97 44 -40 90 -75 103 -78 34 -9 28 -19 -20 -38 -42 -16 -87 -64 -129 -138 -20 -37 -15 -83 18 -155 15 -32 24 -70 24 -101 0 -90 24 -144 101 -228 82 -88 82 -108 1 -85 -26 8 -61 16 -77 18 -41 6 -128 -33 -188 -85 -76 -66 -130 -58 -246 37 -24 19 -54 52 -67 73 -31 49 -81 74 -190 93 -49 9 -99 18 -111 21 -11 2 -47 26 -80 52 -76 64 -93 72 -147 72 -66 0 -102 -34 -111 -103 -11 -96 -16 -108 -42 -118 -14 -5 -38 -18 -53 -29 -43 -31 -55 -25 -73 34 -17 52 -58 106 -82 106 -6 0 -45 23 -85 51 -40 27 -87 57 -104 66 -40 21 -44 28 -52 95 -9 76 -32 111 -101 150 -32 18 -82 56 -111 84 l-54 52 5 58 c6 84 -2 99 -68 123 -104 39 -195 21 -195 -39 0 -30 -48 -132 -77 -162 -14 -15 -39 -30 -55 -33 -43 -10 -55 -39 -63 -150 -4 -55 -11 -109 -15 -121 -11 -28 -130 -120 -187 -145 -25 -11 -72 -35 -103 -55 -44 -27 -73 -37 -118 -41 -55 -5 -67 -2 -152 37 -81 37 -98 42 -146 38 -48 -4 -60 -10 -98 -47 l-44 -43 -94 7 c-133 11 -201 34 -273 95 -70 60 -85 65 -174 57 -123 -10 -171 -44 -171 -118 0 -37 21 -89 43 -108 27 -21 20 -31 -20 -31 -55 0 -139 -25 -182 -53 -78 -52 -113 -44 -167 37 -56 84 -98 93 -260 50 -138 -36 -208 -35 -282 3 -56 29 -57 30 -56 72 1 59 25 80 105 91 281 38 285 40 327 127 l28 58 119 0 120 1 77 73 c43 41 91 82 108 93 37 22 60 72 60 129 0 40 -4 46 -104 141 -104 98 -123 126 -140 210 -4 15 -36 62 -72 103 -62 71 -108 104 -181 131 -17 6 -65 38 -106 72 -93 75 -117 88 -207 106 -40 9 -81 23 -91 32 -41 37 -46 179 -9 227 43 55 110 179 119 218 18 83 25 236 11 269 -16 39 -40 45 -165 45 -99 0 -102 -1 -142 -32 l-41 -33 -27 22 c-26 20 -27 25 -21 80 11 105 48 165 136 216 50 28 121 86 219 177 43 40 72 78 88 114 13 30 33 66 44 79 34 44 21 143 -25 181 -9 7 -70 19 -137 26 -100 10 -123 15 -132 31 -35 62 -120 99 -278 120 -58 7 -113 16 -122 20 -22 8 -77 99 -77 127 0 29 44 93 102 148 32 31 48 54 48 70 0 14 6 33 12 42 13 17 107 72 237 139 96 49 107 60 133 130 11 32 30 64 40 69 13 7 59 8 128 4 l109 -8 30 30 c18 19 32 45 36 69 3 21 15 56 25 76 11 20 20 52 20 71 0 18 6 42 14 52 14 19 15 19 69 1 60 -20 115 -19 300 5 97 13 99 13 145 -11 26 -14 81 -47 122 -75 74 -48 76 -49 150 -48 41 0 93 2 116 4 55 5 110 -32 160 -108 59 -88 75 -93 301 -97 103 -2 201 -9 216 -15 43 -17 118 -13 189 9 88 27 105 25 172 -20 66 -45 139 -70 203 -70 61 0 74 -10 107 -78 17 -36 38 -64 53 -71 30 -14 128 -14 153 -1 22 12 35 56 45 148 4 34 13 69 21 76 7 8 44 24 81 36 38 13 81 29 96 37 43 22 105 81 129 125 29 50 52 62 173 88 54 11 109 27 121 34 23 16 88 165 99 231 15 81 73 155 121 155 41 0 85 16 101 37 12 15 15 14 39 -8 21 -19 35 -24 75 -22 59 2 68 9 120 85 22 32 52 64 67 71 30 15 228 41 307 41 28 0 70 -9 95 -18 66 -26 188 -31 295 -12 50 9 136 19 192 23 139 8 179 -7 231 -85 l38 -57 89 1 c76 1 99 5 147 28 75 35 115 84 130 159 7 32 20 64 29 73 9 8 49 18 90 23 42 5 93 18 118 30 35 18 70 24 194 32 l152 9 77 45 c43 25 90 45 107 45 36 0 121 -39 184 -84 28 -21 70 -40 105 -47 41 -9 65 -22 88 -45 43 -44 88 -65 153 -71 90 -8 96 1 95 144 0 137 -15 180 -75 222 -21 14 -44 37 -51 50 -17 32 -15 200 4 260 13 43 16 45 79 66 37 12 86 36 110 53 41 31 47 32 139 32 73 0 111 5 156 21 54 19 152 45 180 48 7 1 38 -17 71 -38z m-2597 -4961 c11 -7 4 -10 -27 -10 -24 0 -43 5 -43 10 0 13 50 13 70 0z"/>
  </g>
</svg>